<svg width="294" height="59" viewBox="0 0 294 59" fill="none" xmlns="http://www.w3.org/2000/svg">
<g clip-path="url(#clip0_506_5396)">
<path d="M45.2249 42.4215H41.4729C41.3332 42.4354 41.1924 42.4094 41.0667 42.3465C40.9411 42.2835 40.8359 42.1862 40.7632 42.0658C36.4923 35.8019 31.7221 29.895 26.4992 24.4031C23.8107 21.4415 20.7418 18.8504 17.3729 16.6979C16.1392 15.9528 14.821 15.3262 13.5197 14.6827C13.3771 14.6365 13.2551 14.5418 13.1748 14.415C13.0946 14.2882 13.0611 14.1373 13.0802 13.9884V4.13249H17.1026C17.5251 4.13249 17.7109 3.94615 17.7109 3.53972V0.49152C17.7109 0.11896 17.5419 -0.0334473 17.1701 -0.0334473H3.14277C2.73716 -0.0334473 2.56811 0.118993 2.56811 0.525422V3.47202C2.56811 4.0986 2.66959 4.20019 3.27801 4.20019H8.22982V26.6215C8.22982 27.0618 8.34808 27.2312 8.82129 27.282C10.1303 27.3189 11.4273 27.0217 12.5902 26.4183C12.7359 26.3754 12.8617 26.2821 12.9452 26.155C13.0288 26.0278 13.0646 25.8752 13.0464 25.7241V19.4582C15.1924 20.5972 17.1904 21.9964 18.9954 23.6242C18.4039 24.1153 17.88 24.5725 17.3053 24.9959C15.7137 26.3821 13.9252 27.5236 11.9986 28.3828C11.3121 28.7193 10.566 28.9165 9.8032 28.9629C9.04038 29.0095 8.27589 28.9043 7.55376 28.6537C6.91007 28.358 6.3308 27.9382 5.84907 27.4181C5.36735 26.8981 4.99267 26.288 4.74627 25.6228C4.49987 24.9576 4.38664 24.2502 4.41309 23.5412C4.43955 22.8321 4.6051 22.1353 4.90038 21.4904C5.22156 20.7713 5.70117 20.1344 6.30315 19.6275C6.42266 19.5318 6.51513 19.4065 6.57144 19.2639C6.62776 19.1214 6.64599 18.9665 6.62426 18.8147V14.7843C6.6411 14.621 6.6411 14.4565 6.62426 14.2932L6.18483 14.4118C4.99479 14.8575 3.91208 15.5499 3.00754 16.4438C1.75453 17.6417 0.836337 19.1474 0.344154 20.8111C-0.148028 22.4749 -0.197006 24.2387 0.202114 25.9273C0.556678 27.7997 1.47592 29.5182 2.8359 30.8506C4.19587 32.1831 5.93111 33.0653 7.80731 33.3784C8.17912 33.3784 8.24674 33.6155 8.24674 33.9542V41.9642C8.24674 42.3707 8.14534 42.5062 7.72283 42.5062H3.31174C2.80472 42.5062 2.72026 42.5909 2.72026 43.0989V46.0116C2.72026 46.5366 2.82167 46.6212 3.36249 46.6212H19.2151C19.7221 46.6212 19.8235 46.5197 19.8235 46.0286V43.1666C19.8235 42.557 19.8235 42.5062 19.1644 42.5062H13.1141V33.1921C13.1325 33.1017 13.173 33.0173 13.232 32.9464C13.291 32.8754 13.3665 32.8202 13.452 32.7857C15.9007 31.7511 18.1797 30.3524 20.2122 28.6367C20.9389 28.061 21.6488 27.4513 22.3755 26.8247L22.7135 27.1465C23.9641 28.4843 25.2654 29.7883 26.4654 31.16C30.3617 35.5596 33.9745 40.2035 37.2817 45.0633C37.5415 45.5384 37.9224 45.9361 38.3855 46.2158C38.8486 46.4954 39.3775 46.647 39.9181 46.6551H45.3939C45.7995 46.6551 45.9685 46.4858 45.9685 46.0963V43.2174C45.9178 42.54 45.8333 42.4215 45.2249 42.4215Z" fill="white"/>
<path d="M233.581 16.0197C230.284 14.4465 226.526 14.1393 223.018 15.1561C220.802 15.6381 218.843 16.93 217.526 18.78C217.088 19.475 216.687 20.193 216.326 20.9307V15.8504C216.326 15.2915 216.224 15.1899 215.684 15.1899H208.349C207.825 15.1899 207.757 15.2916 207.74 15.7827V18.2889C207.74 18.9155 207.859 19.0341 208.484 19.051H211.374C211.712 19.051 211.847 19.051 211.847 19.4913V54.8168C211.847 55.1894 211.712 55.2571 211.374 55.2571H208.214C207.791 55.2571 207.588 55.4264 207.571 55.8159V58.5085C207.571 58.898 207.774 59.0843 208.197 59.0843H220.957C221.447 59.0843 221.548 58.9657 221.548 58.4746V55.799C221.548 55.291 221.413 55.1555 220.923 55.1555H217.188C216.613 55.1555 216.596 55.1555 216.596 54.5627V43.9448C216.613 43.3165 216.579 42.6878 216.495 42.065C216.393 41.4384 216.495 41.2691 216.495 40.9135C216.951 40.7611 217.154 40.9136 217.34 41.3031C218.066 42.8534 219.245 44.1465 220.72 45.0117C223.394 46.6331 226.562 47.2344 229.643 46.7052C231.631 46.4489 233.53 45.7284 235.189 44.6018C236.847 43.4752 238.219 41.9741 239.192 40.2192C240.471 37.9557 241.222 35.4315 241.389 32.8358C241.709 29.756 241.34 26.6435 240.308 23.725C239.753 22.0576 238.872 20.5176 237.717 19.1947C236.563 17.8718 235.156 16.7925 233.581 16.0197ZM234.139 38.9999C233.237 40.3793 231.967 41.4774 230.473 42.169C228.979 42.8606 227.321 43.1179 225.689 42.9118C223.772 42.7754 221.944 42.0526 220.451 40.8411C218.957 39.6297 217.872 37.9879 217.34 36.1379C216.666 34.1051 216.441 31.9499 216.681 29.8214C216.814 27.774 217.391 25.7803 218.371 23.9789C219.054 22.612 220.073 21.4423 221.333 20.58C222.593 19.7178 224.051 19.1915 225.57 19.051C227.464 18.8172 229.384 19.1809 231.062 20.0914C232.74 21.002 234.094 22.4142 234.933 24.1314C235.988 26.2304 236.516 28.5555 236.471 30.9052C236.577 33.7627 235.759 36.578 234.139 38.9322V38.9999Z" fill="white"/>
<path d="M204.124 42.9113H200.879C200.304 42.9113 200.304 42.9114 200.304 42.3187V27.8566C200.302 26.5306 200.206 25.2063 200.017 23.8938C199.818 21.772 198.938 19.7719 197.509 18.1934C196.08 16.6149 194.179 15.5432 192.091 15.1387C188.183 14.2079 184.098 14.3424 180.26 15.5282C178.213 16.102 176.349 17.1991 174.852 18.7119C174.79 18.7498 174.736 18.8 174.694 18.8593C174.652 18.9186 174.622 18.9857 174.606 19.0569C174.59 19.128 174.589 19.2017 174.602 19.2733C174.616 19.345 174.643 19.4132 174.683 19.474L174.802 19.5925C175.342 20.2191 175.833 20.8964 176.356 21.5569C176.88 22.2173 176.965 22.0311 177.404 21.7093C177.892 21.3193 178.406 20.9629 178.942 20.6424C182.342 18.7657 186.309 18.1995 190.097 19.0506C190.95 19.1949 191.764 19.5166 192.485 19.9949C193.207 20.4732 193.821 21.0976 194.288 21.8279C195.043 23.054 195.474 24.4528 195.538 25.8921V28.3815H194.896C191.428 28.2657 187.956 28.3787 184.502 28.7202C182.324 28.9417 180.195 29.5135 178.199 30.4136C176.401 31.1585 174.915 32.502 173.991 34.2174C173.068 35.9327 172.763 37.9148 173.129 39.8292C173.307 41.3973 173.945 42.8773 174.961 44.0828C175.978 45.2883 177.328 46.1652 178.841 46.603C181.657 47.5413 184.688 47.6121 187.545 46.8064C190.254 46.1428 192.699 44.6726 194.558 42.5896C195.082 42.0138 195.555 41.3703 196.147 40.6591V44.6895C196.074 45.1677 196.193 45.6552 196.478 46.0456C196.763 46.436 197.191 46.6974 197.668 46.7724H204.158C204.563 46.7724 204.749 46.5862 204.732 46.1628V43.6057C204.715 43.0807 204.546 42.9113 204.124 42.9113ZM194.829 36.5101C194.831 36.6705 194.791 36.8286 194.71 36.9674C192.882 39.6989 190.145 41.6912 186.987 42.5896C184.963 43.178 182.797 43.0341 180.869 42.1831C179.733 41.6593 178.83 40.7333 178.334 39.583C177.838 38.4327 177.784 37.1392 178.182 35.9512C178.552 34.9504 179.281 34.1235 180.227 33.6312C181.569 32.8863 183.057 32.4414 184.587 32.3272C186.7 32.1409 188.846 32.0563 190.925 31.9208V32.0224H194.457C194.778 32.0224 194.862 32.124 194.862 32.4288C194.862 33.8005 194.862 35.1384 194.862 36.5271L194.829 36.5101Z" fill="white"/>
<path d="M102.433 42.7434H99.2723C98.8329 42.7434 98.7315 42.6079 98.7315 42.1845V25.7919C98.7286 24.6546 98.6154 23.5203 98.3935 22.405C98.1229 20.7625 97.4148 19.2237 96.3439 17.951C95.2731 16.6783 93.8792 15.7188 92.3093 15.1739C90.1334 14.4341 87.8001 14.288 85.5492 14.7505C83.9909 14.9704 82.5028 15.5419 81.1971 16.422C79.8914 17.302 78.8022 18.4676 78.0115 19.8309C78.0115 19.9664 77.8426 20.085 77.7581 20.2205V15.5465C77.7581 15.0385 77.6566 14.9199 77.1665 14.9199H69.8824C69.4768 14.9199 69.274 15.0892 69.274 15.4957V18.2222C69.274 18.6456 69.4769 18.8318 69.9163 18.8149H72.688C73.6006 18.8149 73.5836 18.8149 73.5836 19.6785V42.2523C73.5836 42.6418 73.4653 42.7604 73.0766 42.7604H69.8993C69.3585 42.7604 69.2571 42.7603 69.2402 43.37V45.9441C69.2402 46.469 69.3754 46.5706 69.8824 46.5706H81.7127C82.1352 46.5706 82.3211 46.4012 82.3211 45.9948V43.3023C82.3211 42.862 82.1183 42.7095 81.6958 42.7095H78.9242C78.3158 42.7095 78.3157 42.7095 78.3157 42.1168V24.9791C78.3027 24.578 78.396 24.1807 78.5862 23.8275C79.0628 22.9418 79.6291 22.1076 80.2762 21.3381C81.2753 20.2471 82.5343 19.4279 83.9352 18.957C85.3362 18.4861 86.8335 18.379 88.287 18.6456C89.349 18.7685 90.3593 19.172 91.2145 19.8147C92.0697 20.4574 92.7392 21.3163 93.1544 22.3034C93.7634 23.766 94.0516 25.3426 93.9994 26.9265V44.4876C93.9689 44.7373 93.9887 44.9907 94.0578 45.2325C94.1268 45.4744 94.2436 45.6999 94.4012 45.8957C94.5588 46.0915 94.754 46.2537 94.9753 46.3725C95.1966 46.4913 95.4394 46.5645 95.6894 46.5876H102.585C103.075 46.5876 103.193 46.452 103.193 45.9779V43.4208C103.024 42.8451 103.024 42.7434 102.433 42.7434Z" fill="white"/>
<path d="M273.348 37.9662C273.027 37.6614 272.824 37.7122 272.554 38.0847C272.347 38.387 272.121 38.6755 271.878 38.9484C270.514 40.4923 268.793 41.6778 266.867 42.4011C264.94 43.1244 262.865 43.3635 260.825 43.0974C259.474 42.9561 258.17 42.5225 257.003 41.8266C255.836 41.1307 254.833 40.1891 254.065 39.067C252.699 37.0903 251.898 34.7773 251.749 32.3778C251.749 31.9544 251.901 31.9205 252.239 31.9205H274.565C274.713 31.9205 274.855 31.8617 274.959 31.7569C275.064 31.6521 275.123 31.5099 275.123 31.3617C275.173 28.7544 274.82 26.1551 274.075 23.6565C273.352 21.0683 271.825 18.7785 269.714 17.1198C268.166 16.0593 266.424 15.3153 264.588 14.9303C262.752 14.5453 260.859 14.5269 259.016 14.8761C257.173 15.2253 255.417 15.9352 253.848 16.9653C252.279 17.9954 250.928 19.3255 249.873 20.8793C249.432 21.5158 249.047 22.1901 248.724 22.8944C246.651 27.4206 246.421 32.5783 248.082 37.2719C248.643 39.1967 249.619 40.9743 250.942 42.4786C252.265 43.9829 253.903 45.177 255.738 45.9762C258.03 47.0245 260.539 47.5085 263.055 47.3877C265.572 47.2669 268.023 46.5449 270.205 45.2819C272.183 44.2007 273.871 42.6551 275.123 40.7774C275.262 40.6349 275.34 40.4434 275.34 40.2439C275.34 40.0445 275.262 39.8529 275.123 39.7105C274.413 39.0331 273.923 38.525 273.348 37.9662ZM253.845 22.9961C254.797 21.5359 256.152 20.3841 257.745 19.6807C259.338 18.9773 261.101 18.7524 262.819 19.0334C264.443 19.1878 265.979 19.8447 267.213 20.9131C268.616 22.1601 269.577 23.8301 269.951 25.6717C270.111 26.4438 270.229 27.2239 270.306 28.0087C270.323 28.1323 270.323 28.2577 270.306 28.3813H252.037C252.188 26.4618 252.815 24.6107 253.862 22.9961H253.845Z" fill="white"/>
<path d="M129.559 32.3463C128.351 31.5338 127.03 30.906 125.638 30.4835C123.475 29.8231 121.278 29.2304 119.114 28.5869C117.592 28.21 116.149 27.5618 114.855 26.6733C114.391 26.3791 113.999 25.9846 113.706 25.5187C113.414 25.0528 113.229 24.5273 113.165 23.9806C113.057 22.9522 113.306 21.918 113.869 21.0515C114.432 20.185 115.276 19.539 116.258 19.222C118.402 18.4444 120.74 18.391 122.917 19.0697C124.387 19.412 125.709 20.2195 126.686 21.3727C127.093 21.8734 127.396 22.4501 127.579 23.0693C127.762 23.6885 127.82 24.3379 127.75 24.9798C127.745 25.051 127.755 25.1226 127.78 25.1892C127.806 25.2559 127.846 25.3159 127.898 25.3647C127.95 25.4136 128.013 25.45 128.081 25.4713C128.149 25.4926 128.221 25.4983 128.291 25.4878H131.046C131.189 25.5025 131.332 25.4613 131.445 25.373C131.558 25.2847 131.633 25.1559 131.654 25.0136V15.6149C131.659 15.5504 131.651 15.4857 131.63 15.4244C131.61 15.363 131.578 15.3063 131.535 15.2575C131.493 15.2087 131.441 15.1687 131.383 15.14C131.325 15.1113 131.263 15.0943 131.198 15.09H128.764C128.619 15.0655 128.469 15.0999 128.349 15.1856C128.229 15.2713 128.147 15.4014 128.122 15.5472C128.105 15.6139 128.105 15.6838 128.122 15.7505V18.0028L127.919 17.7826C126.963 16.4158 125.537 15.4508 123.914 15.073C121.577 14.4927 119.15 14.3663 116.765 14.7005C114.813 14.9381 112.974 15.7448 111.475 17.0205C110.503 17.8288 109.727 18.848 109.206 20.0009C108.685 21.1539 108.432 22.4106 108.467 23.6758C108.422 24.7396 108.621 25.7997 109.048 26.7745C109.476 27.7492 110.121 28.6125 110.934 29.2981C112.082 30.2859 113.415 31.0344 114.855 31.4996C117.12 32.2278 119.418 32.8713 121.615 33.5487C123.192 33.9141 124.691 34.5562 126.043 35.4454C126.784 35.9395 127.3 36.7062 127.48 37.5791C127.665 38.5274 127.534 39.5104 127.106 40.3765C126.678 41.2425 125.978 41.9435 125.114 42.3715C123.464 43.1024 121.655 43.3997 119.858 43.2352C117.61 43.2344 115.431 42.4569 113.689 41.0337C112.921 40.5212 112.298 39.8184 111.88 38.9936C111.463 38.1688 111.265 37.2499 111.306 36.326C111.306 35.9196 111.053 35.7502 110.681 35.7502H108.095C107.47 35.7502 107.318 35.9025 107.318 36.563V46.1818C107.318 46.639 107.487 46.8253 107.926 46.8253H110.41C110.477 46.8323 110.545 46.8261 110.609 46.8068C110.673 46.7876 110.733 46.7558 110.785 46.7133C110.836 46.6708 110.879 46.6184 110.911 46.5592C110.942 46.4999 110.962 46.435 110.968 46.3682V42.8796H111.087C111.32 43.2911 111.58 43.687 111.864 44.065C112.846 45.1541 114.1 45.9609 115.498 46.402C118.556 47.4344 121.833 47.639 124.996 46.9947C126.862 46.7106 128.616 45.92 130.066 44.7085C130.958 43.9235 131.665 42.9497 132.136 41.8572C132.606 40.7648 132.829 39.5811 132.787 38.3919C132.834 37.1876 132.56 35.9924 131.992 34.9297C131.425 33.8669 130.585 32.9751 129.559 32.3463Z" fill="white"/>
<path d="M164.577 37.8999C164.29 37.612 164.037 37.6628 163.783 37.8999C163.53 38.137 163.394 38.4757 163.175 38.7636C161.506 40.7062 159.291 42.0991 156.82 42.7601C154.701 43.3876 152.436 43.3184 150.359 42.5626C148.282 41.8068 146.501 40.4041 145.277 38.5603C143.862 36.3522 143.082 33.7951 143.026 31.1714C142.969 28.5476 143.637 25.9592 144.956 23.6918C145.944 21.8925 147.47 20.4482 149.319 19.5614C151.167 18.6746 153.247 18.3899 155.265 18.7469C157.546 19.042 159.633 20.1842 161.113 21.9475C161.645 22.5524 162.052 23.2584 162.307 24.0234C162.562 24.7884 162.662 25.597 162.6 26.4013C162.6 27.0787 162.701 27.1973 163.361 27.1973H165.558C166.403 27.1973 166.403 27.1973 166.403 26.3336V15.4616C166.408 15.335 166.366 15.2109 166.285 15.1137C166.203 15.0166 166.089 14.9535 165.963 14.9367H163.597C163.192 14.9367 163.006 15.106 163.006 15.5293V19.1025L162.752 18.7977C161.891 17.4145 160.629 16.3275 159.135 15.6818C156.482 14.5095 153.538 14.1614 150.685 14.6826C148.007 15.0551 145.495 16.2019 143.457 17.9824C141.419 19.7629 139.943 22.1 139.21 24.7078C138.247 27.7206 138.027 30.9221 138.568 34.0388C138.983 37.3393 140.433 40.4226 142.708 42.8448C144.257 44.4723 146.169 45.709 148.287 46.4537C150.405 47.1984 152.669 47.43 154.893 47.1293C158.16 46.8866 161.268 45.6252 163.783 43.5222C164.79 42.7261 165.673 41.7844 166.403 40.728C166.572 40.457 166.69 40.1691 166.403 39.8643C165.845 39.1869 165.22 38.5265 164.577 37.8999Z" fill="white"/>
<path d="M62.9368 42.7606H60.0637C59.3708 42.7606 59.3708 42.7606 59.3708 42.0663V16.3089C59.3708 15.2928 59.3708 15.2927 58.3567 15.2927H50.6332C50.2445 15.2927 50.0587 15.4621 50.0587 15.8516V18.4934C50.0435 18.5745 50.0483 18.6581 50.0727 18.737C50.0971 18.8159 50.1403 18.8875 50.1985 18.9459C50.2568 19.0043 50.3283 19.0476 50.407 19.072C50.4857 19.0964 50.5692 19.1012 50.6501 19.086H54.419V42.7944H50.6332C50.2107 42.7944 50.0417 42.9638 50.0417 43.3702V46.0629C50.0417 46.4185 50.1939 46.6047 50.5826 46.6047H62.9706C63.109 46.6194 63.2476 46.5801 63.3578 46.4949C63.4679 46.4098 63.5411 46.2854 63.5621 46.1475V43.3363C63.5621 42.9299 63.3593 42.7437 62.9368 42.7606Z" fill="white"/>
<path d="M26.6347 21.845C27.7839 20.541 28.9332 19.2709 30.0148 17.967C33.6931 13.6454 37.1292 9.12259 40.3071 4.41933C40.3683 4.33607 40.4469 4.26719 40.5373 4.21747C40.6278 4.16775 40.7281 4.13841 40.831 4.13147H43.8731C44.3801 4.13147 44.5153 4.01294 44.5322 3.5049V0.676758C44.5322 0.185656 44.3801 0.0671387 43.8731 0.0671387H30.6908C29.9302 0.0671387 29.9302 0.0671759 29.9302 0.846166V3.471C29.9302 3.99597 29.9303 4.06367 30.5218 4.06367H35.2539C31.6522 9.23533 27.6995 14.1523 23.4236 18.7798L26.6347 21.845Z" fill="white"/>
<path d="M286.851 18.5268C285.437 18.5268 284.055 18.1067 282.879 17.3196C281.704 16.5325 280.787 15.4137 280.246 14.1048C279.705 12.7958 279.564 11.3556 279.84 9.96601C280.115 8.57646 280.796 7.30008 281.796 6.29827C282.796 5.29646 284.07 4.61423 285.456 4.33783C286.843 4.06144 288.281 4.20331 289.587 4.74549C290.893 5.28766 292.01 6.20576 292.795 7.38376C293.581 8.56176 294 9.94667 294 11.3634C293.995 13.2619 293.241 15.0813 291.901 16.4238C290.561 17.7662 288.746 18.5224 286.851 18.5268ZM286.851 5.85971C285.765 5.85971 284.703 6.18251 283.8 6.78727C282.896 7.39203 282.192 8.25159 281.777 9.25727C281.361 10.2629 281.252 11.3696 281.464 12.4373C281.676 13.5049 282.199 14.4855 282.967 15.2552C283.735 16.0249 284.714 16.5491 285.779 16.7614C286.845 16.9738 287.949 16.8648 288.953 16.4483C289.957 16.0317 290.814 15.3262 291.418 14.4212C292.022 13.5161 292.344 12.452 292.344 11.3634C292.339 9.90514 291.759 8.50786 290.73 7.47668C289.701 6.4455 288.306 5.86418 286.851 5.85971Z" fill="white"/>
<path d="M285.904 11.8208V14.1239H285.177V8.55249H286.732C287.034 8.55285 287.335 8.59271 287.627 8.67104C287.855 8.72812 288.067 8.83191 288.253 8.97585C288.413 9.10123 288.541 9.26405 288.625 9.45007C288.701 9.65609 288.741 9.87374 288.743 10.0935C288.743 10.2789 288.709 10.4628 288.641 10.6354C288.585 10.8054 288.493 10.9614 288.371 11.0927C288.253 11.2314 288.109 11.3463 287.948 11.4314C287.774 11.532 287.586 11.6062 287.391 11.6515C287.485 11.7128 287.566 11.7936 287.627 11.8885L289.317 14.0732H288.658C288.599 14.077 288.539 14.0649 288.486 14.0381C288.432 14.0114 288.387 13.9708 288.354 13.9207L286.934 11.9394L286.782 11.8039H286.563L285.904 11.8208ZM285.904 11.2789H286.681C286.876 11.2808 287.07 11.2522 287.255 11.1943C287.411 11.1522 287.555 11.0771 287.678 10.9741C287.79 10.8846 287.877 10.768 287.932 10.6354C287.957 10.4898 287.957 10.3407 287.932 10.1951C287.939 10.0545 287.914 9.9142 287.858 9.78496C287.802 9.65572 287.717 9.54112 287.61 9.45007C287.326 9.26183 286.987 9.17254 286.647 9.19601H285.819L285.904 11.2789Z" fill="white"/>
<path d="M290.078 14.5456H288.574C288.44 14.5501 288.308 14.5177 288.192 14.452C288.076 14.3863 287.98 14.2898 287.915 14.173L286.495 12.2425H286.326V14.5456H284.754V8.17825H286.732C287.074 8.17702 287.415 8.22252 287.746 8.31365C288.027 8.38561 288.291 8.51225 288.523 8.68626C288.736 8.85791 288.904 9.07873 289.013 9.32978C289.114 9.58304 289.165 9.85309 289.165 10.1257C289.162 10.3674 289.122 10.6071 289.047 10.8369C288.962 11.0473 288.842 11.242 288.692 11.4127C288.549 11.5937 288.371 11.7436 288.168 11.853L290.078 14.5456ZM286.326 10.8538H286.681C286.832 10.8745 286.986 10.8745 287.137 10.8538C287.236 10.8209 287.328 10.7692 287.408 10.7015C287.462 10.6468 287.508 10.5839 287.543 10.5151C287.562 10.4258 287.562 10.3335 287.543 10.2442C287.543 9.99019 287.543 9.8886 287.374 9.8378C287.166 9.71127 286.924 9.65207 286.681 9.66839H286.275L286.326 10.8538Z" fill="white"/>
</g>
<defs>
<clipPath id="clip0_506_5396">
<rect width="294" height="59" fill="white"/>
</clipPath>
</defs>
</svg>
