<svg width="100" height="75" viewBox="0 0 100 75" fill="none" xmlns="http://www.w3.org/2000/svg">
<g clip-path="url(#clip0_2_23)">
<path d="M89.77 20.28C83.77 20.28 79.53 16.09 79.53 10.09C79.53 3.47 84.68 0 89.77 0C94.86 0 100 3.47 100 10.09C100.043 11.4433 99.8081 12.7911 99.3088 14.0496C98.8096 15.3082 98.0569 16.4507 97.0976 17.4063C96.1383 18.3618 94.9929 19.11 93.7323 19.6043C92.4718 20.0987 91.1231 20.3287 89.77 20.28ZM89.77 2.45C88.7488 2.40863 87.7299 2.57729 86.7764 2.94553C85.823 3.31377 84.9552 3.87376 84.2269 4.59085C83.4986 5.30793 82.9251 6.16686 82.5421 7.11447C82.1591 8.06208 81.9746 9.07822 82 10.1C82 12.1607 82.8187 14.1371 84.2758 15.5942C85.733 17.0514 87.7093 17.87 89.77 17.87C91.8308 17.87 93.8071 17.0514 95.2643 15.5942C96.7214 14.1371 97.54 12.1607 97.54 10.1C97.5655 9.07822 97.381 8.06208 96.998 7.11447C96.6149 6.16686 96.0415 5.30793 95.3132 4.59085C94.5848 3.87376 93.7171 3.31377 92.7636 2.94553C91.8102 2.57729 90.7913 2.40863 89.77 2.45Z" fill="white"/>
<path d="M93.29 14C93.1241 13.0808 92.8799 12.1775 92.56 11.3C92.0942 10.7627 91.4528 10.4083 90.75 10.3C90.75 10.3 93.06 9.83001 93.07 7.84001C93.07 5.03001 87.89 5.46001 87.47 5.46001H85.13V6.21001C85.13 6.21001 85.69 6.14001 86.46 6.12001V14.01L85.11 14.16V14.86H89.78V14.16L88.42 14V10.68C90.25 10.81 90.42 11 90.7 11.46C90.98 11.92 90.92 14.26 91.7 14.69C92.48 15.12 94.47 14.78 94.47 14.78V14.08C94.0749 14.0994 93.6789 14.0725 93.29 14ZM88.42 9.84001V6.16001C89.74 6.36001 90.94 6.88001 90.95 8.11001C90.96 9.34001 89.45 9.78001 88.42 9.84001Z" fill="white"/>
<path d="M71.21 74.87C71.91 74.87 72.01 74.51 72.01 74.17V69.28C72.01 68.93 71.91 68.58 71.21 68.58H64.33C58.73 60.7224 52.6624 53.2089 46.16 46.08L46.09 46C39.52 38.89 33.5 33.53 28.18 30.06V30.13L28.09 30.07C25.7403 28.5088 23.2166 27.2268 20.57 26.25H20.5V10.55H27C27.0954 10.5655 27.1932 10.5581 27.2852 10.5284C27.3772 10.4987 27.4609 10.4476 27.5292 10.3792C27.5976 10.3109 27.6488 10.2272 27.6784 10.1352C27.7081 10.0432 27.7155 9.94542 27.7 9.84999V4.99999C27.7 4.46999 27.53 4.29999 27 4.29999H4.81C4.28 4.29999 4.11 4.46999 4.11 4.99999V9.84999C4.09448 9.94542 4.10187 10.0432 4.13156 10.1352C4.16125 10.2272 4.21239 10.3109 4.28076 10.3792C4.34913 10.4476 4.43277 10.4987 4.52479 10.5284C4.61681 10.5581 4.71457 10.5655 4.81 10.55H13V45.39C13.5611 45.5173 14.1347 45.5811 14.71 45.58C16.7191 45.4796 18.6817 44.9403 20.46 44V33.66L20.61 33.73C21.8876 34.3526 23.1236 35.0574 24.31 35.84L24.39 35.9C25.47 36.6 26.64 37.44 27.87 38.39L27.99 38.49L28.26 38.69L29.77 39.91L29.86 39.99L29.77 40.07C23.54 45.34 18.47 48.07 14.69 48.07C13.6796 48.0806 12.6777 47.8847 11.7457 47.4944C10.8137 47.104 9.97126 46.5275 9.27 45.8C8.53274 45.056 7.95201 44.1719 7.56213 43.1997C7.17225 42.2276 6.98111 41.1872 7 40.14V40.06C6.98557 39.0083 7.18262 37.9645 7.57944 36.9905C7.97626 36.0165 8.56476 35.1321 9.31 34.39C9.69915 34.0154 10.1246 33.6804 10.58 33.39V25.75C8.24092 26.4659 6.11243 27.743 4.38 29.47C1.59859 32.3092 0.0407715 36.1254 0.0407715 40.1C0.0407715 44.0746 1.59859 47.8908 4.38 50.73C6.6797 53.0357 9.69436 54.4919 12.93 54.86H13V68.58H4.81C4.28 68.58 4.11 68.76 4.11 69.28V74.17C4.09448 74.2654 4.10187 74.3632 4.13156 74.4552C4.16125 74.5472 4.21239 74.6309 4.28076 74.6992C4.34913 74.7676 4.43277 74.8187 4.52479 74.8484C4.61681 74.8781 4.71457 74.8855 4.81 74.87H30.23C30.3254 74.8855 30.4232 74.8781 30.5152 74.8484C30.6072 74.8187 30.6909 74.7676 30.7592 74.6992C30.8276 74.6309 30.8788 74.5472 30.9084 74.4552C30.9381 74.3632 30.9455 74.2654 30.93 74.17V69.28C30.93 68.76 30.76 68.58 30.23 68.58H20.46V54H20.53C24.84 52.54 29.72 49.46 35.03 44.85L35.1 44.79L35.17 44.85C37.1 46.72 39.05 48.72 40.97 50.8L41.04 50.86C47.1 57.4796 52.7632 64.4517 58 71.74C58.3166 72.3071 58.6956 72.8371 59.13 73.32C59.5739 73.825 60.1244 74.2252 60.7418 74.4915C61.3592 74.7578 62.028 74.8837 62.7 74.86L71.21 74.87Z" fill="white"/>
<path d="M70.14 4.26999H48.14C47.62 4.26999 47.44 4.43999 47.44 4.96999V9.84999C47.44 10.38 47.62 10.55 48.14 10.55H55.9L55.79 10.71C50.021 18.6968 43.7023 26.2718 36.88 33.38C38.56 34.81 40.3 36.38 42.05 38.09C43.1 37.02 44.14 35.91 45.16 34.79C52.0453 27.1669 58.4477 19.1212 64.33 10.7L64.12 10.55H70.12C70.82 10.55 70.92 10.2 70.92 9.84999V4.99999C70.94 4.61999 70.84 4.26999 70.14 4.26999Z" fill="white"/>
</g>
<defs>
<clipPath id="clip0_2_23">
<rect width="100" height="74.87" fill="white"/>
</clipPath>
</defs>
</svg>
