<svg width="200" height="40" viewBox="0 0 200 40" fill="none" xmlns="http://www.w3.org/2000/svg">
<g clip-path="url(#clip0_2_4)">
<path d="M135.633 30.74H139.4C139.653 30.74 139.747 30.6467 139.747 30.3933V28.5333C139.747 28.28 139.653 28.1867 139.4 28.1867H136.807V18C136.807 12.2867 133.887 9.51334 127.88 9.51334C121.873 9.51334 119.593 12.18 119.573 12.22C119.333 12.4267 119.353 12.54 119.487 12.6933L120.7 14.2133C120.757 14.2743 120.832 14.3147 120.914 14.3279C120.996 14.3412 121.08 14.3267 121.153 14.2867L121.3 14.1733C121.92 13.6867 123.827 12.2067 127.727 12.2067C131.627 12.2067 133.527 14.06 133.527 17.8733V18.6133H129.72C124.5 18.6133 118.287 19.7667 118.287 25.28C118.287 28.78 121.073 31.1267 125.213 31.1267C126.837 31.1874 128.451 30.8498 129.914 30.1432C131.377 29.4367 132.645 28.3827 133.607 27.0733L133.92 26.64V29.1333C133.947 30.28 134.42 30.74 135.633 30.74ZM133.553 24.3L133.52 24.3467C132.627 25.54 130.127 28.3133 126.24 28.3133C123.52 28.3133 121.693 26.8867 121.693 24.7667C121.693 21.54 126.087 21.1267 129.92 21.1267H133.553V24.3Z" fill="#E75739"/>
<path d="M164.78 20.22C164.78 13.7933 160.933 9.47998 155.207 9.47998C151.8 9.47998 149.16 10.8133 148.14 13.12L147.813 13.86V10.1266C147.813 9.87998 147.713 9.77998 147.467 9.77998H142.353C142.107 9.77998 142.007 9.87998 142.007 10.1266V12C142.001 12.0468 142.007 12.0942 142.022 12.1387C142.038 12.1832 142.063 12.2236 142.096 12.2569C142.13 12.2902 142.17 12.3156 142.215 12.3311C142.259 12.3466 142.307 12.352 142.353 12.3466H144.78V36.5866H142.267C142.02 36.5866 141.92 36.68 141.92 36.9333V38.7933C141.913 38.8404 141.918 38.8884 141.933 38.9335C141.948 38.9786 141.973 39.0196 142.007 39.0532C142.04 39.0868 142.081 39.1122 142.127 39.1272C142.172 39.1423 142.22 39.1467 142.267 39.14H151.013C151.267 39.14 151.36 39.0466 151.36 38.7933V36.9333C151.36 36.68 151.267 36.5866 151.013 36.5866H148V28.9666C148 28.3733 147.873 27.2533 147.873 27.24V27.0466H148.313L148.36 27.1533C149.427 29.5866 152.007 31.0466 155.26 31.0466C160.953 31.0466 164.78 26.6666 164.78 20.22ZM147.933 20.6066C147.933 14.7733 151.347 12.1666 154.733 12.1666C158.733 12.1666 161.573 15.5 161.573 20.3066C161.573 25.1133 158.76 28.36 154.733 28.36C151.333 28.36 147.933 25.6933 147.933 20.6066Z" fill="#E75739"/>
<path d="M104.713 9.47998C99.7 9.47998 94.6267 13.1533 94.6267 20.1466C94.6267 26.5466 98.92 31.02 105.06 31.02C110.393 31.02 113.447 27.7933 114.18 26.5533C114.273 26.4133 114.327 26.24 114.047 25.9933L112.82 24.7733C112.751 24.7244 112.671 24.6945 112.587 24.6866C112.587 24.6866 112.44 24.6866 112.307 24.88C111.482 25.9592 110.418 26.8327 109.199 27.4318C107.98 28.031 106.638 28.3396 105.28 28.3333C101.687 28.3333 97.8734 25.48 97.8734 20.1933C97.8357 19.0827 98.0283 17.9762 98.439 16.9436C98.8498 15.911 99.4698 14.9746 100.26 14.1933C101.567 12.9115 103.316 12.1811 105.147 12.1533C106.817 12.1212 108.447 12.6677 109.76 13.7C110.247 14.054 110.652 14.5087 110.948 15.0333C111.244 15.5579 111.423 16.14 111.473 16.74V17.4733C111.473 17.6266 111.513 17.82 111.86 17.82H113.807C114.06 17.82 114.153 17.7266 114.153 17.4733V10.14C114.153 9.79331 113.96 9.75331 113.807 9.75331H112.167C112.115 9.74897 112.062 9.75563 112.013 9.77286C111.963 9.79008 111.918 9.81749 111.88 9.85331C111.851 9.89067 111.83 9.93369 111.819 9.97961C111.807 10.0255 111.805 10.0733 111.813 10.12V12.5733L111.493 12.1266C110.947 11.3333 109.18 9.47998 104.713 9.47998Z" fill="#E75739"/>
<path d="M43.0934 30.74C43.1404 30.7467 43.1884 30.7423 43.2335 30.7272C43.2786 30.7122 43.3196 30.6868 43.3532 30.6532C43.3869 30.6196 43.4122 30.5786 43.4273 30.5335C43.4423 30.4884 43.4467 30.4404 43.44 30.3933V28.5333C43.44 28.28 43.34 28.1867 43.0934 28.1867H40.6267V10.1267C40.6267 9.98 40.5867 9.78 40.2333 9.78H34.78C34.5267 9.78 34.4333 9.88 34.4333 10.1267V12C34.4333 12.2467 34.5267 12.3467 34.78 12.3467H37.3734V28.1867H34.78C34.5267 28.1867 34.4333 28.28 34.4333 28.5333V30.3933C34.4333 30.6467 34.5267 30.74 34.78 30.74H43.0934Z" fill="#E75739"/>
<path d="M178.94 9.47998C173.967 9.47998 168.94 13.1533 168.94 20.1466C168.94 26.5466 173.233 31.02 179.38 31.02C185.74 31.02 188.427 26.6 188.453 26.5533C188.48 26.5066 188.607 26.24 188.353 25.9866L187.14 24.82C187.08 24.7689 187.005 24.7385 186.927 24.7333C186.872 24.7373 186.82 24.7562 186.775 24.788C186.73 24.8197 186.695 24.863 186.673 24.9133C186.007 26.0266 183.34 28.3333 179.593 28.3333C174.773 28.3333 172.427 24.68 172.26 21.0666V20.8866H188.073C188.126 20.892 188.179 20.8855 188.229 20.8675C188.279 20.8495 188.324 20.8206 188.361 20.7828C188.398 20.7451 188.426 20.6994 188.444 20.6493C188.461 20.5992 188.466 20.5459 188.46 20.4933C188.42 13.4 185.053 9.47998 178.94 9.47998ZM172.273 18.3533V18.16C172.807 14.46 175.4 12.16 179.027 12.16C182.653 12.16 185.027 14.46 185.22 18.16V18.34L172.273 18.3533Z" fill="#E75739"/>
<path d="M65.5267 30.74H69.64C69.9867 30.74 70.0267 30.54 70.0267 30.3933V28.5333C70.0267 28.38 69.9867 28.1867 69.64 28.1867H67.04V16.8533C67.04 12.3133 64.2667 9.51999 59.8067 9.51999C55.3467 9.51999 53.4734 11.92 52.8534 12.9533L52.5267 13.5067L52.58 10.1733C52.58 9.92666 52.48 9.82666 52.2334 9.82666H47.12C46.8734 9.82666 46.7734 9.92666 46.7734 10.1733V12C46.768 12.0468 46.7734 12.0942 46.7889 12.1387C46.8044 12.1832 46.8298 12.2236 46.8631 12.2569C46.8964 12.2902 46.9368 12.3156 46.9813 12.3311C47.0258 12.3467 47.0732 12.352 47.12 12.3467H49.72V28.1867H47.12C46.8734 28.1867 46.7734 28.28 46.7734 28.5333V30.3933C46.7667 30.4404 46.771 30.4884 46.7861 30.5335C46.8012 30.5786 46.8265 30.6196 46.8601 30.6532C46.8938 30.6868 46.9347 30.7122 46.9799 30.7272C47.025 30.7423 47.0729 30.7467 47.12 30.74H55.4334C55.6867 30.74 55.78 30.6467 55.78 30.3933V28.5333C55.78 28.28 55.6867 28.1867 55.4334 28.1867H52.9667V16.1067C53.4333 14.9214 54.2525 13.908 55.3136 13.2033C56.3747 12.4987 57.6266 12.1368 58.9 12.1667C62.0067 12.1667 63.7934 14.1667 63.7934 17.7067V29.0933C63.7934 30.2933 64.26 30.74 65.5267 30.74Z" fill="#E75739"/>
<path d="M73.62 30.74H75.3333C75.3854 30.7452 75.438 30.7388 75.4872 30.7212C75.5365 30.7036 75.5813 30.6752 75.6183 30.6382C75.6553 30.6012 75.6836 30.5565 75.7012 30.5072C75.7188 30.458 75.7252 30.4054 75.72 30.3533C75.72 30.22 75.72 28.5933 75.72 28.5933V27.9267L76.04 28.5333C76.4133 29.24 78.34 31.0667 82.7067 31.0667C87.5867 31.0667 90.5 28.8467 90.5 25.1333C90.5 21.1333 86.4667 20.1133 82.9134 19.1933C79.9734 18.4267 77.2067 17.7067 77.2067 15.4333C77.2067 13.16 79.38 12.1867 81.5333 12.1867C85.72 12.1867 87.0733 14.52 87.0733 15.6467V16.2533C87.0669 16.3065 87.0726 16.3605 87.0901 16.4112C87.1076 16.4618 87.1364 16.5078 87.1743 16.5457C87.2122 16.5836 87.2582 16.6124 87.3088 16.6299C87.3595 16.6474 87.4135 16.6531 87.4667 16.6467H89.3333C89.3885 16.6534 89.4444 16.6481 89.4973 16.6313C89.5502 16.6145 89.5989 16.5865 89.64 16.5491C89.6811 16.5118 89.7137 16.4661 89.7356 16.415C89.7574 16.364 89.768 16.3088 89.7667 16.2533V10.2533C89.7732 10.201 89.7676 10.1479 89.7505 10.098C89.7334 10.0481 89.7051 10.0028 89.6678 9.96556C89.6305 9.92828 89.5852 9.89999 89.5353 9.88285C89.4855 9.86571 89.4323 9.86017 89.38 9.86666H87.82C87.7655 9.86002 87.7101 9.86509 87.6577 9.88153C87.6052 9.89797 87.5569 9.9254 87.5159 9.96199C87.4749 9.99858 87.4422 10.0435 87.4199 10.0937C87.3976 10.144 87.3863 10.1984 87.3867 10.2533C87.3867 10.3 87.3867 11.36 87.3867 11.36V11.8667L87.0733 11.4667C86.0067 10.1 84.22 9.51999 81.0733 9.51999C76.8267 9.51999 73.9733 11.92 73.9733 15.52C73.9733 19.64 78.04 20.6933 81.6333 21.6267C84.54 22.3867 87.0467 23.04 87.0467 25.1333C87.0467 27.2267 85.3267 28.4267 82.2 28.4267C77.24 28.4267 75.9 24.88 75.8867 24.8467V23.8533C75.8921 23.8006 75.8855 23.7474 75.8675 23.6976C75.8496 23.6478 75.8206 23.6027 75.7829 23.5655C75.7451 23.5284 75.6995 23.5003 75.6494 23.4831C75.5992 23.466 75.5459 23.4604 75.4933 23.4667H73.5867C73.5346 23.4615 73.4821 23.4679 73.4328 23.4855C73.3835 23.5031 73.3388 23.5314 73.3018 23.5684C73.2648 23.6054 73.2364 23.6501 73.2188 23.6994C73.2013 23.7487 73.1948 23.8013 73.2 23.8533L73.1534 30.3533C73.1521 30.4116 73.164 30.4694 73.1882 30.5224C73.2125 30.5754 73.2483 30.6223 73.2932 30.6594C73.3381 30.6966 73.3908 30.7232 73.4474 30.7371C73.504 30.7511 73.563 30.7521 73.62 30.74Z" fill="#E75739"/>
<path d="M30.9267 30.6667C31.2334 30.6667 31.2734 30.5133 31.2734 30.36V28.2667C31.2734 28.1133 31.2334 27.96 30.9267 27.96H27.9334C25.5 24.5513 22.8665 21.29 20.0467 18.1933L20 18.16C17.7 15.5487 15.0947 13.2232 12.24 11.2333C11.2187 10.5519 10.1199 9.99466 8.96669 9.57333V2.75999H11.8267C12.0334 2.75999 12.1267 2.65999 12.1267 2.45333V0.333325C12.1267 0.106659 12.0534 0.0333252 11.8267 0.0333252H2.08669C1.86002 0.0333252 1.78669 0.106659 1.78669 0.333325V2.45333C1.78669 2.65999 1.88002 2.75999 2.08669 2.75999H5.64002V17.8933C5.88216 17.9553 6.13025 17.991 6.38002 18C7.25419 17.9632 8.10974 17.7357 8.88669 17.3333V12.7933H8.94669C9.50262 13.0645 10.0414 13.3695 10.56 13.7067H10.5934C11.06 14.0133 11.5734 14.3733 12.1067 14.7933L12.16 14.8333L12.2734 14.92L12.94 15.4533L12.98 15.4867L12.94 15.52C10.2267 17.8667 8.00002 19.0267 6.38002 19.0267C5.93849 19.04 5.499 18.9615 5.08934 18.7963C4.67968 18.631 4.30876 18.3826 4.00002 18.0667C3.67367 17.747 3.4165 17.3637 3.24448 16.9405C3.07246 16.5174 2.98925 16.0633 3.00002 15.6067V15.5733C2.98925 15.1166 3.07246 14.6626 3.24448 14.2394C3.4165 13.8163 3.67367 13.433 4.00002 13.1133C4.17389 12.9435 4.36619 12.7937 4.57336 12.6667V9.33333C3.56678 9.64688 2.65158 10.2006 1.90669 10.9467C0.697811 12.1793 0.0206299 13.8369 0.0206299 15.5633C0.0206299 17.2898 0.697811 18.9474 1.90669 20.18C2.89228 21.1928 4.19644 21.8354 5.60002 22H5.64002V27.9533H2.08669C1.86002 27.9533 1.78669 28.0333 1.78669 28.26V30.38C1.78669 30.5867 1.88002 30.6867 2.08669 30.6867H13.1334C13.34 30.6867 13.4334 30.5867 13.4334 30.38V28.2667C13.4334 28.04 13.36 27.96 13.1334 27.96H8.88669V21.6067C11.2185 20.6793 13.3555 19.3224 15.1867 17.6067H15.22C16.06 18.42 16.9067 19.2867 17.74 20.1867C20.4047 23.0841 22.8936 26.1385 25.1934 29.3333C25.3363 29.5707 25.5015 29.7939 25.6867 30C25.8812 30.2178 26.1211 30.3903 26.3895 30.5055C26.6578 30.6207 26.9481 30.6757 27.24 30.6667H30.9267Z" fill="#E75739"/>
<path d="M30.46 0.0333252H20.8933C20.6667 0.0333252 20.5867 0.106659 20.5867 0.333325V2.45333C20.5867 2.67999 20.6667 2.75999 20.8933 2.75999H24.26L24.2133 2.82666C21.7041 6.29089 18.9599 9.57863 16 12.6667C16.7267 13.2867 17.48 14 18.2467 14.7133C18.7 14.2467 19.1533 13.7667 19.58 13.28C22.5789 9.97071 25.3709 6.47964 27.94 2.82666L27.8467 2.75999H30.46C30.7667 2.75999 30.8067 2.60666 30.8067 2.45333V0.333325C30.8067 0.186659 30.7667 0.0333252 30.46 0.0333252Z" fill="#E75739"/>
<path d="M194.6 10.7067C193.884 10.7416 193.168 10.6268 192.498 10.3696C191.829 10.1123 191.22 9.71834 190.711 9.21272C190.203 8.70711 189.805 8.10098 189.543 7.43302C189.282 6.76506 189.163 6.04995 189.193 5.33333C189.243 3.93312 189.833 2.60669 190.841 1.63353C191.849 0.660369 193.196 0.116486 194.597 0.116486C195.998 0.116486 197.344 0.660369 198.352 1.63353C199.36 2.60669 199.951 3.93312 200 5.33333C200.022 6.04729 199.898 6.75824 199.634 7.42207C199.37 8.08589 198.973 8.68841 198.466 9.19226C197.96 9.69611 197.356 10.0905 196.691 10.351C196.025 10.6115 195.314 10.7326 194.6 10.7067ZM194.6 1.29333C194.06 1.27127 193.522 1.36017 193.018 1.55453C192.515 1.74888 192.056 2.04455 191.671 2.42324C191.286 2.80194 190.983 3.2556 190.78 3.75615C190.578 4.2567 190.48 4.7935 190.493 5.33333C190.536 6.39298 190.987 7.39502 191.752 8.12966C192.517 8.8643 193.536 9.27457 194.597 9.27457C195.657 9.27457 196.677 8.8643 197.441 8.12966C198.206 7.39502 198.657 6.39298 198.7 5.33333C198.713 4.79408 198.616 4.25786 198.414 3.75778C198.211 3.25769 197.909 2.80436 197.525 2.42576C197.14 2.04717 196.683 1.75135 196.18 1.55658C195.677 1.3618 195.139 1.27221 194.6 1.29333Z" fill="#E75739"/>
<path d="M196.46 7.36667C196.367 6.88206 196.238 6.40514 196.073 5.94C195.829 5.65297 195.492 5.46165 195.12 5.4C195.12 5.4 196.333 5.15333 196.34 4.10667C196.34 2.62 193.607 2.84667 193.38 2.84667H192.147V3.24C192.147 3.24 192.447 3.20667 192.853 3.19333V7.33333L192.14 7.41333V7.78H194.6V7.41333L193.887 7.34V5.64C194.853 5.70667 194.947 5.80667 195.087 6.04667C195.227 6.28667 195.207 7.52667 195.6 7.76C196.077 7.8857 196.577 7.89939 197.06 7.8V7.43333C196.858 7.43742 196.656 7.415 196.46 7.36667ZM193.887 5.19333V3.25333C194.553 3.36 195.22 3.63333 195.22 4.28667C195.22 4.94 194.433 5.16667 193.887 5.19333Z" fill="#E75739"/>
</g>
<defs>
<clipPath id="clip0_2_4">
<rect width="200" height="39.14" fill="white"/>
</clipPath>
</defs>
</svg>
