<svg width="1099" height="741" viewBox="0 0 1099 741" fill="red" xmlns="http://www.w3.org/2000/svg">
    <rect width="100%" height="100%" fill="white" />
    <path d="M0 336.652C0 335.767 0.209596 334.938 0.685583 334.192C6.12218 325.664 44.0818 270.761 121.31 269C231.66 266.5 317.31 296.28 402.96 290.57C447.3 287.57 483.21 265.03 507.55 243.92C524.469 229.125 538.785 211.595 549.9 192.06C564.31 166.99 601.6 115.97 669.39 108.83C759.79 99.31 849.23 97.41 880.64 79.33C907.777 63.7093 929.22 15.8643 934.551 3.13707C935.348 1.23419 937.189 0 939.252 0H1094C1096.76 0 1099 2.23858 1099 5V736C1099 738.761 1096.76 741 1094 741H4.99997C2.23855 741 0 738.761 0 736V336.652Z" fill="#E8E4FF"/>
</svg>
