<svg width="320" height="269" viewBox="0 0 320 269" fill="none" xmlns="http://www.w3.org/2000/svg">
<g clip-path="url(#clip0)">
<path opacity="0.36" d="M64.846 266.048C70.4653 266.638 76.3802 267.229 82.2952 267.524C132.277 270.772 184.624 269.591 229.578 246.559C265.068 228.252 292.572 198.133 307.656 161.519C322.739 124.609 324.218 83.8601 311.796 46.0642C306.768 30.7097 298.487 15.0598 284.883 6.79201C273.349 -0.294713 258.857 -1.47583 245.548 1.47697C232.24 4.42977 220.114 10.9259 208.876 18.6032C170.133 45.1784 140.558 85.0412 99.1529 106.597C73.7185 119.884 43.2564 126.085 24.6242 149.412C7.76655 170.082 -6.42938 201.086 3.03458 227.661C8.35805 242.425 21.371 253.351 36.1584 259.256C45.3266 262.8 55.0863 264.867 64.846 266.048Z" fill="#E8E4FF"/>
<g opacity="0.68">
<path d="M233.05 249.807C229.501 249.807 226.839 246.854 226.839 243.606C226.839 240.358 229.797 237.405 233.05 237.405C236.303 237.405 239.261 240.358 239.261 243.606C239.261 246.854 236.599 249.807 233.05 249.807ZM233.05 240.063C231.275 240.063 229.797 241.539 229.797 243.311C229.797 245.082 231.275 246.559 233.05 246.559C234.824 246.559 236.303 245.082 236.303 243.311C236.303 241.539 234.824 240.063 233.05 240.063Z" fill="#534898"/>
</g>
<g opacity="0.68">
<path d="M228.318 14.764C224.769 14.764 222.107 11.8112 222.107 8.56309C222.107 5.01973 225.065 2.36221 228.318 2.36221C231.571 2.36221 234.529 5.31501 234.529 8.56309C234.529 12.1065 231.867 14.764 228.318 14.764ZM228.318 5.01973C226.543 5.01973 225.065 6.49613 225.065 8.26781C225.065 10.0395 226.543 11.5159 228.318 11.5159C230.092 11.5159 231.571 10.0395 231.571 8.26781C231.571 6.79141 230.092 5.01973 228.318 5.01973Z" fill="#534898"/>
</g>
<g opacity="0.68">
<path d="M267.652 127.856C264.103 127.856 261.442 124.903 261.442 121.655C261.442 118.407 264.399 115.454 267.652 115.454C270.906 115.454 273.863 118.407 273.863 121.655C273.863 124.903 271.201 127.856 267.652 127.856ZM267.652 118.407C265.878 118.407 264.399 119.884 264.399 121.655C264.399 123.427 265.878 124.903 267.652 124.903C269.427 124.903 270.906 123.427 270.906 121.655C270.906 119.884 269.427 118.407 267.652 118.407Z" fill="#534898"/>
</g>
<g opacity="0.68">
<path d="M62.4031 201.381C58.8541 201.381 56.1924 198.428 56.1924 195.18C56.1924 191.932 59.1499 188.979 62.4031 188.979C65.6563 188.979 68.6138 191.932 68.6138 195.18C68.6138 198.428 65.9521 201.381 62.4031 201.381ZM62.4031 191.932C60.6286 191.932 59.1499 193.408 59.1499 195.18C59.1499 196.952 60.6286 198.428 62.4031 198.428C64.1776 198.428 65.6563 196.952 65.6563 195.18C65.6563 193.408 64.1776 191.932 62.4031 191.932Z" fill="#534898"/>
</g>
<g opacity="0.68">
<path d="M136.636 233.271V237.996H141.368V239.177H136.636V244.196H135.453V239.177H130.721V237.996H135.453V233.271H136.636Z" fill="#534898"/>
<path d="M137.227 244.787H134.566V240.063H129.834V237.405H134.566V232.385H137.227V237.405H141.959V240.063H137.227V244.787Z" fill="#534898"/>
</g>
<g opacity="0.68">
<path d="M237.782 80.6114C245.767 80.6114 252.274 74.1153 252.274 66.1427C252.274 58.1702 245.767 51.674 237.782 51.674C229.797 51.674 223.29 58.1702 223.29 66.1427C223.29 74.1153 229.797 80.6114 237.782 80.6114ZM237.782 53.741C244.584 53.741 250.203 59.3513 250.203 66.1427C250.203 72.9341 244.584 78.5445 237.782 78.5445C230.98 78.5445 225.361 72.9341 225.361 66.1427C225.361 59.3513 230.98 53.741 237.782 53.741Z" fill="#534898"/>
<path d="M237.782 66.7333C240.444 66.7333 242.514 64.6663 242.514 62.0088C242.514 59.3513 240.444 57.2843 237.782 57.2843C235.12 57.2843 233.05 59.3513 233.05 62.0088C233.05 64.6663 235.12 66.7333 237.782 66.7333ZM237.782 59.3513C239.261 59.3513 240.444 60.5324 240.444 62.0088C240.444 63.4852 239.261 64.6663 237.782 64.6663C236.303 64.6663 235.12 63.4852 235.12 62.0088C235.12 60.5324 236.303 59.3513 237.782 59.3513Z" fill="#534898"/>
<path d="M228.318 74.7058C230.092 71.1625 233.641 69.0955 237.782 69.0955C241.627 69.0955 245.176 71.1625 247.246 74.7058L249.02 73.82C246.95 69.6861 242.514 67.0286 237.782 67.0286C233.05 67.0286 228.909 69.6861 226.543 73.82L228.318 74.7058Z" fill="#534898"/>
</g>
<g opacity="0.68">
<path d="M237.782 196.863C245.767 196.863 252.274 190.367 252.274 182.395C252.274 174.422 245.767 167.926 237.782 167.926C229.797 167.926 223.29 174.422 223.29 182.395C223.29 190.367 229.797 196.863 237.782 196.863ZM237.782 169.993C244.584 169.993 250.203 175.603 250.203 182.395C250.203 189.186 244.584 194.796 237.782 194.796C230.98 194.796 225.361 189.186 225.361 182.395C225.361 175.603 230.98 169.993 237.782 169.993Z" fill="#534898"/>
<path d="M237.782 182.985C240.444 182.985 242.514 180.918 242.514 178.261C242.514 175.603 240.444 173.536 237.782 173.536C235.12 173.536 233.05 175.603 233.05 178.261C233.05 180.918 235.12 182.985 237.782 182.985ZM237.782 175.603C239.261 175.603 240.444 176.784 240.444 178.261C240.444 179.737 239.261 180.918 237.782 180.918C236.303 180.918 235.12 179.737 235.12 178.261C235.12 176.784 236.303 175.603 237.782 175.603Z" fill="#534898"/>
<path d="M228.318 190.958C230.092 187.414 233.641 185.347 237.782 185.347C241.627 185.347 245.176 187.414 247.246 190.958L249.02 190.072C246.95 185.938 242.514 183.28 237.782 183.28C233.05 183.28 228.909 185.938 226.543 190.072L228.318 190.958Z" fill="#534898"/>
</g>
<g opacity="0.68">
<path d="M107.091 139.067C99.1061 139.067 92.5996 132.571 92.5996 124.599C92.5996 116.626 99.1061 110.13 107.091 110.13C115.077 110.13 121.583 116.626 121.583 124.599C121.583 132.571 115.077 139.067 107.091 139.067ZM107.091 112.197C100.289 112.197 94.6699 117.807 94.6699 124.599C94.6699 131.39 100.289 137 107.091 137C113.894 137 119.513 131.39 119.513 124.599C119.513 117.807 113.894 112.197 107.091 112.197Z" fill="#534898"/>
<path d="M107.091 125.189C104.43 125.189 102.359 123.122 102.359 120.465C102.359 117.807 104.43 115.74 107.091 115.74C109.753 115.74 111.823 117.807 111.823 120.465C111.823 123.122 109.753 125.189 107.091 125.189ZM107.091 117.807C105.613 117.807 104.43 118.988 104.43 120.465C104.43 121.941 105.613 123.122 107.091 123.122C108.57 123.122 109.753 121.941 109.753 120.465C109.753 118.988 108.57 117.807 107.091 117.807Z" fill="#534898"/>
<path d="M116.555 133.162C114.781 129.619 111.232 127.552 107.091 127.552C103.247 127.552 99.6977 129.619 97.6274 133.162L95.8529 132.276C97.9232 128.142 102.359 125.485 107.091 125.485C111.823 125.485 115.964 128.142 118.33 132.276L116.555 133.162Z" fill="#534898"/>
</g>
<g opacity="0.68">
<path d="M264.991 88.8793H130.425C125.397 88.8793 121.257 84.7453 121.257 79.7256V53.4457C121.257 48.4259 125.397 44.292 130.425 44.292H264.991C270.018 44.292 274.159 48.4259 274.159 53.4457V79.7256C273.863 84.7453 270.018 88.8793 264.991 88.8793ZM130.425 47.2448C127.172 47.2448 124.214 49.9023 124.214 53.4457V79.7256C124.214 82.9737 126.876 85.9265 130.425 85.9265H264.991C268.244 85.9265 271.201 83.2689 271.201 79.7256V53.4457C271.201 50.1976 268.54 47.2448 264.991 47.2448H130.425Z" fill="#534898"/>
</g>
<g opacity="0.68">
<path d="M264.991 205.131H130.425C125.397 205.131 121.257 200.997 121.257 195.977V169.697C121.257 164.678 125.397 160.544 130.425 160.544H264.991C270.018 160.544 274.159 164.678 274.159 169.697V195.977C273.863 200.997 270.018 205.131 264.991 205.131ZM130.425 163.497C127.172 163.497 124.214 166.154 124.214 169.697V195.977C124.214 199.225 126.876 202.178 130.425 202.178H264.991C268.244 202.178 271.201 199.521 271.201 195.977V169.697C271.201 166.449 268.54 163.497 264.991 163.497H130.425Z" fill="#534898"/>
</g>
<g opacity="0.68">
<path d="M79.8824 147.335H214.448C219.476 147.335 223.616 143.201 223.616 138.182V111.902C223.616 106.882 219.476 102.748 214.448 102.748H79.8824C74.8546 102.748 70.7142 106.882 70.7142 111.902V138.182C71.0099 143.201 74.8546 147.335 79.8824 147.335ZM214.448 105.701C217.701 105.701 220.659 108.358 220.659 111.902V138.182C220.659 141.43 217.997 144.382 214.448 144.382H79.8824C76.6291 144.382 73.6716 141.725 73.6716 138.182V111.902C73.6716 108.654 76.3334 105.701 79.8824 105.701H214.448Z" fill="#534898"/>
</g>
<g opacity="0.68">
<path d="M155.564 66.1427H207.911C208.799 66.1427 209.686 65.2569 209.686 64.371C209.686 63.4852 208.799 62.5994 207.911 62.5994H155.564C154.677 62.5994 153.789 63.4852 153.789 64.371C153.789 65.2569 154.677 66.1427 155.564 66.1427Z" fill="#534898"/>
</g>
<g opacity="0.68">
<path d="M155.564 182.395H207.911C208.799 182.395 209.686 181.509 209.686 180.623C209.686 179.737 208.799 178.851 207.911 178.851H155.564C154.677 178.851 153.789 179.737 153.789 180.623C153.789 181.509 154.677 182.395 155.564 182.395Z" fill="#534898"/>
</g>
<g opacity="0.68">
<path d="M189.309 124.599H136.962C136.075 124.599 135.187 123.713 135.187 122.827C135.187 121.941 136.075 121.055 136.962 121.055H189.309C190.197 121.055 191.084 121.941 191.084 122.827C191.084 123.713 190.197 124.599 189.309 124.599Z" fill="#534898"/>
</g>
<g opacity="0.68">
<path d="M137.819 75.8869H207.911C208.799 75.8869 209.686 75.0011 209.686 74.1152C209.686 73.2294 208.799 72.3436 207.911 72.3436H137.819C136.932 72.3436 136.044 73.2294 136.044 74.1152C136.044 75.0011 136.932 75.8869 137.819 75.8869Z" fill="#534898"/>
</g>
<g opacity="0.68">
<path d="M137.819 192.139H207.911C208.799 192.139 209.686 191.253 209.686 190.367C209.686 189.481 208.799 188.595 207.911 188.595H137.819C136.932 188.595 136.044 189.481 136.044 190.367C136.044 191.253 136.932 192.139 137.819 192.139Z" fill="#534898"/>
</g>
<g opacity="0.68">
<path d="M207.054 134.343H136.962C136.075 134.343 135.187 133.457 135.187 132.571C135.187 131.685 136.075 130.8 136.962 130.8H207.054C207.942 130.8 208.829 131.685 208.829 132.571C208.829 133.457 207.942 134.343 207.054 134.343Z" fill="#534898"/>
</g>
</g>
<defs>
<clipPath id="clip0">
<rect width="320" height="269" fill="white"/>
</clipPath>
</defs>
</svg>
