<svg width="220" height="186" viewBox="0 0 220 186" fill="none" xmlns="http://www.w3.org/2000/svg">
<path opacity="0.36" d="M44.5611 183.685C48.4225 184.093 52.4872 184.5 56.5518 184.704C90.8983 186.947 126.871 186.131 157.762 170.231C182.15 157.593 201.051 136.801 211.416 111.525C221.781 86.0444 222.797 57.914 214.261 31.8221C210.806 21.2223 205.115 10.4186 195.767 4.71104C187.841 -0.181194 177.882 -0.996565 168.737 1.04186C159.591 3.08029 151.259 7.56484 143.536 12.8648C116.912 31.2106 96.5888 58.7294 68.1361 73.6099C50.6581 82.7829 29.725 87.0636 16.9213 103.167C5.33704 117.436 -4.41816 138.84 2.08531 157.186C5.74351 167.378 14.6858 174.92 24.8474 178.997C31.1477 181.443 37.8544 182.87 44.5611 183.685Z" fill="#E8E4FF"/>
<path d="M160.201 172.473C157.762 172.473 155.933 170.435 155.933 168.193C155.933 165.95 157.965 163.912 160.201 163.912C162.436 163.912 164.468 165.95 164.468 168.193C164.468 170.435 162.639 172.473 160.201 172.473ZM160.201 165.747C158.981 165.747 157.965 166.766 157.965 167.989C157.965 169.212 158.981 170.231 160.201 170.231C161.42 170.231 162.436 169.212 162.436 167.989C162.436 166.766 161.42 165.747 160.201 165.747Z" fill="#534898"/>
<path d="M156.948 10.2144C154.509 10.2144 152.68 8.17596 152.68 5.93369C152.68 3.48757 154.713 1.65298 156.948 1.65298C159.184 1.65298 161.216 3.69141 161.216 5.93369C161.216 8.3798 159.387 10.2144 156.948 10.2144ZM156.948 3.48757C155.729 3.48757 154.713 4.50679 154.713 5.72984C154.713 6.9529 155.729 7.97212 156.948 7.97212C158.167 7.97212 159.184 6.9529 159.184 5.72984C159.184 4.71063 158.167 3.48757 156.948 3.48757Z" fill="#534898"/>
<path d="M183.978 88.2863C181.54 88.2863 179.71 86.2478 179.71 84.0056C179.71 81.7633 181.743 79.7249 183.978 79.7249C186.214 79.7249 188.246 81.7633 188.246 84.0056C188.246 86.2478 186.417 88.2863 183.978 88.2863ZM183.978 81.7633C182.759 81.7633 181.743 82.7825 181.743 84.0056C181.743 85.2286 182.759 86.2478 183.978 86.2478C185.198 86.2478 186.214 85.2286 186.214 84.0056C186.214 82.7825 185.198 81.7633 183.978 81.7633Z" fill="#534898"/>
<path d="M42.9339 139.043C40.4951 139.043 38.666 137.005 38.666 134.762C38.666 132.52 40.6984 130.482 42.9339 130.482C45.1695 130.482 47.2018 132.52 47.2018 134.762C47.2018 137.005 45.3727 139.043 42.9339 139.043ZM42.9339 132.52C41.7145 132.52 40.6984 133.539 40.6984 134.762C40.6984 135.985 41.7145 137.005 42.9339 137.005C44.1533 137.005 45.1695 135.985 45.1695 134.762C45.1695 133.539 44.1533 132.52 42.9339 132.52Z" fill="#534898"/>
<path d="M93.9455 161.058V164.32H97.1973V165.135H93.9455V168.6H93.1326V165.135H89.8809V164.32H93.1326V161.058H93.9455Z" fill="#534898"/>
<path d="M94.3523 169.008H92.5232V165.747H89.2715V163.912H92.5232V160.447H94.3523V163.912H97.604V165.747H94.3523V169.008Z" fill="#534898"/>
<path d="M108.907 133.907C89.3352 133.907 73.6265 117.873 73.6265 98.4781C73.6265 79.0829 89.3352 63.0496 108.907 63.0496C128.478 63.0496 144.187 78.8243 144.187 98.4781C144.187 118.132 128.221 133.907 108.907 133.907ZM108.907 65.6356C90.8804 65.6356 76.2017 80.376 76.2017 98.4781C76.2017 116.58 90.8804 131.321 108.907 131.321C126.933 131.321 141.612 116.58 141.612 98.4781C141.612 80.376 126.933 65.6356 108.907 65.6356Z" fill="#534898"/>
<path d="M129.767 124.338C127.707 113.994 118.693 106.753 108.135 106.753C98.0917 106.753 89.336 113.477 86.7608 123.304L84.1855 122.528C87.0183 111.667 96.8041 104.167 108.135 104.167C119.723 104.167 130.024 112.443 132.342 123.821L129.767 124.338Z" fill="#534898"/>
<path d="M108.907 101.064C103.757 101.064 99.3789 96.6679 99.3789 91.4958C99.3789 86.3238 103.757 81.9276 108.907 81.9276C114.058 81.9276 118.435 86.3238 118.435 91.4958C118.435 96.6679 114.058 101.064 108.907 101.064ZM108.907 84.255C105.044 84.255 101.954 87.3582 101.954 91.2372C101.954 95.1163 105.044 98.2195 108.907 98.2195C112.77 98.2195 115.86 95.1163 115.86 91.2372C115.86 87.3582 112.77 84.255 108.907 84.255Z" fill="#534898"/>
<path d="M131.053 145.802C139.586 145.802 146.504 138.855 146.504 130.286C146.504 121.717 139.586 114.77 131.053 114.77C122.519 114.77 115.602 121.717 115.602 130.286C115.602 138.855 122.519 145.802 131.053 145.802Z" fill="#534898"/>
<path d="M136.718 129.252H132.34V124.856C132.34 124.08 131.825 123.563 131.052 123.563C130.28 123.563 129.765 124.08 129.765 124.856V129.252H125.387C124.614 129.252 124.099 129.769 124.099 130.545C124.099 131.321 124.614 131.838 125.387 131.838H129.765V136.234C129.765 137.01 130.28 137.527 131.052 137.527C131.825 137.527 132.34 137.01 132.34 136.234V131.838H136.718C137.49 131.838 138.005 131.321 138.005 130.545C138.005 129.769 137.49 129.252 136.718 129.252Z" fill="#F9F9F9"/>
</svg>
