<svg width="218" height="218" viewBox="0 0 218 218" fill="none" xmlns="http://www.w3.org/2000/svg">
<path d="M180.65 86.3456C184.88 92.2734 185.476 100.137 184.815 107.594C183.163 125.731 175.105 142.669 162.086 155.374C149.067 168.079 131.937 175.721 113.765 176.931L113.8 177.471L113.765 176.931C90.7506 178.417 68.4532 169.397 47.9168 158.809C45.5503 157.577 43.1829 156.339 40.8986 154.996C36.9671 152.766 33.3369 150.041 30.0975 146.888C25.0865 141.808 21.5905 134.938 22.0516 127.886C22.4632 121.549 25.4992 115.763 29.8055 110.845C34.1318 106.041 39.2963 102.065 45.0479 99.109C51.0578 95.9891 57.5173 95.1273 64.1608 94.9372C66.9122 94.8592 69.6831 94.8957 72.4692 94.9291C73.0474 94.9373 73.6259 94.9447 74.2046 94.9514C77.5643 94.9899 80.9314 94.9932 84.2532 94.7567L84.2143 94.217L84.2532 94.7567C95.1313 93.978 105.517 90.7022 115.806 87.1303C117.277 86.6205 118.745 86.1057 120.211 85.5862C129.032 82.4849 137.823 79.3923 146.904 77.6535C153.022 76.4691 159.326 75.9456 165.35 77.1379C171.374 78.3302 177.132 81.4094 180.65 86.3456Z" stroke="#E95631"/>
<path d="M43.9916 139.174C46.2079 140.659 48.5096 142.04 50.7991 143.408C70.6933 155.186 92.529 165.565 115.751 165.427C134.093 165.283 151.768 158.613 165.61 146.612C179.452 134.61 188.555 118.062 191.29 99.9307C192.396 92.4903 192.285 84.4458 188.305 78.112C184.993 72.8317 179.285 69.3597 173.244 67.7903C167.202 66.221 160.802 66.3839 154.591 67.2103C133.105 70.0305 112.756 80.3266 91.1015 80.6027C77.8738 80.7701 64.0788 77.0737 51.4922 82.6888C40.3247 87.6898 28.1381 97.5842 26.5314 110.491C25.6244 117.699 28.8068 124.904 33.5734 130.346C36.6542 133.723 40.1556 136.69 43.9916 139.174Z" fill="#FCD0C4"/>
<g clip-path="url(#clip0_232_9593)">
<path d="M117.65 118.475L128.986 107.077C130.694 105.364 132.372 103.618 134.142 101.973C134.987 101.196 136.044 100.689 137.178 100.517C138.313 100.344 139.473 100.513 140.511 101.002C141.549 101.492 142.417 102.28 143.006 103.265C143.594 104.25 143.876 105.389 143.815 106.535C143.776 108.286 142.881 109.646 141.667 110.851C136.073 116.424 130.489 122.005 124.914 127.595C123.86 128.649 122.825 129.728 121.737 130.744C121.208 131.275 120.581 131.696 119.889 131.984C119.198 132.271 118.457 132.42 117.708 132.42C116.959 132.42 116.218 132.271 115.526 131.984C114.835 131.696 114.207 131.275 113.679 130.744C110.729 127.883 107.827 124.981 104.974 122.036C102.604 119.617 102.623 116.08 104.916 113.811C107.208 111.542 110.719 111.513 113.137 113.865C114.637 115.277 116.049 116.821 117.65 118.475ZM117.693 122.544C115.469 120.294 113.389 118.19 111.275 116.071C109.873 114.687 108.209 114.619 106.986 115.805C105.762 116.99 105.781 118.736 107.208 120.159C109.926 122.907 112.659 125.648 115.406 128.383C116.857 129.835 118.525 129.835 119.976 128.383C126.592 121.784 133.202 115.172 139.805 108.548C141.256 107.096 141.295 105.393 140.033 104.194C138.77 102.994 137.16 103.081 135.743 104.455C134.326 105.829 133.063 107.13 131.728 108.47L117.693 122.544Z" fill="#534898"/>
<path d="M121.911 86.0077C139.723 84.1306 154.513 98.7944 153.985 115.94C153.502 131.571 140.342 144.189 124.484 144C120.459 143.924 116.493 143.015 112.836 141.331C109.179 139.648 105.91 137.225 103.235 134.216C100.56 131.206 98.5363 127.676 97.2915 123.846C96.0467 120.017 95.6077 115.971 96.0022 111.963C85.6089 112.679 76.9276 109.201 70.3211 101.083C65.596 95.2772 63.5502 88.5041 64.0338 81.0392C64.36 77.2405 65.4308 73.5434 67.1853 70.1588C68.9399 66.7742 71.3436 63.7684 74.2594 61.313C77.1752 58.8577 80.5458 57.0009 84.179 55.8486C87.8121 54.6964 91.6366 54.2712 95.4339 54.5975C99.2313 54.9237 102.927 55.9949 106.311 57.75C109.694 59.5051 112.699 61.9096 115.154 64.8263C117.608 67.743 119.464 71.1148 120.616 74.7491C121.768 78.3834 122.193 82.2091 121.867 86.0077H121.911ZM124.9 88.8427C119.736 88.8533 114.692 90.3944 110.405 93.2714C106.117 96.1484 102.778 100.232 100.809 105.007C98.8406 109.781 98.331 115.033 99.3447 120.097C100.358 125.161 102.85 129.811 106.504 133.459C110.159 137.108 114.813 139.591 119.877 140.594C124.942 141.598 130.19 141.078 134.959 139.099C139.728 137.12 143.804 133.771 146.671 129.476C149.539 125.181 151.069 120.132 151.069 114.968C151.055 108.034 148.292 101.389 143.385 96.4913C138.479 91.5935 131.831 88.8427 124.9 88.8427ZM88.3898 88.7557C87.888 88.2223 87.4318 87.6478 87.0259 87.0382C86.8621 86.686 86.6013 86.3879 86.2741 86.1788C85.9468 85.9697 85.5667 85.8583 85.1784 85.8577C82.2766 85.5094 80.7386 82.6454 81.7494 79.8829C81.9489 79.3474 81.9843 78.7646 81.851 78.209C80.1824 72.4035 83.5679 66.8205 89.5118 65.8142C91.2763 65.5973 93.0564 65.5342 94.8318 65.6255C101.603 65.6739 106.096 71.7842 104.195 78.2719C104.064 78.7497 104.082 79.2563 104.248 79.7233C105.428 82.7615 103.702 85.6255 100.466 85.9448C100.126 85.9514 99.7983 86.0743 99.5376 86.2931C98.9572 86.9995 98.4639 87.7784 97.7627 88.7798C98.4531 89.2109 99.1856 89.5708 99.9487 89.8539C101.661 90.3038 103.547 90.3038 105.104 91.0392C106.957 91.9245 108.103 91.1795 109.708 90.4489C112.422 89.2201 113.249 87.2414 113.302 84.5854C113.302 84.2661 113.345 83.9419 113.35 83.6178C113.437 80.5847 112.844 77.5705 111.615 74.7967C110.385 72.0228 108.55 69.5597 106.244 67.5881C103.938 65.6165 101.22 64.1866 98.2896 63.4033C95.3591 62.62 92.2903 62.5031 89.3087 63.0614C78.3398 64.9966 71.0514 75.7126 73.1117 86.8785C73.6283 89.6735 74.7618 92.3179 76.4294 94.6192C77.8078 92.1616 79.8584 90.9956 82.4362 90.5941C83.7113 90.4083 84.9743 90.1466 86.2182 89.8103C86.9719 89.5238 87.6986 89.1709 88.3898 88.7557ZM97.2597 105.959C94.1554 106.537 90.9659 106.477 87.8857 105.782C84.8055 105.087 81.899 103.772 79.3435 101.916C76.7879 100.061 74.6367 97.705 73.021 94.9912C71.4053 92.2774 70.3589 89.2629 69.9457 86.1314C69.5324 83 69.7609 79.8171 70.6173 76.7769C71.4736 73.7366 72.9399 70.9027 74.9267 68.4477C76.9135 65.9927 79.3792 63.9681 82.1736 62.4973C84.968 61.0264 88.0325 60.1402 91.1804 59.8926C96.9569 59.3353 102.721 61.073 107.227 64.7305C114.482 70.536 117.166 78.1945 115.933 87.372C116.476 87.2019 117.028 87.0613 117.587 86.9511C118.486 86.8157 119.038 86.4673 119.004 85.432C118.902 83.2259 119.096 80.9811 118.757 78.8137C116.624 65.1466 103.944 55.5917 90.1599 57.1301C83.5589 57.9582 77.5227 61.2749 73.2832 66.4033C69.0436 71.5318 66.9204 78.0854 67.3468 84.7265C67.7733 91.3676 70.7172 97.5956 75.5778 102.139C80.4384 106.683 86.8492 109.2 93.5018 109.177C96.5584 109.128 96.5584 109.128 97.2887 106.192C97.2847 106.114 97.275 106.036 97.2597 105.959ZM88.4188 92.3551L82.1315 93.6565C81.4554 93.7781 80.8177 94.058 80.2705 94.4734C79.7232 94.8888 79.2821 95.4278 78.983 96.0464C78.7688 96.3611 78.6867 96.7475 78.7546 97.1221C78.8224 97.4968 79.0347 97.8298 79.3458 98.0493C84.3272 102.403 90.0583 104.048 96.5874 103.037C97.2298 102.977 97.8468 102.756 98.3823 102.396C98.9179 102.037 99.3549 101.548 99.6537 100.976C101.105 98.4993 102.928 96.2399 104.635 93.8355L97.6562 92.3406L93.0279 98.5089L88.4188 92.3551ZM84.8931 77.5365C85.8604 77.1688 86.8276 76.7334 87.8723 76.448C88.8009 76.1867 89.9761 75.6594 90.6967 75.9932C94.1547 77.5897 97.7675 77.135 101.337 77.2414C102.546 73.6904 100.495 69.5007 96.8873 68.896C94.3274 68.4472 91.709 68.4472 89.1491 68.896C85.517 69.5733 83.4325 73.9032 84.8834 77.5365H84.8931ZM97.3467 80.5167C94.9286 79.9893 92.7522 79.5491 90.5758 79.0024C89.3667 78.6928 88.7331 79.0266 88.6799 80.299C88.6364 81.2665 88.6364 82.2341 88.6799 83.2017C88.7207 84.2999 89.1751 85.342 89.9519 86.1191C90.7287 86.8961 91.7704 87.3506 92.8683 87.3914C93.9462 87.4345 95.0008 87.0703 95.8226 86.3711C96.6443 85.6719 97.1729 84.689 97.3032 83.6178C97.3819 82.5859 97.3932 81.55 97.3371 80.5167H97.3467ZM93.0375 93.6565L95.6395 90.149H90.4162L93.0375 93.6565ZM85.2993 83.134L85.7395 82.9211V80.2312L85.4251 80.0232C85.0672 80.507 84.4578 80.9908 84.4578 81.4746C84.4578 81.9584 84.9656 82.5825 85.2752 83.134H85.2993ZM100.776 80.028L100.384 80.2651V82.9453L100.718 83.134C101.061 82.6502 101.685 82.1664 101.685 81.6536C101.685 81.1408 101.066 80.5699 100.742 80.028H100.776Z" fill="#534898"/>
</g>
<defs>
<clipPath id="clip0_232_9593">
<rect width="90" height="90" fill="white" transform="translate(64 54)"/>
</clipPath>
</defs>
</svg>
