<svg width="163" height="133" viewBox="0 0 163 133" fill="none" xmlns="http://www.w3.org/2000/svg">
<path d="M162.203 91.4705C160.939 98.6463 155.733 104.588 149.935 109.348C135.801 120.891 118.018 127.025 99.7732 126.65C81.5282 126.276 64.0127 119.417 50.3642 107.302L50.0034 107.706L50.3642 107.302C33.1127 91.9277 23.8803 69.694 17.0074 47.6174C16.2241 45.0648 15.4441 42.5078 14.7984 39.9357C13.6277 35.5669 13.0233 31.0658 13 26.543C13.1083 19.4052 15.5632 12.0918 20.9313 7.4741C25.7533 3.32228 32.0271 1.42946 38.5739 1.05133C45.0532 0.767541 51.5301 1.66218 57.6899 3.69174C64.1489 5.7904 69.309 9.79379 74.118 14.3996C76.1093 16.3076 78.0322 18.3098 79.9682 20.3207C80.369 20.7389 80.7706 21.1568 81.1729 21.5743C83.5086 23.998 85.8747 26.4022 88.3805 28.6059L88.7391 28.1996L88.3805 28.6059C96.5892 35.8196 106.238 40.9303 116.03 45.7647C117.429 46.4559 118.83 47.1421 120.233 47.8233C128.656 51.9404 137.052 56.0424 144.683 61.3004C149.833 64.8336 154.642 68.9637 158.027 74.0972C161.411 79.2306 163.259 85.4985 162.203 91.4705Z" stroke="#E95631"/>
<path d="M1.81245 44.9618C2.46247 47.5507 3.24577 50.1201 4.02905 52.6711C10.9074 74.7591 20.1713 97.1114 37.5431 112.586C51.2883 124.784 68.9279 131.69 87.3021 132.067C105.676 132.444 123.585 126.268 137.819 114.644C143.647 109.863 148.977 103.818 150.278 96.4463C151.366 90.3055 149.455 83.8993 146.016 78.6814C142.576 73.4635 137.704 69.291 132.526 65.738C114.642 53.4185 92.5728 47.4099 76.2746 33.0886C66.3195 24.3394 58.542 12.3416 45.3986 8.06611C33.7242 4.28674 17.9991 3.45593 8.11985 11.9581C2.59467 16.7005 0.114837 24.1834 0 31.4204C0.020626 35.9933 0.629761 40.5444 1.81245 44.9618Z" fill="#FCD0C4"/>
<path d="M54.7548 106.56H88.8858C89.8509 106.56 90.6406 105.77 90.6406 104.805C90.6406 103.84 89.8509 103.05 88.8858 103.05H56.5096V97.786C56.5096 92.7848 66.9507 89.0997 70.5481 88.1345C74.4964 87.1694 78.4447 84.6249 78.4447 81.1153V75.9386C79.9363 76.4651 81.5156 76.7283 83.1827 76.7283H84.1478C85.8149 76.7283 87.3942 76.4651 88.8858 75.9386V81.1153C88.8858 82.4314 89.4122 83.7475 90.4651 84.8004C90.8161 85.1514 91.2548 85.3269 91.7812 85.3269C92.2199 85.3269 92.6586 85.1514 93.0096 84.8882C93.7115 84.1862 93.7115 83.1333 93.0973 82.4314C92.6586 81.9927 92.3954 81.554 92.3954 81.1153V74.1838C96.1682 71.5516 98.6249 67.2524 98.6249 62.3389V53.3894C98.6249 45.4928 92.1322 39 84.2355 39H83.2704C75.286 39 68.7932 45.4928 68.7932 53.3894V62.2512C68.7932 67.1646 71.25 71.4639 74.9351 74.0084V81.0276C74.9351 82.3437 72.5661 84.0107 69.7584 84.7127C69.5829 84.7127 65.6346 85.7656 61.6863 87.6958C55.8954 90.5913 53 93.9254 53 97.786V104.805C53 105.77 53.7897 106.56 54.7548 106.56ZM72.3029 62.3389V53.3894C72.3029 47.4231 77.2163 42.5096 83.1827 42.5096H84.1478C90.2019 42.5096 95.1153 47.4231 95.1153 53.3894V62.2512C95.1153 68.3052 90.2019 73.2187 84.2355 73.2187H83.2704C77.2163 73.2187 72.3029 68.3052 72.3029 62.3389Z" fill="#534898"/>
<line x1="109.011" y1="95.5767" x2="62.0524" y2="48.6177" stroke="#534898" stroke-width="4" stroke-linecap="round"/>
</svg>
