<svg width="174" height="35" viewBox="0 0 174 35" fill="none" xmlns="http://www.w3.org/2000/svg">
<g clip-path="url(#clip0_3470_2897)">
<path d="M26.7599 25.05H24.5399C24.4572 25.0582 24.3739 25.0428 24.2996 25.0057C24.2252 24.9685 24.163 24.9111 24.1199 24.84C21.5929 21.1411 18.7703 17.653 15.6799 14.41C14.0891 12.6611 12.2733 11.1311 10.2799 9.85999C9.5499 9.41999 8.76994 9.04998 7.99994 8.66998C7.91557 8.64271 7.84338 8.58678 7.7959 8.5119C7.74841 8.43703 7.72863 8.34795 7.73993 8.26001V2.44H10.1199C10.3699 2.44 10.4799 2.32997 10.4799 2.08997V0.289978C10.4799 0.069978 10.3799 -0.0200195 10.1599 -0.0200195H1.85992C1.61992 -0.0200195 1.51989 0.0699976 1.51989 0.309998V2.04999C1.51989 2.41999 1.57994 2.47998 1.93994 2.47998H4.86993V15.72C4.86993 15.98 4.93991 16.08 5.21991 16.11C5.99446 16.1318 6.76187 15.9563 7.44995 15.6C7.53617 15.5746 7.6106 15.5195 7.66003 15.4445C7.70946 15.3694 7.73066 15.2792 7.71991 15.19V11.49C8.98968 12.1625 10.1719 12.9888 11.2399 13.95C10.8899 14.24 10.5799 14.51 10.2399 14.76C9.29815 15.5786 8.23991 16.2526 7.09991 16.76C6.69372 16.9587 6.25226 17.0751 5.8009 17.1026C5.34954 17.1301 4.89719 17.068 4.46991 16.92C4.08903 16.7454 3.74628 16.4975 3.46124 16.1904C3.1762 15.8833 2.95451 15.523 2.80871 15.1302C2.66292 14.7374 2.59592 14.3197 2.61157 13.901C2.62722 13.4823 2.72518 13.0708 2.8999 12.69C3.08994 12.2654 3.37372 11.8892 3.72992 11.59C3.80063 11.5334 3.85534 11.4594 3.88867 11.3752C3.92199 11.2911 3.93278 11.1996 3.91992 11.11V8.72998C3.92989 8.63357 3.92989 8.53641 3.91992 8.44L3.65991 8.51001C2.95576 8.77322 2.31512 9.18209 1.7799 9.70996C1.0385 10.4173 0.495201 11.3064 0.203976 12.2889C-0.0872484 13.2713 -0.116229 14.3129 0.119931 15.31C0.329727 16.4157 0.873643 17.4305 1.67834 18.2173C2.48304 19.0041 3.50978 19.5251 4.61993 19.71C4.83993 19.71 4.87994 19.85 4.87994 20.05V24.78C4.87994 25.02 4.81994 25.1 4.56994 25.1H1.9599C1.6599 25.1 1.60992 25.15 1.60992 25.45V27.17C1.60992 27.48 1.66993 27.53 1.98993 27.53H11.3699C11.6699 27.53 11.7299 27.47 11.7299 27.18V25.49C11.7299 25.13 11.7299 25.1 11.3399 25.1H7.75995V19.6C7.77086 19.5466 7.79481 19.4967 7.82971 19.4548C7.86461 19.413 7.90933 19.3804 7.9599 19.36C9.40881 18.749 10.7573 17.9231 11.9599 16.91C12.3899 16.57 12.8099 16.21 13.2399 15.84L13.4399 16.03C14.1799 16.82 14.9499 17.59 15.6599 18.4C17.9654 20.998 20.1031 23.7402 22.0599 26.61C22.2137 26.8906 22.439 27.1254 22.7131 27.2905C22.9871 27.4557 23.3 27.5452 23.6199 27.55H26.8599C27.0999 27.55 27.1999 27.45 27.1999 27.22V25.52C27.1699 25.12 27.1199 25.05 26.7599 25.05Z" fill="#E75739"/>
<path d="M138.21 9.46002C136.259 8.53108 134.036 8.34968 131.96 8.95007C130.649 9.23473 129.49 9.99759 128.71 11.09C128.451 11.5005 128.214 11.9244 128 12.36V9.36005C128 9.03005 127.94 8.97003 127.62 8.97003H123.28C122.97 8.97003 122.93 9.03007 122.92 9.32007V10.8001C122.92 11.1701 122.99 11.2401 123.36 11.2501H125.07C125.27 11.2501 125.35 11.2501 125.35 11.5101V32.3701C125.35 32.5901 125.27 32.6301 125.07 32.6301H123.2C122.95 32.6301 122.83 32.73 122.82 32.96V34.5501C122.82 34.7801 122.94 34.8901 123.19 34.8901H130.74C131.03 34.8901 131.09 34.82 131.09 34.53V32.9501C131.09 32.6501 131.01 32.5701 130.72 32.5701H128.51C128.17 32.5701 128.16 32.57 128.16 32.22V25.9501C128.17 25.5791 128.15 25.2078 128.1 24.84C128.04 24.47 128.1 24.37 128.1 24.16C128.37 24.07 128.49 24.1601 128.6 24.3901C129.03 25.3055 129.727 26.0692 130.6 26.5801C132.183 27.5375 134.057 27.8926 135.88 27.5801C137.056 27.4287 138.18 27.0033 139.161 26.338C140.143 25.6728 140.954 24.7863 141.53 23.7501C142.287 22.4134 142.731 20.9229 142.83 19.3901C143.02 17.5715 142.801 15.7335 142.19 14.0101C141.862 13.0255 141.341 12.1161 140.658 11.3349C139.974 10.5537 139.142 9.91638 138.21 9.46002ZM138.54 23.03C138.007 23.8446 137.255 24.493 136.371 24.9014C135.487 25.3098 134.506 25.4618 133.54 25.34C132.406 25.2595 131.324 24.8327 130.441 24.1173C129.557 23.4019 128.915 22.4324 128.6 21.34C128.202 20.1396 128.069 18.867 128.21 17.61C128.289 16.4011 128.63 15.2238 129.21 14.16C129.614 13.3529 130.218 12.6621 130.963 12.153C131.709 11.6438 132.571 11.333 133.47 11.2501C134.591 11.112 135.727 11.3267 136.72 11.8644C137.713 12.4021 138.513 13.2361 139.01 14.2501C139.635 15.4895 139.947 16.8626 139.92 18.2501C139.983 19.9374 139.499 21.5999 138.54 22.9901V23.03Z" fill="#E75739"/>
<path d="M120.78 25.3399H118.86C118.52 25.3399 118.52 25.34 118.52 24.99V16.45C118.518 15.667 118.461 14.885 118.35 14.11C118.232 12.857 117.711 11.6759 116.866 10.7438C116.02 9.8117 114.895 9.17881 113.66 8.93997C111.348 8.39035 108.931 8.46975 106.66 9.16995C105.448 9.50879 104.345 10.1566 103.46 11.05C103.423 11.0724 103.391 11.102 103.366 11.137C103.341 11.172 103.323 11.2117 103.314 11.2537C103.305 11.2957 103.304 11.3392 103.312 11.3815C103.32 11.4238 103.336 11.4641 103.36 11.5L103.43 11.57C103.75 11.94 104.04 12.34 104.35 12.73C104.66 13.12 104.71 13.01 104.97 12.82C105.258 12.5897 105.562 12.3792 105.88 12.19C107.891 11.0817 110.239 10.7474 112.48 11.25C112.985 11.3352 113.466 11.5251 113.893 11.8076C114.32 12.09 114.684 12.4587 114.96 12.89C115.406 13.614 115.661 14.44 115.7 15.2899V16.76H115.32C113.268 16.6915 111.213 16.7583 109.17 16.9599C107.881 17.0907 106.621 17.4284 105.44 17.9599C104.376 18.3998 103.497 19.1932 102.95 20.2061C102.404 21.219 102.223 22.3895 102.44 23.5199C102.545 24.4459 102.923 25.3199 103.524 26.0317C104.126 26.7435 104.924 27.2614 105.82 27.5199C107.486 28.074 109.28 28.1158 110.97 27.64C112.573 27.2482 114.02 26.38 115.12 25.1499C115.43 24.8099 115.71 24.43 116.06 24.01V26.39C116.017 26.6723 116.087 26.9602 116.256 27.1908C116.424 27.4213 116.677 27.5756 116.96 27.62H120.8C121.04 27.62 121.15 27.51 121.14 27.26V25.75C121.13 25.44 121.03 25.3399 120.78 25.3399ZM115.28 21.56C115.281 21.6547 115.257 21.748 115.21 21.83C114.128 23.443 112.508 24.6194 110.64 25.1499C109.442 25.4974 108.161 25.4125 107.02 24.9099C106.347 24.6006 105.813 24.0538 105.52 23.3745C105.226 22.6953 105.194 21.9315 105.43 21.23C105.649 20.639 106.08 20.1506 106.64 19.86C107.434 19.4201 108.314 19.1574 109.22 19.0899C110.47 18.9799 111.74 18.9299 112.97 18.8499V18.9099H115.06C115.25 18.9099 115.3 18.9699 115.3 19.1499C115.3 19.9599 115.3 20.75 115.3 21.57L115.28 21.56Z" fill="#E75739"/>
<path d="M60.6097 25.2399H58.7397C58.4797 25.2399 58.4197 25.1599 58.4197 24.9099V15.2299C58.4181 14.5583 58.3511 13.8885 58.2197 13.2299C58.0596 12.26 57.6407 11.3513 57.007 10.5998C56.3734 9.84821 55.5486 9.28162 54.6198 8.95987C53.3322 8.52303 51.9516 8.43674 50.6198 8.70987C49.6977 8.83968 48.8172 9.17719 48.0446 9.69687C47.272 10.2165 46.6275 10.9048 46.1597 11.7099C46.1597 11.7899 46.0598 11.8599 46.0098 11.9399V9.1799C46.0098 8.8799 45.9497 8.80991 45.6597 8.80991H41.3497C41.1097 8.80991 40.9897 8.90987 40.9897 9.14987V10.7599C40.9897 11.0099 41.1098 11.1199 41.3698 11.1099H43.0098C43.5498 11.1099 43.5397 11.1099 43.5397 11.6199V24.9499C43.5397 25.1799 43.4697 25.2499 43.2397 25.2499H41.3597C41.0397 25.2499 40.9797 25.2499 40.9697 25.6099V27.1299C40.9697 27.4399 41.0497 27.4999 41.3497 27.4999H48.3497C48.5997 27.4999 48.7097 27.3999 48.7097 27.1599V25.5699C48.7097 25.3099 48.5897 25.2199 48.3397 25.2199H46.6998C46.3398 25.2199 46.3397 25.2199 46.3397 24.8699V14.7499C46.332 14.5131 46.3872 14.2785 46.4998 14.0699C46.7818 13.5469 47.1169 13.0543 47.4998 12.5999C48.0909 11.9557 48.8358 11.4719 49.6648 11.1938C50.4938 10.9157 51.3797 10.8525 52.2397 11.0099C52.8681 11.0825 53.4659 11.3208 53.9719 11.7003C54.478 12.0798 54.8741 12.587 55.1198 13.1699C55.4801 14.0336 55.6506 14.9646 55.6198 15.8999V26.2699C55.6017 26.4173 55.6135 26.5669 55.6543 26.7097C55.6951 26.8526 55.7642 26.9857 55.8575 27.1014C55.9507 27.217 56.0663 27.3127 56.1972 27.3829C56.3281 27.4531 56.4718 27.4963 56.6198 27.5099H60.6998C60.9898 27.5099 61.0598 27.4299 61.0598 27.1499V25.6399C60.9598 25.2999 60.9597 25.2399 60.6097 25.2399Z" fill="#E75739"/>
<path d="M161.74 22.4201C161.55 22.2401 161.431 22.2701 161.271 22.4901C161.148 22.6685 161.015 22.8389 160.87 23.0001C160.064 23.9118 159.046 24.6118 157.905 25.0389C156.765 25.466 155.538 25.6072 154.33 25.4501C153.531 25.3666 152.76 25.1106 152.069 24.6997C151.378 24.2887 150.785 23.7327 150.33 23.0701C149.522 21.9028 149.049 20.537 148.96 19.1201C148.96 18.8701 149.051 18.8501 149.251 18.8501H162.46C162.548 18.8501 162.632 18.8153 162.694 18.7534C162.756 18.6915 162.791 18.6076 162.791 18.52C162.821 16.9804 162.611 15.4455 162.171 13.97C161.743 12.4417 160.839 11.0895 159.59 10.1101C158.674 9.48386 157.644 9.0445 156.557 8.81715C155.471 8.58981 154.35 8.57897 153.26 8.78517C152.17 8.99138 151.13 9.41059 150.202 10.0189C149.274 10.6272 148.475 11.4126 147.85 12.3301C147.589 12.706 147.362 13.1041 147.17 13.52C145.944 16.1928 145.808 19.2385 146.79 22.0101C147.122 23.1467 147.7 24.1964 148.483 25.0847C149.266 25.973 150.235 26.6781 151.321 27.15C152.677 27.769 154.161 28.0549 155.65 27.9835C157.139 27.9122 158.59 27.4859 159.881 26.7401C161.051 26.1016 162.05 25.1889 162.791 24.0801C162.873 23.996 162.919 23.8829 162.919 23.7651C162.919 23.6473 162.873 23.5342 162.791 23.4501C162.371 23.0501 162.08 22.7501 161.74 22.4201ZM150.201 13.5801C150.764 12.7179 151.566 12.0377 152.508 11.6223C153.451 11.2069 154.494 11.0742 155.511 11.2401C156.471 11.3313 157.38 11.7192 158.11 12.3501C158.941 13.0864 159.509 14.0726 159.73 15.16C159.825 15.616 159.895 16.0767 159.94 16.5401C159.95 16.613 159.95 16.6871 159.94 16.7601H149.131C149.22 15.6266 149.591 14.5335 150.21 13.5801H150.201Z" fill="#E75739"/>
<path d="M76.66 19.1001C75.9455 18.6203 75.1636 18.2496 74.34 18.0001C73.06 17.6101 71.76 17.2601 70.48 16.8801C69.579 16.6576 68.7254 16.2748 67.96 15.7501C67.6853 15.5764 67.453 15.3435 67.28 15.0684C67.1069 14.7932 66.9976 14.4829 66.96 14.1601C66.8961 13.5528 67.0432 12.9421 67.3764 12.4304C67.7096 11.9187 68.2088 11.5373 68.79 11.3501C70.0583 10.8909 71.442 10.8593 72.73 11.2601C73.6 11.4623 74.3819 11.9391 74.96 12.6201C75.2007 12.9158 75.3804 13.2563 75.4886 13.6219C75.5967 13.9876 75.6312 14.371 75.59 14.7501C75.5865 14.7921 75.5926 14.8344 75.6077 14.8738C75.6229 14.9131 75.6468 14.9486 75.6776 14.9774C75.7083 15.0063 75.7452 15.0277 75.7855 15.0403C75.8257 15.0529 75.8683 15.0563 75.91 15.0501H77.54C77.6245 15.0587 77.7091 15.0344 77.7761 14.9823C77.8432 14.9301 77.8875 14.8541 77.9 14.7701V9.22008C77.9027 9.18198 77.8979 9.14376 77.8857 9.10754C77.8736 9.07131 77.8545 9.03783 77.8294 9.00902C77.8043 8.98022 77.7738 8.9566 77.7396 8.93963C77.7053 8.92266 77.6681 8.91262 77.63 8.91009H76.19C76.1038 8.8956 76.0154 8.91593 75.9442 8.96654C75.8729 9.01716 75.8247 9.09396 75.81 9.18011C75.7998 9.21946 75.7998 9.26075 75.81 9.3001V10.6301L75.69 10.5001C75.1241 9.69297 74.2802 9.12317 73.32 8.90008C71.937 8.55738 70.5011 8.48273 69.09 8.68011C67.935 8.82038 66.8466 9.29675 65.96 10.0501C65.3848 10.5274 64.9256 11.1292 64.6172 11.8101C64.3089 12.4909 64.1594 13.2329 64.18 13.9801C64.1532 14.6083 64.2709 15.2343 64.524 15.8099C64.7771 16.3854 65.1589 16.8953 65.64 17.3001C66.3192 17.8834 67.1079 18.3254 67.96 18.6001C69.3 19.0301 70.66 19.4101 71.96 19.8101C72.8925 20.0259 73.7796 20.4051 74.58 20.9301C75.0181 21.2219 75.3235 21.6746 75.43 22.1901C75.5395 22.7501 75.4617 23.3305 75.2087 23.842C74.9557 24.3534 74.5415 24.7673 74.03 25.0201C73.0535 25.4517 71.9831 25.6272 70.92 25.5301C69.59 25.5296 68.3008 25.0705 67.27 24.2301C66.8154 23.9274 66.4467 23.5124 66.1997 23.0254C65.9527 22.5383 65.8356 21.9957 65.86 21.4501C65.86 21.2101 65.71 21.1101 65.49 21.1101H63.96C63.59 21.1101 63.5 21.2001 63.5 21.5901V27.2701C63.5 27.5401 63.6 27.6501 63.86 27.6501H65.33C65.3694 27.6542 65.4093 27.6505 65.4473 27.6392C65.4853 27.6278 65.5206 27.609 65.5513 27.5839C65.582 27.5588 65.6074 27.5279 65.626 27.4929C65.6447 27.4579 65.6562 27.4196 65.66 27.3801V25.3201H65.73C65.8681 25.5631 66.0218 25.7969 66.19 26.0201C66.7711 26.6632 67.5133 27.1396 68.34 27.4001C70.1498 28.0098 72.0885 28.1305 73.96 27.7501C75.0644 27.5824 76.1019 27.1155 76.96 26.4001C77.488 25.9365 77.9064 25.3615 78.1849 24.7164C78.4633 24.0713 78.5949 23.3723 78.57 22.6701C78.598 21.9589 78.4358 21.2532 78.1 20.6256C77.7643 19.998 77.2672 19.4714 76.66 19.1001Z" fill="#E75739"/>
<path d="M97.3804 22.3801C97.2104 22.2101 97.0603 22.2401 96.9103 22.3801C96.7603 22.5201 96.6804 22.7202 96.5504 22.8902C95.5631 24.0373 94.2526 24.8598 92.7903 25.2501C91.5363 25.6207 90.1966 25.5798 88.9675 25.1335C87.7384 24.6872 86.6845 23.8589 85.9603 22.7701C85.1228 21.4662 84.6618 19.9562 84.6283 18.4069C84.5948 16.8575 84.99 15.329 85.7703 13.9901C86.3551 12.9276 87.2578 12.0748 88.3517 11.5511C89.4457 11.0275 90.676 10.8593 91.8704 11.0701C93.2198 11.2444 94.4545 11.9189 95.3303 12.9601C95.6455 13.3173 95.8858 13.7342 96.037 14.1859C96.1881 14.6377 96.2471 15.1151 96.2103 15.5901C96.2103 15.9901 96.2703 16.0601 96.6603 16.0601H97.9603C98.4603 16.0601 98.4603 16.0601 98.4603 15.5501V9.13014C98.4635 9.05535 98.4386 8.98206 98.3905 8.9247C98.3424 8.86734 98.2746 8.83006 98.2004 8.82014H96.8004C96.5604 8.82014 96.4504 8.92012 96.4504 9.17012V11.2801L96.3004 11.1001C95.7909 10.2833 95.0443 9.64142 94.1603 9.26015C92.5902 8.56791 90.8485 8.36236 89.1603 8.67012C87.5756 8.8901 86.0894 9.56726 84.8835 10.6187C83.6776 11.6701 82.8042 13.0501 82.3704 14.5901C81.8007 16.3692 81.6704 18.2597 81.9904 20.1001C82.2361 22.0491 83.0939 23.8698 84.4404 25.3001C85.357 26.2612 86.4883 26.9915 87.7415 27.4312C88.9947 27.871 90.3341 28.0077 91.6503 27.8302C93.5831 27.6868 95.4224 26.942 96.9103 25.7001C97.506 25.2301 98.0284 24.674 98.4603 24.0501C98.5603 23.8901 98.6303 23.7201 98.4603 23.5401C98.1303 23.1401 97.7604 22.7501 97.3804 22.3801Z" fill="#E75739"/>
<path d="M37.2404 25.2501H35.5403C35.1303 25.2501 35.1304 25.25 35.1304 24.84V9.63007C35.1304 9.03007 35.1303 9.03003 34.5303 9.03003H29.9603C29.7303 9.03003 29.6204 9.13005 29.6204 9.36005V10.92C29.6114 10.968 29.6142 11.0173 29.6287 11.0639C29.6431 11.1105 29.6687 11.1528 29.7031 11.1873C29.7376 11.2217 29.7799 11.2473 29.8265 11.2617C29.873 11.2761 29.9224 11.279 29.9703 11.27H32.2004V25.27H29.9603C29.7103 25.27 29.6104 25.37 29.6104 25.61V27.2001C29.6104 27.4101 29.7004 27.52 29.9304 27.52H37.2604C37.3422 27.5287 37.4243 27.5055 37.4894 27.4552C37.5546 27.4049 37.5979 27.3314 37.6104 27.2501V25.59C37.6104 25.35 37.4904 25.2401 37.2404 25.2501Z" fill="#E75739"/>
<path d="M15.7604 12.9C16.4404 12.13 17.1204 11.38 17.7604 10.61C19.9369 8.05814 21.97 5.38736 23.8503 2.61005C23.8865 2.56088 23.933 2.5202 23.9866 2.49084C24.0401 2.46148 24.0994 2.44416 24.1603 2.44006H25.9603C26.2603 2.44006 26.3403 2.37007 26.3503 2.07007V0.400024C26.3503 0.110024 26.2603 0.0400391 25.9603 0.0400391H18.1603C17.7103 0.0400391 17.7103 0.040061 17.7103 0.500061V2.05005C17.7103 2.36005 17.7104 2.40002 18.0604 2.40002H20.8604C18.7292 5.45393 16.3904 8.35747 13.8604 11.09L15.7604 12.9Z" fill="#E75739"/>
<path d="M169.73 10.94C168.893 10.94 168.075 10.6919 167.38 10.2271C166.684 9.76229 166.142 9.10165 165.822 8.32871C165.502 7.55578 165.418 6.70528 165.581 5.88474C165.744 5.0642 166.147 4.31049 166.739 3.71891C167.33 3.12734 168.084 2.72447 168.905 2.56126C169.725 2.39804 170.576 2.48182 171.349 2.80198C172.122 3.12214 172.782 3.66428 173.247 4.3599C173.712 5.05552 173.96 5.87332 173.96 6.70994C173.957 7.83099 173.511 8.90539 172.718 9.6981C171.925 10.4908 170.851 10.9373 169.73 10.94ZM169.73 3.45994C169.087 3.45994 168.459 3.65055 167.924 4.00767C167.39 4.36478 166.973 4.87237 166.727 5.46623C166.481 6.06009 166.417 6.7136 166.542 7.34403C166.668 7.97447 166.977 8.55351 167.432 9.00804C167.886 9.46256 168.465 9.7721 169.096 9.8975C169.726 10.0229 170.38 9.95855 170.974 9.71256C171.568 9.46658 172.075 9.05 172.432 8.51554C172.789 7.98108 172.98 7.35273 172.98 6.70994C172.977 5.8488 172.634 5.0237 172.025 4.41477C171.416 3.80585 170.591 3.46258 169.73 3.45994Z" fill="#E75739"/>
<path d="M169.17 6.98004V8.34003H168.74V5.05005H169.66C169.839 5.05026 170.017 5.0738 170.19 5.12006C170.325 5.15376 170.451 5.21505 170.56 5.30005C170.655 5.37408 170.731 5.47023 170.78 5.58008C170.825 5.70173 170.849 5.83026 170.85 5.96002C170.851 6.06951 170.83 6.17809 170.79 6.28003C170.757 6.38043 170.702 6.47252 170.63 6.55005C170.56 6.63195 170.475 6.69983 170.38 6.75006C170.277 6.8095 170.166 6.85332 170.05 6.88007C170.106 6.91626 170.154 6.96394 170.19 7.02002L171.19 8.31006H170.8C170.765 8.3123 170.73 8.30518 170.698 8.28937C170.667 8.27356 170.64 8.2496 170.62 8.22003L169.78 7.05005L169.69 6.97003H169.56L169.17 6.98004ZM169.17 6.66003H169.63C169.745 6.66112 169.86 6.64426 169.97 6.61005C170.062 6.58521 170.147 6.54087 170.22 6.48004C170.286 6.42715 170.338 6.35832 170.37 6.28003C170.385 6.19402 170.385 6.10603 170.37 6.02002C170.375 5.937 170.36 5.85415 170.327 5.77783C170.294 5.70151 170.244 5.63385 170.18 5.58008C170.012 5.46892 169.812 5.41619 169.61 5.43005H169.12L169.17 6.66003Z" fill="#E75739"/>
<path d="M171.64 8.59004H170.75C170.671 8.59273 170.593 8.57361 170.524 8.5348C170.455 8.496 170.399 8.43902 170.36 8.37007L169.52 7.23006H169.42V8.59004H168.49V4.83009H169.66C169.863 4.82937 170.065 4.85624 170.26 4.91005C170.427 4.95254 170.583 5.02733 170.72 5.13008C170.846 5.23144 170.946 5.36184 171.01 5.51009C171.07 5.65963 171.1 5.8191 171.1 5.98006C171.098 6.12278 171.075 6.26435 171.03 6.40004C170.98 6.52431 170.909 6.63927 170.82 6.74007C170.736 6.84695 170.63 6.93544 170.51 7.00008L171.64 8.59004ZM169.42 6.41005H169.63C169.72 6.42225 169.811 6.42225 169.9 6.41005C169.959 6.39062 170.013 6.3601 170.06 6.32008C170.092 6.28778 170.119 6.25063 170.14 6.21004C170.152 6.15731 170.152 6.10279 170.14 6.05006C170.14 5.90006 170.14 5.84007 170.04 5.81007C169.917 5.73536 169.774 5.7004 169.63 5.71004H169.39L169.42 6.41005Z" fill="#E75739"/>
</g>
<defs>
<clipPath id="clip0_3470_2897">
<rect width="173.96" height="34.84" fill="white"/>
</clipPath>
</defs>
</svg>
