<svg width="282" height="238" viewBox="0 0 282 238" fill="none" xmlns="http://www.w3.org/2000/svg">
<path opacity="0.36" d="M57.1192 234.971C62.0689 235.493 67.279 236.014 72.4892 236.275C116.515 239.143 162.625 238.1 202.222 217.761C233.483 201.594 257.711 174.997 270.996 142.663C284.282 110.068 285.585 74.084 274.644 40.7071C270.215 27.1477 262.921 13.3276 250.937 6.02639C240.778 -0.231784 228.013 -1.27481 216.29 1.33276C204.567 3.94033 193.886 9.67698 183.987 16.4567C149.86 39.9248 123.809 75.127 87.3382 94.1623C64.9344 105.896 38.1021 111.372 21.6901 131.972C6.84112 150.225 -5.66328 177.605 2.67299 201.073C7.36213 214.111 18.8245 223.759 31.8499 228.974C39.9257 232.103 48.5224 233.928 57.1192 234.971Z" fill="#E8E4FF"/>
<path d="M205.348 220.629C202.222 220.629 199.877 218.021 199.877 215.153C199.877 212.285 202.482 209.677 205.348 209.677C208.213 209.677 210.818 212.285 210.818 215.153C210.818 218.021 208.474 220.629 205.348 220.629ZM205.348 212.024C203.785 212.024 202.482 213.328 202.482 214.892C202.482 216.457 203.785 217.761 205.348 217.761C206.911 217.761 208.213 216.457 208.213 214.892C208.213 213.328 206.911 212.024 205.348 212.024Z" fill="#534898"/>
<path d="M201.179 13.0663C198.053 13.0663 195.708 10.4587 195.708 7.59041C195.708 4.46133 198.313 2.11452 201.179 2.11452C204.045 2.11452 206.65 4.72209 206.65 7.59041C206.65 10.7195 204.305 13.0663 201.179 13.0663ZM201.179 4.46133C199.616 4.46133 198.313 5.76512 198.313 7.32966C198.313 8.8942 199.616 10.198 201.179 10.198C202.742 10.198 204.045 8.8942 204.045 7.32966C204.045 6.02587 202.742 4.46133 201.179 4.46133Z" fill="#534898"/>
<path d="M235.827 112.936C232.701 112.936 230.356 110.329 230.356 107.46C230.356 104.592 232.961 101.985 235.827 101.985C238.692 101.985 241.297 104.592 241.297 107.46C241.297 110.329 238.953 112.936 235.827 112.936ZM235.827 104.592C234.264 104.592 232.961 105.896 232.961 107.46C232.961 109.025 234.264 110.329 235.827 110.329C237.39 110.329 238.692 109.025 238.692 107.46C238.692 105.896 237.39 104.592 235.827 104.592Z" fill="#534898"/>
<path d="M55.034 177.865C51.9079 177.865 49.5634 175.257 49.5634 172.389C49.5634 169.521 52.1684 166.913 55.034 166.913C57.8996 166.913 60.5047 169.521 60.5047 172.389C60.5047 175.257 58.1601 177.865 55.034 177.865ZM55.034 169.521C53.471 169.521 52.1684 170.824 52.1684 172.389C52.1684 173.953 53.471 175.257 55.034 175.257C56.5971 175.257 57.8996 173.953 57.8996 172.389C57.8996 170.824 56.5971 169.521 55.034 169.521Z" fill="#534898"/>
<path d="M120.421 206.027V210.199H124.59V211.242H120.421V215.675H119.379V211.242H115.211V210.199H119.379V206.027H120.421Z" fill="#534898"/>
<path d="M120.942 216.196H118.598V212.024H114.43V209.677H118.598V205.244H120.942V209.677H125.111V212.024H120.942V216.196Z" fill="#534898"/>
<g clip-path="url(#clip0_31:5062)">
<path d="M176.949 173.737H114.969C109.037 173.737 104.332 168.996 104.332 163.017V74.5798C104.332 68.6015 109.037 63.8601 114.969 63.8601H176.949C182.881 63.8601 187.585 68.6015 187.585 74.5798V163.017C187.79 168.996 182.881 173.737 176.949 173.737ZM114.969 65.9216C110.264 65.9216 106.377 69.8384 106.377 74.5798V163.017C106.377 167.759 110.264 171.676 114.969 171.676H176.949C181.653 171.676 185.54 167.759 185.54 163.017V74.5798C185.54 69.8384 181.653 65.9216 176.949 65.9216H114.969Z" fill="#534898"/>
<path d="M157.925 117.046H121.719C121.105 117.046 120.491 116.428 120.491 115.809C120.491 115.191 121.105 114.573 121.719 114.573H157.925C158.539 114.573 159.152 115.191 159.152 115.809C159.152 116.428 158.539 117.046 157.925 117.046Z" fill="#534898"/>
<path d="M170.198 123.849H121.719C121.105 123.849 120.491 123.231 120.491 122.612C120.491 121.994 121.105 121.375 121.719 121.375H170.198C170.812 121.375 171.425 121.994 171.425 122.612C171.63 123.231 171.016 123.849 170.198 123.849Z" fill="#534898"/>
<path d="M170.198 130.858H121.719C121.105 130.858 120.491 130.24 120.491 129.621C120.491 129.003 121.105 128.385 121.719 128.385H170.198C170.812 128.385 171.425 129.003 171.425 129.621C171.63 130.24 171.016 130.858 170.198 130.858Z" fill="#534898"/>
<path d="M157.925 149.824H121.719C121.105 149.824 120.491 149.205 120.491 148.587C120.491 147.969 121.105 147.35 121.719 147.35H157.925C158.539 147.35 159.152 147.969 159.152 148.587C159.152 149.205 158.539 149.824 157.925 149.824Z" fill="#534898"/>
<path d="M170.198 142.815H121.719C121.105 142.815 120.491 142.196 120.491 141.578C120.491 140.96 121.105 140.341 121.719 140.341H170.198C170.812 140.341 171.425 140.96 171.425 141.578C171.63 142.403 171.016 142.815 170.198 142.815Z" fill="#534898"/>
<path d="M134.401 96.4315C136.209 96.4315 137.674 94.9548 137.674 93.1332C137.674 91.3115 136.209 89.8348 134.401 89.8348C132.594 89.8348 131.129 91.3115 131.129 93.1332C131.129 94.9548 132.594 96.4315 134.401 96.4315Z" fill="#534898"/>
<path d="M155.88 96.4315C157.687 96.4315 159.152 94.9548 159.152 93.1332C159.152 91.3115 157.687 89.8348 155.88 89.8348C154.072 89.8348 152.607 91.3115 152.607 93.1332C152.607 94.9548 154.072 96.4315 155.88 96.4315Z" fill="#534898"/>
<path d="M147.288 103.853H141.152C140.743 103.853 140.333 103.441 140.333 103.028C140.333 102.616 140.743 102.204 141.152 102.204H147.288C147.697 102.204 148.107 102.616 148.107 103.028C148.107 103.441 147.697 103.853 147.288 103.853Z" fill="#534898"/>
</g>
<defs>
<clipPath id="clip0_31:5062">
<rect width="83.4581" height="109.877" fill="white" transform="translate(104.332 63.8601)"/>
</clipPath>
</defs>
</svg>
