<svg width="174" height="192" viewBox="0 0 174 192" fill="none" xmlns="http://www.w3.org/2000/svg">
<path d="M42.9216 173.26L42.9216 173.259L42.914 173.262C38.2228 174.518 33.3894 175.165 28.533 175.187C20.8713 175.064 13.0108 172.438 8.0506 166.659L8.05017 166.658C3.58671 161.472 1.55451 154.729 1.14856 147.7C0.742669 140.672 1.96552 133.394 3.97531 127.185C6.23233 120.247 10.5328 114.706 15.472 109.549C17.5174 107.413 19.6643 105.351 21.8186 103.282C22.2667 102.852 22.7152 102.421 23.1631 101.989C25.7599 99.4864 28.3346 96.9527 30.6936 94.2686L30.3181 93.9385L30.6937 94.2685C38.4155 85.4807 43.8871 75.1477 49.0672 64.6529C49.8069 63.1543 50.5405 61.6527 51.2738 60.1518C55.6845 51.1237 60.0841 42.1184 65.7224 33.9334L65.7229 33.9326C69.5133 28.4093 73.942 23.2464 79.4581 19.6101C84.9731 15.9746 91.7107 13.978 98.1354 15.1171L98.1359 15.1172C105.856 16.4787 112.238 22.0753 117.34 28.2947C129.722 43.4583 136.302 62.5357 135.9 82.1094C135.498 101.683 128.141 120.474 115.148 135.117C98.6583 153.628 74.816 163.524 51.1582 170.891C48.4233 171.731 45.6816 172.567 42.9216 173.26Z" stroke="#E75739"/>
<path d="M42.5275 165.474C45.388 165.519 48.2653 165.421 51.1234 165.318C75.898 164.324 101.608 160.934 122.447 147.242C138.887 136.396 150.93 120.051 156.417 101.134C161.905 82.2163 160.478 61.9636 152.394 44.0034C149.06 36.6431 144.28 29.4481 137.01 26.0575C130.955 23.2269 123.793 23.4283 117.437 25.5418C111.081 27.6554 105.41 31.5416 100.295 35.9159C82.5806 51.0132 70.2382 72.1936 50.8912 85.0936C39.0721 92.9726 24.494 97.6962 16.4219 110.117C9.27098 121.154 4.04885 137.203 10.1103 149.789C13.4871 156.825 20.5459 161.468 28.0062 163.594C32.7459 164.841 37.6264 165.473 42.5275 165.474Z" fill="#FCD0C4"/>
<path d="M105.64 137.008C107.809 137.002 109.707 135.549 110.279 133.457L114.702 116.943L131.454 112.465C134.006 111.771 135.517 109.145 134.837 106.59L126.152 74.218L126.839 71.6589C127.461 69.3019 126.216 66.8534 123.946 65.966L120.035 51.3672C119.335 48.8169 116.716 47.3035 114.157 47.9698L85.5889 55.6331L61.634 49.2109C60.6522 48.9414 59.6095 48.9978 58.6627 49.3712L52.6784 43.3971C50.6612 41.3616 47.7096 40.5606 44.9404 41.2979C42.1712 42.0352 40.0083 44.1974 39.2702 46.9666C38.5322 49.7359 39.3317 52.6881 41.3665 54.7054L52.2742 65.6131L39.2058 114.399C38.5219 116.957 40.0346 119.586 42.5901 120.282L104.395 136.842C104.801 136.952 105.219 137.008 105.64 137.008ZM131.742 107.416C131.968 108.265 131.468 109.138 130.622 109.371L115.66 113.37L124.491 80.4022L131.742 107.416ZM114.975 51.0634C115.388 50.9506 115.828 51.0077 116.197 51.2215C116.567 51.4346 116.836 51.7875 116.944 52.2005L120.356 64.946L91.7681 57.2871L114.975 51.0634ZM87.4634 89.4999L79.3879 86.8083L84.7718 81.4192L87.4634 89.494V89.4999ZM80.9533 80.7222L67.3811 67.1485C66.7566 66.5239 65.7432 66.5239 65.1186 67.1492C64.494 67.7738 64.4948 68.7872 65.1201 69.4118L78.693 82.9818L76.432 85.2457L53.8097 62.6235L56.0715 60.3617L60.5943 64.8867C60.9992 65.2909 61.5879 65.449 62.1407 65.3004C62.6928 65.1525 63.1241 64.7212 63.272 64.1691C63.4199 63.6171 63.2625 63.0276 62.8583 62.6235L58.3347 58.0999L60.5965 55.8366L83.2151 78.4589L80.9533 80.7222ZM49.2846 58.0999L56.0715 51.313L58.3332 53.5748L51.5479 60.3617L49.2846 58.0999ZM42.2239 49.0512C42.2239 47.1102 43.3933 45.3595 45.1865 44.617C46.9804 43.8745 49.0445 44.2853 50.4166 45.6582L53.8097 49.0512L47.0228 55.8381L43.6283 52.4436C42.7262 51.5459 42.2203 50.3246 42.2239 49.0512ZM42.2979 115.238L54.8889 68.2278L75.2992 88.6381C75.4662 88.8013 75.6668 88.9251 75.8879 89.0012C75.9004 89.0012 75.9099 89.0188 75.9245 89.0232L86.461 92.5422C86.7898 92.6506 87.1346 92.704 87.481 92.7026C88.0836 92.7004 88.673 92.5268 89.1797 92.2017L107.574 97.1412C107.71 97.1785 107.85 97.1976 107.99 97.1968C108.793 97.1968 109.471 96.6016 109.575 95.8056C109.68 95.0097 109.178 94.26 108.403 94.0527L90.6485 89.2861C90.6324 89.0144 90.5833 88.7457 90.5013 88.4858L86.9823 77.9486C86.9823 77.9339 86.9648 77.9244 86.9582 77.9098C86.882 77.6908 86.7583 77.4909 86.5965 77.3247L61.8742 52.5922L122.61 68.8611C123.021 68.971 123.371 69.239 123.583 69.6073C123.796 69.9748 123.853 70.4119 123.743 70.8227L107.191 132.62C107.081 133.031 106.813 133.382 106.444 133.594C106.076 133.807 105.638 133.864 105.228 133.753L43.4299 117.199C43.0199 117.089 42.6699 116.821 42.4568 116.454C42.2445 116.086 42.1873 115.648 42.2979 115.238Z" fill="#534898"/>
<path d="M112.962 78.6503C113.764 78.6495 114.442 78.0543 114.547 77.2583C114.651 76.4632 114.149 75.7127 113.375 75.5054L90.6243 69.4098C90.0664 69.2436 89.4631 69.3937 89.0479 69.8015C88.6327 70.2086 88.4716 70.8098 88.6269 71.3699C88.7821 71.9308 89.2302 72.3628 89.7955 72.4983L112.547 78.5954C112.683 78.632 112.822 78.6503 112.962 78.6503Z" fill="#534898"/>
<path d="M110.476 87.9193C111.278 87.9186 111.956 87.324 112.061 86.5281C112.166 85.7322 111.664 84.9824 110.889 84.7745L95.421 80.6368C94.8653 80.4786 94.2678 80.6316 93.857 81.0387C93.4462 81.4451 93.2873 82.0419 93.4404 82.5991C93.5934 83.1563 94.0349 83.5876 94.5958 83.7267L110.064 87.8651C110.198 87.901 110.337 87.9193 110.476 87.9193Z" fill="#534898"/>
<path d="M61.1193 91.3102L56.4807 90.0676C55.9243 89.9051 55.3231 90.0559 54.9101 90.463C54.4972 90.8694 54.3361 91.4676 54.4899 92.027C54.6436 92.5857 55.0873 93.0177 55.6504 93.1561L60.2889 94.4008C60.4251 94.4367 60.5643 94.455 60.7048 94.455C61.5081 94.4557 62.1868 93.8605 62.2915 93.0645C62.3962 92.2686 61.8947 91.5181 61.1193 91.3102Z" fill="#534898"/>
<path d="M107.054 105.273C107.283 104.42 106.776 103.544 105.924 103.315L70.3868 93.7945C69.5623 93.6334 68.754 94.1386 68.5358 94.9499C68.3183 95.7612 68.7657 96.6032 69.5601 96.8763L105.095 106.397C105.23 106.435 105.37 106.453 105.509 106.453C106.232 106.454 106.865 105.97 107.054 105.273Z" fill="#534898"/>
<path d="M58.6334 100.58L53.9949 99.3366C53.1433 99.1133 52.2713 99.62 52.0436 100.47C51.8159 101.321 52.3189 102.196 53.1682 102.427L57.8068 103.668C57.9415 103.706 58.0806 103.725 58.2212 103.724C59.0237 103.725 59.7025 103.129 59.8072 102.334C59.9126 101.538 59.411 100.787 58.6349 100.58H58.6334Z" fill="#534898"/>
<path d="M103.439 112.586L67.9046 103.063C67.3467 102.898 66.7434 103.048 66.3282 103.455C65.913 103.863 65.7519 104.463 65.9072 105.024C66.0624 105.584 66.5105 106.016 67.0758 106.153L102.611 115.674C102.747 115.712 102.887 115.731 103.027 115.731C103.83 115.73 104.508 115.135 104.612 114.339C104.716 113.543 104.215 112.793 103.439 112.586Z" fill="#534898"/>
</svg>
