<svg width="225" height="246" viewBox="0 0 225 246" fill="none" xmlns="http://www.w3.org/2000/svg">
<path d="M172.193 37.2875C168.587 37.1077 164.954 37.1079 161.344 37.1154C130.054 37.3046 97.4813 40.4762 70.6094 56.8498C49.4077 69.8236 33.5168 89.9227 25.7833 113.547C18.0499 137.171 18.9791 162.776 28.4046 185.776C32.2924 195.203 38.0123 204.483 47.0367 209.072C54.5524 212.902 63.5945 212.955 71.7018 210.563C79.8092 208.17 87.1288 203.512 93.7673 198.214C116.759 179.933 133.236 153.749 158.192 138.31C173.437 128.88 192.027 123.548 202.741 108.229C212.235 94.6148 219.511 74.5971 212.406 58.4625C208.449 49.4439 199.745 43.2847 190.427 40.2824C184.503 38.5058 178.374 37.4993 172.193 37.2875Z" fill="#534898"/>
<path d="M67.3209 137.517C68.0506 137.517 68.6419 138.108 68.6419 138.838V144.742C68.6419 147.287 70.7129 149.358 73.2585 149.358H130.036C132.581 149.358 134.652 147.287 134.652 144.742V117.151C134.652 116.421 135.244 115.83 135.973 115.83C136.703 115.83 137.294 116.421 137.294 117.151V144.742C137.294 148.744 134.038 152 130.036 152H73.2585C69.256 152 66 148.744 66 144.742V138.838C66 138.108 66.5914 137.517 67.3209 137.517Z" fill="white"/>
<path d="M73.2585 95.4016H76.3935V87.2533C76.3935 73.3285 87.722 62 101.647 62C115.572 62 126.901 73.3285 126.901 87.2535V95.4018H130.036C134.038 95.4018 137.294 98.6578 137.294 102.66V110.986C137.294 111.716 136.703 112.307 135.973 112.307C135.244 112.307 134.652 111.716 134.652 110.986V102.66C134.652 100.115 132.581 98.0437 130.036 98.0437H73.2585C70.7129 98.0437 68.6419 100.115 68.6419 102.66V132.673C68.6419 133.403 68.0506 133.994 67.3209 133.994C66.5912 133.994 66 133.403 66 132.673V102.66C66 98.6578 69.2562 95.4016 73.2585 95.4016ZM86.0804 95.4016H117.214V87.2533C117.214 78.6699 110.23 71.6869 101.647 71.6869C93.0636 71.6869 86.0804 78.6699 86.0804 87.2535V95.4016ZM83.4385 95.4016V87.2533C83.4385 77.2133 91.6068 69.045 101.647 69.045C111.687 69.045 119.856 77.2133 119.856 87.2535V95.4018H124.259V87.2535C124.259 74.7854 114.115 64.6418 101.647 64.6418C89.1789 64.6418 79.0354 74.7854 79.0354 87.2535V95.4018H83.4385V95.4016Z" fill="white"/>
<path d="M101.647 143.012C98.4292 143.012 95.8113 140.394 95.8113 137.176V127.521C93.0248 125.606 91.3231 122.411 91.3231 119.007C91.3231 113.314 95.9545 108.683 101.647 108.683C107.34 108.683 111.971 113.314 111.971 119.007C111.971 122.411 110.27 125.606 107.483 127.521V137.176C107.483 140.394 104.865 143.012 101.647 143.012ZM109.329 119.007C109.329 114.771 105.883 111.325 101.647 111.325C97.4111 111.325 93.9648 114.771 93.9648 119.007C93.9648 121.733 95.4326 124.28 97.7957 125.652C98.2027 125.889 98.453 126.324 98.453 126.795V137.176C98.453 138.937 99.8858 140.37 101.647 140.37C103.408 140.37 104.841 138.937 104.841 137.176V126.795C104.841 126.324 105.092 125.889 105.498 125.652C107.861 124.28 109.329 121.733 109.329 119.007Z" fill="white"/>
</svg>
