<svg width="320" height="270" viewBox="0 0 320 270" fill="none" xmlns="http://www.w3.org/2000/svg">
<path opacity="0.36" d="M64.8161 266.24C70.4327 266.831 76.345 267.422 82.2572 267.717C132.216 270.967 184.539 269.785 229.472 246.74C264.946 228.421 292.437 198.285 307.514 161.648C322.59 124.716 324.068 83.9427 311.652 46.1241C306.627 30.7604 298.35 15.1011 284.752 6.82834C273.223 -0.262628 258.738 -1.44446 245.435 1.51011C232.133 4.46469 220.013 10.9647 208.779 18.6466C170.054 45.2378 140.493 85.1245 99.1071 106.693C73.6845 119.988 43.2364 126.193 24.6129 149.534C7.76297 170.216 -6.42641 201.239 3.03318 227.83C8.35419 242.603 21.3611 253.535 36.1417 259.444C45.3057 262.99 55.0609 265.058 64.8161 266.24Z" fill="#E8E4FF"/>
<g opacity="0.68">
<path d="M233.019 249.989C229.472 249.989 226.811 247.034 226.811 243.784C226.811 240.534 229.767 237.58 233.019 237.58C236.271 237.58 239.227 240.534 239.227 243.784C239.227 247.034 236.566 249.989 233.019 249.989ZM233.019 240.239C231.245 240.239 229.767 241.716 229.767 243.489C229.767 245.262 231.245 246.739 233.019 246.739C234.793 246.739 236.271 245.262 236.271 243.489C236.271 241.716 234.793 240.239 233.019 240.239Z" fill="#534898"/>
</g>
<g opacity="0.68">
<path d="M228.289 14.8051C224.742 14.8051 222.082 11.8506 222.082 8.60054C222.082 5.05505 225.038 2.39594 228.289 2.39594C231.541 2.39594 234.497 5.35051 234.497 8.60054C234.497 12.146 231.837 14.8051 228.289 14.8051ZM228.289 5.05505C226.516 5.05505 225.038 6.53233 225.038 8.30508C225.038 10.0778 226.516 11.5551 228.289 11.5551C230.063 11.5551 231.541 10.0778 231.541 8.30508C231.541 6.82779 230.063 5.05505 228.289 5.05505Z" fill="#534898"/>
</g>
<g opacity="0.68">
<path d="M286.08 120.217C282.532 120.217 279.872 117.262 279.872 114.012C279.872 110.762 282.828 107.807 286.08 107.807C289.331 107.807 292.288 110.762 292.288 114.012C292.288 117.262 289.627 120.217 286.08 120.217ZM286.08 110.762C284.306 110.762 282.828 112.239 282.828 114.012C282.828 115.785 284.306 117.262 286.08 117.262C287.853 117.262 289.331 115.785 289.331 114.012C289.331 112.239 287.853 110.762 286.08 110.762Z" fill="#534898"/>
</g>
<g opacity="0.68">
<path d="M62.4503 201.534C58.9029 201.534 56.2424 198.58 56.2424 195.329C56.2424 192.079 59.1986 189.125 62.4503 189.125C65.702 189.125 68.6582 192.079 68.6582 195.329C68.6582 198.58 65.9976 201.534 62.4503 201.534ZM62.4503 192.079C60.6766 192.079 59.1986 193.557 59.1986 195.329C59.1986 197.102 60.6766 198.579 62.4503 198.579C64.224 198.579 65.702 197.102 65.702 195.329C65.702 193.557 64.224 192.079 62.4503 192.079Z" fill="#534898"/>
</g>
<g opacity="0.68">
<path d="M136.651 233.443V238.171H141.381V239.353H136.651V244.375H135.468V239.353H130.739V238.171H135.468V233.443H136.651Z" fill="#534898"/>
<path d="M137.24 244.966H134.58V240.239H129.85V237.58H134.58V232.557H137.24V237.58H141.97V240.239H137.24V244.966Z" fill="#534898"/>
</g>
<g opacity="0.68">
<path d="M268.108 162.954V167.682H272.837V168.864H268.108V173.886H266.925V168.864H262.195V167.682H266.925V162.954H268.108Z" fill="#534898"/>
<path d="M268.699 174.477H266.039V169.75H261.309V167.091H266.039V162.068H268.699V167.091H273.429V169.75H268.699V174.477Z" fill="#534898"/>
</g>
<g opacity="0.68">
<path d="M148.877 83.7053V88.4326H153.607V89.6145H148.877V94.6372H147.694V89.6145H142.965V88.4326H147.694V83.7053H148.877Z" fill="#534898"/>
<path d="M149.468 95.2282H146.808V90.5009H142.078V87.8417H146.808V82.8189H149.468V87.8417H154.198V90.5009H149.468V95.2282Z" fill="#534898"/>
</g>
<g clip-path="url(#clip0_6_10935)">
<path d="M175.135 125.606H133.786L126.387 117.787C123.232 114.352 119.626 112.682 115.364 112.682H97.5946C91.4151 112.682 86.3877 117.71 86.3877 123.889V193.352C86.3877 199.532 91.4151 204.559 97.5946 204.559H175.135C181.314 204.559 186.342 199.532 186.342 193.352V136.813C186.342 130.633 181.314 125.606 175.135 125.606ZM183.313 193.352C183.313 197.862 179.644 201.53 175.135 201.53H97.5946C93.0852 201.53 89.4166 197.862 89.4166 193.352V146.505C89.4166 141.996 93.0852 138.327 97.5946 138.327H175.135C179.644 138.327 183.313 141.996 183.313 146.505V193.352ZM175.135 135.298H97.5946C94.3711 135.298 91.4631 136.668 89.4166 138.854V123.889C89.4166 119.38 93.0852 115.711 97.5946 115.711H115.364C118.781 115.711 121.577 117.025 124.164 119.844C124.169 119.849 124.174 119.855 124.18 119.861L132.034 128.161C132.32 128.463 132.718 128.635 133.134 128.635H175.135C179.644 128.635 183.313 132.303 183.313 136.813V138.854C181.266 136.668 178.358 135.298 175.135 135.298Z" fill="#534898"/>
<path d="M173.519 144.991H152.519C151.682 144.991 151.004 145.669 151.004 146.505C151.004 147.342 151.682 148.02 152.519 148.02H173.519C174.356 148.02 175.034 147.342 175.034 146.505C175.034 145.669 174.356 144.991 173.519 144.991Z" fill="#534898"/>
<path d="M173.519 153.068H152.519C151.682 153.068 151.004 153.746 151.004 154.582C151.004 155.419 151.682 156.097 152.519 156.097H173.519C174.356 156.097 175.034 155.419 175.034 154.582C175.034 153.746 174.356 153.068 173.519 153.068Z" fill="#534898"/>
</g>
<g clip-path="url(#clip1_6_10935)">
<path d="M257.353 106.311C256.722 106.141 256.074 106.516 255.905 107.146L246.372 142.726C245.852 144.666 243.851 145.82 241.911 145.301L195.464 132.856C194.524 132.604 193.739 132.001 193.252 131.159C192.799 130.375 192.66 129.47 192.846 128.591H234.414C235.067 128.591 235.596 128.062 235.596 127.409C235.596 126.756 235.067 126.227 234.414 126.227H191.364C189.355 126.227 187.721 124.593 187.721 122.585V87.0469H194.103C197.317 87.0469 199.933 84.4316 199.933 81.2168C199.933 78.0021 197.317 75.3867 194.103 75.3867H192.08C191.428 75.3867 190.899 75.9157 190.899 76.5685C190.899 77.2213 191.428 77.7503 192.08 77.7503H194.103C196.014 77.7503 197.569 79.3053 197.569 81.2168C197.569 83.1283 196.014 84.6834 194.103 84.6834H187.721V73.1206C187.721 71.112 189.355 69.478 191.364 69.478H197.911C198.563 69.478 199.092 68.9491 199.092 68.2963C199.092 67.6435 198.563 67.1145 197.911 67.1145H191.364C188.052 67.1143 185.357 69.8088 185.357 73.1206V75.4929C182.669 76.0101 180.63 78.3793 180.63 81.2168C180.63 84.0543 182.669 86.4237 185.357 86.9408V122.585C185.357 125.589 187.574 128.084 190.457 128.522C190.274 129.839 190.53 131.171 191.205 132.34C192.008 133.73 193.303 134.724 194.852 135.139L241.299 147.584C241.818 147.723 242.339 147.789 242.852 147.789C245.503 147.789 247.937 146.017 248.655 143.337L258.188 107.758C258.357 107.128 257.983 106.48 257.353 106.311V106.311ZM182.994 81.2168C182.994 79.6909 183.985 78.3932 185.357 77.9312V84.5023C183.985 84.0406 182.994 82.7427 182.994 81.2168Z" fill="#534898"/>
<path d="M260.5 92.3317C259.701 90.9473 258.412 89.9555 256.869 89.5378L246.834 86.5575V73.1191C246.834 69.8073 244.14 67.113 240.828 67.113H203.375C202.722 67.113 202.193 67.6419 202.193 68.2948C202.193 68.9476 202.722 69.4765 203.375 69.4765H240.828C242.836 69.4765 244.47 71.1105 244.47 73.1191V122.583C244.47 124.592 242.836 126.226 240.828 126.226H239.824C239.171 126.226 238.642 126.755 238.642 127.408C238.642 128.06 239.171 128.589 239.824 128.589H240.828C244.14 128.589 246.834 125.895 246.834 122.583V89.023L256.211 91.8078C256.221 91.8109 256.231 91.8137 256.242 91.8164C257.181 92.0684 257.967 92.6711 258.453 93.5136C258.94 94.3561 259.069 95.3378 258.817 96.2775L257.33 101.827C257.162 102.457 257.536 103.105 258.166 103.274C258.268 103.302 258.372 103.315 258.473 103.315C258.995 103.315 259.472 102.966 259.613 102.438L261.1 96.8894C261.516 95.3397 261.302 93.7213 260.5 92.3317V92.3317Z" fill="#534898"/>
<path d="M202.64 103.76H229.552C230.205 103.76 230.733 103.231 230.733 102.578C230.733 101.925 230.205 101.396 229.552 101.396H202.64C201.987 101.396 201.458 101.925 201.458 102.578C201.458 103.231 201.987 103.76 202.64 103.76V103.76Z" fill="#534898"/>
<path d="M202.64 89.6032H229.552C230.205 89.6032 230.733 89.0742 230.733 88.4214C230.733 87.7686 230.205 87.2397 229.552 87.2397H202.64C201.987 87.2397 201.458 87.7686 201.458 88.4214C201.458 89.0742 201.987 89.6032 202.64 89.6032V89.6032Z" fill="#534898"/>
<path d="M206.339 94.318C205.686 94.318 205.157 94.8469 205.157 95.4998C205.157 96.1526 205.686 96.6815 206.339 96.6815H225.853C226.506 96.6815 227.035 96.1526 227.035 95.4998C227.035 94.8469 226.506 94.318 225.853 94.318H206.339Z" fill="#534898"/>
<path d="M203.139 109.735V111.626C203.139 112.279 203.668 112.808 204.32 112.808C204.973 112.808 205.502 112.279 205.502 111.626V109.735C205.502 109.083 204.973 108.554 204.32 108.554C203.668 108.554 203.139 109.083 203.139 109.735Z" fill="#534898"/>
<path d="M211.181 113.195C211.181 116.151 213.386 118.555 216.096 118.555C218.806 118.555 221.011 116.151 221.011 113.195C221.011 109.49 217.566 109.49 216.096 109.49C214.625 109.49 211.181 109.49 211.181 113.195V113.195ZM218.647 113.195C218.647 114.847 217.503 116.191 216.096 116.191C214.689 116.191 213.544 114.847 213.544 113.195C213.544 112.265 213.648 111.853 216.096 111.853C218.544 111.853 218.647 112.265 218.647 113.195Z" fill="#534898"/>
<path d="M226.69 109.735V111.626C226.69 112.279 227.219 112.808 227.871 112.808C228.524 112.808 229.053 112.279 229.053 111.626V109.735C229.053 109.083 228.524 108.554 227.871 108.554C227.219 108.554 226.69 109.083 226.69 109.735Z" fill="#534898"/>
</g>
<defs>
<clipPath id="clip0_6_10935">
<rect width="120.659" height="120.659" fill="white" transform="translate(86.3877 107.807)"/>
</clipPath>
<clipPath id="clip1_6_10935">
<rect width="80.677" height="80.677" fill="white" transform="translate(180.63 67.1119)"/>
</clipPath>
</defs>
</svg>
