<svg width="213" height="213" viewBox="0 0 213 213" fill="none" xmlns="http://www.w3.org/2000/svg">
<path d="M175.65 81.3456C179.88 87.2734 180.476 95.1374 179.815 102.594C178.163 120.731 170.106 137.669 157.086 150.374C144.067 163.079 126.937 170.721 108.765 171.931L108.8 172.471L108.765 171.931C85.7507 173.417 63.4532 164.397 42.9169 153.809C40.5503 152.577 38.183 151.339 35.8987 149.996C31.9671 147.766 28.337 145.041 25.0976 141.888C20.0866 136.808 16.5906 129.938 17.0517 122.886C17.4632 116.549 20.4993 110.763 24.8055 105.845C29.1318 101.041 34.2963 97.0647 40.0479 94.109C46.0579 90.9891 52.5174 90.1273 59.1609 89.9372C61.9123 89.8592 64.6831 89.8957 67.4693 89.9291C68.0475 89.9373 68.626 89.9447 69.2046 89.9514C72.5644 89.9899 75.9314 89.9932 79.2533 89.7567L79.2144 89.217L79.2533 89.7567C90.1313 88.978 100.517 85.7022 110.806 82.1303C112.277 81.6205 113.745 81.1057 115.211 80.5862C124.032 77.4849 132.823 74.3923 141.904 72.6535C148.022 71.4691 154.326 70.9456 160.35 72.1379C166.374 73.3302 172.132 76.4094 175.65 81.3456Z" stroke="#E95631"/>
<path d="M38.9916 134.174C41.2078 135.659 43.5096 137.04 45.799 138.408C65.6933 150.186 87.5289 160.565 110.751 160.427C129.093 160.283 146.768 153.613 160.61 141.612C174.452 129.61 183.555 113.062 186.29 94.9307C187.396 87.4903 187.285 79.4458 183.305 73.112C179.993 67.8317 174.285 64.3597 168.244 62.7903C162.202 61.221 155.801 61.3839 149.591 62.2103C128.105 65.0305 107.756 75.3266 86.1015 75.6027C72.8738 75.7701 59.0788 72.0737 46.4922 77.6888C35.3247 82.6898 23.138 92.5842 21.5314 105.491C20.6244 112.699 23.8067 119.904 28.5733 125.346C31.6541 128.723 35.1556 131.69 38.9916 134.174Z" fill="#FCD0C4"/>
<g clip-path="url(#clip0_232_9490)">
<path d="M106.981 138.996C96.8041 138.996 86.6233 138.996 76.4425 138.996C70.981 138.996 66.7119 134.616 67.0121 129.233C67.0996 127.709 67.527 126.223 68.2628 124.886C77.7877 108.23 87.3571 91.5949 96.9709 74.9806C97.6338 73.8364 98.2675 72.6755 98.9637 71.5564C102.716 65.5098 111.362 65.4555 114.994 71.5773C119.909 79.858 124.645 88.2431 129.452 96.5822C134.85 105.95 140.244 115.319 145.636 124.69C149.388 131.258 144.965 138.967 137.415 138.988C127.272 139.017 117.124 138.996 106.981 138.996ZM106.981 134.307C116.953 134.307 126.921 134.328 136.894 134.282C137.929 134.303 138.956 134.083 139.891 133.639C142.439 132.298 142.972 129.463 141.384 126.703C135.203 115.985 129.024 105.267 122.848 94.5486C118.957 87.8004 115.066 81.0551 111.175 74.3124C110.874 73.7217 110.45 73.2026 109.931 72.7904C109.413 72.3783 108.812 72.0828 108.169 71.9239C105.701 71.3476 103.942 72.2788 102.412 74.9346C92.4725 92.1948 82.5348 109.455 72.5986 126.715C72.2017 127.357 71.9195 128.064 71.7648 128.803C71.2603 131.902 73.5074 134.294 76.8719 134.299C86.9082 134.312 96.9459 134.315 106.985 134.307H106.981Z" fill="#534898"/>
<path d="M104.705 90.5267H109.228V113.911H104.705V90.5267Z" fill="#534898"/>
<path d="M110.125 121.812C110.126 122.433 109.942 123.04 109.598 123.556C109.254 124.072 108.764 124.474 108.192 124.711C107.619 124.948 106.989 125.009 106.381 124.887C105.774 124.764 105.216 124.464 104.78 124.023C104.343 123.583 104.047 123.023 103.928 122.413C103.81 121.804 103.876 121.173 104.116 120.601C104.356 120.029 104.761 119.542 105.279 119.2C105.796 118.859 106.403 118.679 107.023 118.684C107.846 118.694 108.633 119.028 109.213 119.613C109.793 120.198 110.12 120.988 110.125 121.812Z" fill="#534898"/>
</g>
<defs>
<clipPath id="clip0_232_9490">
<rect width="80" height="72" fill="white" transform="translate(67 67)"/>
</clipPath>
</defs>
</svg>
