<svg width="334" height="299" viewBox="0 0 334 299" fill="none" xmlns="http://www.w3.org/2000/svg">
<path d="M290.7 170.468C292.035 182.79 286.363 194.955 279.166 205.469C261.595 231.002 235.519 249.418 205.609 257.416C175.7 265.414 143.912 262.473 115.938 249.119L115.541 249.949L115.938 249.119C80.5507 232.138 54.9857 200.165 33.3403 167.335C30.8561 163.534 28.3751 159.724 26.1059 155.826C22.1311 149.24 19.0165 142.17 16.8385 134.791C13.6378 123.076 14.178 109.967 20.7409 99.8886C26.6345 90.8287 35.9627 84.7749 46.4524 81.0673C56.8767 77.5458 67.8548 75.9508 78.853 76.3601C90.3716 76.741 100.675 80.8474 110.691 86.1037C114.838 88.2816 118.919 90.6458 123.026 93.0179C123.877 93.5121 124.729 94.0054 125.582 94.4978C130.535 97.3558 135.528 100.168 140.654 102.586L141.047 101.753L140.654 102.586C157.444 110.499 175.585 114.297 193.831 117.575C196.438 118.044 199.045 118.504 201.653 118.955C217.327 121.707 232.95 124.447 247.874 129.438C257.939 132.78 267.73 137.259 275.674 144.05C283.618 150.841 289.595 160.211 290.7 170.468Z" stroke="#E95631"/>
<path d="M43.8891 134.929C45.9397 138.98 48.2035 142.948 50.4603 146.886C70.1606 180.947 93.9075 214.552 128.479 233.705C155.816 248.783 187.603 253.621 218.146 247.353C248.689 241.084 275.993 224.119 295.167 199.496C303.009 189.377 309.552 177.349 308.926 164.633C308.415 154.037 302.84 144.127 295.183 136.761C287.526 129.396 277.894 124.302 267.989 120.351C233.758 106.624 194.98 104.936 162.619 87.2939C142.853 76.515 125.465 59.5299 102.108 57.3687C81.3685 55.4793 55.0374 60.0011 41.894 77.8122C34.5384 87.7524 33.2539 101.096 35.7898 113.145C37.5463 120.723 40.2684 128.044 43.8891 134.929Z" fill="#FCD0C4"/>
<path d="M169.382 84.3604C168.471 83.9359 167.398 84.3478 166.982 85.2741C166.567 86.1987 166.969 87.2905 167.88 87.7132C175.262 91.1308 180.113 98.7844 180.238 107.208C180.299 111.359 179.229 115.401 177.141 118.896C176.622 119.765 176.895 120.898 177.75 121.425C178.044 121.607 178.368 121.693 178.689 121.693C179.301 121.693 179.898 121.378 180.239 120.806C182.68 116.72 183.933 111.998 183.861 107.154C183.714 97.3131 178.03 88.3662 169.382 84.3604Z" fill="#534898"/>
<path d="M200.904 109.187C200.904 109.187 200.904 109.187 200.904 109.185C200.558 86.2456 182.125 67.8544 159.808 68.0009C149.189 68.1107 139.217 72.4119 131.729 80.1097C123.961 88.095 119.778 98.7262 119.948 110.046C120.274 131.574 134.156 148.328 153.319 150.836L152.692 152.539C152.17 154.233 152.383 155.844 153.293 157.08C154.217 158.335 155.734 159.027 157.565 159.027H158.556V216.125C158.556 217.161 159.393 218 160.427 218C161.46 218 162.298 217.161 162.298 216.125V159.027H163.045C164.842 159.027 166.343 158.338 167.271 157.09C168.18 155.866 168.417 154.215 167.861 152.382L167.204 150.772C186.897 147.802 201.222 130.363 200.904 109.187ZM164.38 147.334C163.787 147.385 163.255 147.715 162.944 148.224C162.635 148.733 162.584 149.359 162.81 149.912L164.337 153.629C164.49 154.142 164.465 154.587 164.27 154.85C164.065 155.125 163.63 155.277 163.045 155.277H157.565C156.961 155.277 156.501 155.123 156.304 154.854C156.12 154.605 156.108 154.165 156.235 153.742L157.666 149.857C157.871 149.302 157.802 148.681 157.481 148.185C157.158 147.689 156.622 147.374 156.033 147.335C137.6 146.132 123.998 130.427 123.69 109.991C123.535 99.6747 127.34 89.9938 134.408 82.7281C141.196 75.7499 150.231 71.8516 159.847 71.7509C159.973 71.7491 160.097 71.7491 160.223 71.7491C180.313 71.7491 196.849 88.4886 197.162 109.243C197.464 129.317 183.371 145.691 164.38 147.334Z" fill="#534898"/>
<path d="M102.898 88.4545C103.965 88.4545 104.831 87.5944 104.831 86.5315V80.1503H111.192C112.26 80.1503 113.125 79.2902 113.125 78.2273C113.125 77.1644 112.26 76.3043 111.192 76.3043H104.831V69.923C104.831 68.8601 103.965 68 102.898 68C101.831 68 100.966 68.8601 100.966 69.923V76.3043H94.6029C93.5357 76.3043 92.6704 77.1644 92.6704 78.2273C92.6704 79.2902 93.5357 80.1503 94.6029 80.1503H100.966V86.5315C100.966 87.5944 101.831 88.4545 102.898 88.4545Z" fill="#534898"/>
<path d="M217.528 88.4545C218.55 88.4545 219.38 87.5944 219.38 86.5315V80.1503H225.477C226.5 80.1503 227.329 79.2902 227.329 78.2273C227.329 77.1644 226.5 76.3043 225.477 76.3043H219.38V69.923C219.38 68.8601 218.55 68 217.528 68C216.505 68 215.676 68.8601 215.676 69.923V76.3043H209.579C208.556 76.3043 207.727 77.1644 207.727 78.2273C207.727 79.2902 208.556 80.1503 209.579 80.1503H215.676V86.5315C215.676 87.5944 216.505 88.4545 217.528 88.4545Z" fill="#534898"/>
<path d="M233.123 114.875C233.121 114.875 233.12 114.875 233.119 114.875C232.082 114.875 231.24 115.715 231.238 116.753C231.227 123.519 228.28 128.457 221.967 132.296C220.25 133.342 216.332 134.654 212.876 135.81C210.331 136.663 207.928 137.468 206.42 138.155C193.435 144.059 189.261 149.763 189.24 161.598C189.124 167.703 191.105 173.332 194.452 177.651C190.649 182.105 188.558 187.888 188.547 194.021C188.537 199.465 186.622 204.569 183.153 208.395C179.74 212.161 175.226 214.233 170.438 214.233C170.425 214.233 170.411 214.231 170.404 214.233C169.367 214.233 168.525 215.072 168.523 216.111C168.521 217.164 169.465 218.063 170.438 217.997C176.301 217.997 181.805 215.486 185.939 210.924C190.035 206.407 192.297 200.406 192.309 194.029C192.318 188.956 193.981 184.178 197.014 180.454C200.699 183.871 205.427 185.979 210.605 186.098C211.228 186.133 216.732 186.24 219.854 183.183C221.225 181.84 221.932 180.059 221.899 178.03C221.866 176.014 221.108 174.25 219.705 172.924C216.498 169.894 210.991 170.022 210.455 170.052C210.442 170.052 210.429 170.052 210.417 170.052C205.553 170.052 200.936 171.779 197.142 174.975C194.473 171.359 192.905 166.694 193.002 161.638C193.02 151.23 196.239 146.918 207.976 141.581C209.307 140.975 211.621 140.201 214.07 139.381C217.891 138.1 221.843 136.777 223.922 135.513C231.362 130.988 234.986 124.853 235 116.761C235.002 115.72 234.162 114.877 233.123 114.875ZM210.504 173.814C210.512 173.814 210.52 173.814 210.529 173.814C211.689 173.768 215.369 174.003 217.123 175.661C217.799 176.299 218.121 177.073 218.138 178.093C218.154 179.1 217.865 179.861 217.228 180.487C215.559 182.127 211.983 182.378 210.72 182.336C206.521 182.239 202.682 180.544 199.659 177.778C202.763 175.205 206.514 173.814 210.504 173.814Z" fill="#534898"/>
<path d="M96.0785 135.512C98.1568 136.776 102.109 138.1 105.93 139.381C108.379 140.2 110.693 140.974 112.024 141.58C123.76 146.917 126.979 151.229 126.998 161.67C127.095 166.709 125.528 171.362 122.859 174.974C119.069 171.78 114.465 170.052 109.67 170.052C109.655 170.052 109.641 170.052 109.626 170.052C109.009 170.024 103.505 169.89 100.295 172.923C98.8924 174.248 98.1338 176.012 98.1008 178.028C98.0677 180.057 98.7758 181.838 100.147 183.181C103.271 186.24 108.782 186.111 109.367 186.098C114.559 185.977 119.296 183.869 122.985 180.45C126.019 184.176 127.683 188.954 127.692 194.026C127.703 200.404 129.965 206.404 134.06 210.922C138.196 215.483 143.699 217.993 149.562 217.993C150.594 218.087 151.479 217.161 151.477 216.108C151.475 215.069 150.633 214.23 149.596 214.23C149.582 214.23 149.573 214.23 149.562 214.23C144.775 214.23 140.259 212.157 136.846 208.393C133.379 204.566 131.463 199.463 131.454 194.019C131.443 187.886 129.351 182.103 125.549 177.65C128.898 173.336 130.877 167.718 130.759 161.629C130.738 149.762 126.564 144.058 113.581 138.155C112.072 137.467 109.669 136.662 107.124 135.81C103.668 134.654 99.7502 133.341 98.0328 132.296C91.7198 128.457 88.7736 123.518 88.7617 116.753C88.7599 115.715 87.9186 114.875 86.8809 114.875C86.8799 114.875 86.879 114.875 86.8772 114.875C85.8385 114.877 84.9982 115.72 85 116.761C85.0147 124.853 88.6377 130.987 96.0785 135.512ZM109.252 182.336C108.109 182.365 104.457 182.134 102.778 180.491C102.137 179.864 101.846 179.1 101.862 178.091C101.879 177.072 102.2 176.302 102.872 175.665C104.491 174.128 107.72 173.808 109.233 173.808C109.351 173.808 109.458 173.81 109.553 173.814C109.563 173.814 109.573 173.814 109.583 173.814C113.504 173.814 117.241 175.203 120.34 177.775C117.312 180.54 113.465 182.239 109.252 182.336Z" fill="#534898"/>
</svg>
