<svg width="304" height="272" viewBox="0 0 304 272" fill="none" xmlns="http://www.w3.org/2000/svg">
<path d="M264.689 154.688C265.905 165.912 260.739 176.994 254.183 186.572C238.176 209.832 214.423 226.607 187.177 233.893C159.931 241.179 130.973 238.499 105.491 226.334L105.129 227.091L105.491 226.334C73.2548 210.866 49.9665 181.741 30.2486 151.834C27.9856 148.371 25.7256 144.901 23.6585 141.35C20.0377 135.35 17.2004 128.91 15.2164 122.188C12.3007 111.517 12.7928 99.5752 18.7713 90.3938C24.14 82.1408 32.6375 76.6261 42.193 73.2486C51.689 70.0407 61.6895 68.5878 71.7083 68.9606C82.2011 69.3076 91.5866 73.0483 100.711 77.8365C104.489 79.8205 108.207 81.9741 111.947 84.135C112.722 84.5852 113.499 85.0346 114.276 85.483C118.788 88.0866 123.336 90.648 128.006 92.851L128.363 92.092L128.006 92.851C143.301 100.06 159.826 103.519 176.447 106.505C178.822 106.932 181.197 107.351 183.573 107.762C197.851 110.269 212.083 112.766 225.677 117.311C234.846 120.356 243.765 124.437 251.002 130.623C258.238 136.809 263.683 145.344 264.689 154.688Z" stroke="#E95631"/>
<path d="M39.858 122.313C41.726 126.004 43.7882 129.619 45.844 133.206C63.7899 164.234 85.4221 194.846 116.915 212.294C141.817 226.029 170.774 230.436 198.597 224.726C226.42 219.015 251.293 203.561 268.759 181.131C275.903 171.913 281.862 160.956 281.293 149.372C280.827 139.72 275.748 130.692 268.774 123.983C261.799 117.273 253.024 112.633 244.001 109.034C212.819 96.5293 177.494 94.9922 148.015 78.9207C130.008 69.1016 114.169 53.6291 92.8924 51.6604C73.9997 49.9393 50.0135 54.0584 38.0405 70.2834C31.34 79.3383 30.1699 91.4939 32.4799 102.47C34.08 109.373 36.5597 116.042 39.858 122.313Z" fill="#FCD0C4"/>
<path d="M154.175 76.2484C153.346 75.8617 152.369 76.237 151.989 77.0808C151.611 77.923 151.978 78.9176 152.807 79.3027C159.532 82.416 163.951 89.388 164.065 97.0613C164.121 100.843 163.146 104.525 161.244 107.709C160.771 108.5 161.019 109.532 161.799 110.012C162.066 110.178 162.362 110.257 162.654 110.257C163.211 110.257 163.755 109.97 164.066 109.449C166.289 105.726 167.43 101.425 167.365 97.0122C167.231 88.0477 162.054 79.8975 154.175 76.2484Z" fill="#534898"/>
<path d="M182.891 98.8641C182.891 98.8641 182.891 98.8641 182.891 98.8625C182.575 77.9657 165.784 61.2123 145.454 61.3457C135.781 61.4458 126.697 65.3639 119.876 72.3762C112.8 79.6504 108.989 89.3348 109.144 99.6464C109.44 119.257 122.087 134.519 139.543 136.805L138.972 138.356C138.497 139.899 138.691 141.367 139.52 142.492C140.361 143.635 141.743 144.266 143.411 144.266H144.314V196.279C144.314 197.223 145.077 197.987 146.018 197.987C146.959 197.987 147.722 197.223 147.722 196.279V144.266H148.403C150.04 144.266 151.407 143.638 152.252 142.501C153.08 141.387 153.297 139.882 152.79 138.212L152.192 136.746C170.131 134.041 183.18 118.155 182.891 98.8641ZM149.619 133.614C149.079 133.66 148.594 133.961 148.311 134.424C148.029 134.888 147.983 135.459 148.189 135.962L149.58 139.348C149.719 139.815 149.697 140.221 149.519 140.461C149.332 140.711 148.936 140.849 148.403 140.849H143.411C142.861 140.849 142.442 140.709 142.262 140.464C142.095 140.237 142.083 139.837 142.199 139.452L143.503 135.912C143.689 135.407 143.627 134.841 143.334 134.389C143.04 133.937 142.552 133.65 142.015 133.615C125.224 132.519 112.833 118.213 112.553 99.5964C112.411 90.1989 115.878 81.3801 122.316 74.7615C128.5 68.4047 136.73 64.8535 145.489 64.7618C145.604 64.7601 145.717 64.7601 145.832 64.7601C164.134 64.7601 179.196 80.0089 179.482 98.9153C179.757 117.201 166.919 132.117 149.619 133.614Z" fill="#534898"/>
<path d="M93.6123 79.9779C94.5845 79.9779 95.3728 79.1944 95.3728 78.2262V72.4132H101.168C102.14 72.4132 102.928 71.6297 102.928 70.6614C102.928 69.6932 102.14 68.9097 101.168 68.9097H95.3728V63.0967C95.3728 62.1284 94.5845 61.3449 93.6123 61.3449C92.6402 61.3449 91.8519 62.1284 91.8519 63.0967V68.9097H86.0558C85.0836 68.9097 84.2954 69.6932 84.2954 70.6614C84.2954 71.6297 85.0836 72.4132 86.0558 72.4132H91.8519V78.2262C91.8519 79.1944 92.6402 79.9779 93.6123 79.9779Z" fill="#534898"/>
<path d="M198.034 79.9779C198.966 79.9779 199.721 79.1944 199.721 78.2262V72.4132H205.276C206.207 72.4132 206.963 71.6297 206.963 70.6614C206.963 69.6932 206.207 68.9097 205.276 68.9097H199.721V63.0967C199.721 62.1284 198.966 61.3449 198.034 61.3449C197.102 61.3449 196.347 62.1284 196.347 63.0967V68.9097H190.793C189.861 68.9097 189.106 69.6932 189.106 70.6614C189.106 71.6297 189.861 72.4132 190.793 72.4132H196.347V78.2262C196.347 79.1944 197.102 79.9779 198.034 79.9779Z" fill="#534898"/>
<path d="M212.24 104.046C212.239 104.046 212.238 104.046 212.237 104.046C211.292 104.046 210.525 104.811 210.524 105.757C210.513 111.919 207.829 116.418 202.078 119.915C200.514 120.868 196.945 122.063 193.796 123.117C191.478 123.893 189.289 124.627 187.915 125.253C176.087 130.63 172.285 135.827 172.265 146.607C172.159 152.169 173.964 157.297 177.013 161.232C173.549 165.288 171.644 170.557 171.634 176.144C171.625 181.103 169.88 185.752 166.72 189.238C163.611 192.668 159.499 194.555 155.137 194.555C155.126 194.555 155.113 194.553 155.106 194.555C154.162 194.555 153.395 195.32 153.393 196.266C153.391 197.225 154.251 198.044 155.137 197.984C160.478 197.984 165.492 195.697 169.259 191.542C172.99 187.426 175.05 181.96 175.06 176.151C175.069 171.53 176.584 167.177 179.347 163.785C182.704 166.897 187.011 168.817 191.727 168.926C192.295 168.958 197.309 169.055 200.153 166.271C201.402 165.047 202.046 163.425 202.016 161.577C201.986 159.74 201.295 158.133 200.017 156.926C197.096 154.165 192.08 154.282 191.591 154.309C191.579 154.309 191.568 154.309 191.557 154.309C187.125 154.309 182.92 155.883 179.464 158.794C177.032 155.499 175.604 151.25 175.692 146.644C175.709 137.163 178.641 133.235 189.333 128.374C190.545 127.821 192.653 127.116 194.884 126.37C198.365 125.203 201.965 123.997 203.858 122.845C210.637 118.723 213.937 113.135 213.95 105.763C213.952 104.816 213.187 104.047 212.24 104.046ZM191.635 157.736C191.643 157.736 191.65 157.736 191.658 157.736C192.715 157.694 196.068 157.908 197.665 159.418C198.281 159.999 198.574 160.704 198.589 161.633C198.604 162.551 198.341 163.244 197.761 163.815C196.24 165.308 192.983 165.538 191.832 165.499C188.007 165.41 184.51 163.867 181.757 161.347C184.584 159.003 188.001 157.736 191.635 157.736Z" fill="#534898"/>
<path d="M87.4 122.845C89.2932 123.997 92.8931 125.202 96.3742 126.369C98.6054 127.116 100.713 127.82 101.926 128.373C112.617 133.235 115.549 137.162 115.566 146.673C115.655 151.264 114.227 155.503 111.796 158.792C108.343 155.883 104.149 154.309 99.7809 154.309C99.7675 154.309 99.7549 154.309 99.7415 154.309C99.1793 154.284 94.1648 154.162 91.2408 156.924C89.9634 158.131 89.2723 159.738 89.2422 161.575C89.2121 163.423 89.8571 165.045 91.1062 166.269C93.9523 169.055 98.9719 168.938 99.5048 168.926C104.235 168.816 108.55 166.895 111.911 163.781C114.674 167.175 116.19 171.528 116.198 176.148C116.208 181.958 118.269 187.424 121.999 191.539C125.766 195.694 130.78 197.981 136.121 197.981C137.061 198.066 137.867 197.223 137.865 196.263C137.864 195.317 137.097 194.552 136.152 194.552C136.139 194.552 136.131 194.552 136.121 194.552C131.76 194.552 127.646 192.664 124.538 189.235C121.379 185.75 119.633 181.101 119.625 176.142C119.615 170.555 117.709 165.286 114.246 161.23C117.297 157.301 119.1 152.183 118.993 146.636C118.973 135.826 115.171 130.63 103.344 125.252C101.969 124.626 99.78 123.893 97.4618 123.116C94.3137 122.063 90.7447 120.868 89.1803 119.915C83.4295 116.418 80.7457 111.919 80.7348 105.757C80.7331 104.811 79.9668 104.046 79.0215 104.046C79.0206 104.046 79.0198 104.046 79.0181 104.046C78.0719 104.047 77.3064 104.816 77.3081 105.763C77.3215 113.135 80.6219 118.723 87.4 122.845ZM99.4002 165.499C98.3595 165.526 95.0323 165.315 93.503 163.818C92.9191 163.247 92.6539 162.551 92.6689 161.632C92.684 160.704 92.976 160.003 93.5883 159.422C95.0633 158.022 98.0048 157.731 99.3835 157.731C99.4906 157.731 99.5876 157.733 99.6746 157.736C99.6838 157.736 99.693 157.736 99.7022 157.736C103.274 157.736 106.678 159.002 109.501 161.344C106.743 163.863 103.239 165.41 99.4002 165.499Z" fill="#534898"/>
</svg>
