<svg width="32" height="32" viewBox="0 0 32 32" fill="none" xmlns="http://www.w3.org/2000/svg">
<path d="M15.9998 18.6667C18.2132 18.6667 19.9998 16.88 19.9998 14.6667V6.66669C19.9998 4.45335 18.2132 2.66669 15.9998 2.66669C13.7865 2.66669 11.9998 4.45335 11.9998 6.66669V14.6667C11.9998 16.88 13.7865 18.6667 15.9998 18.6667ZM14.6665 6.66669C14.6665 5.93335 15.2665 5.33335 15.9998 5.33335C16.7332 5.33335 17.3332 5.93335 17.3332 6.66669V14.6667C17.3332 15.4 16.7332 16 15.9998 16C15.2665 16 14.6665 15.4 14.6665 14.6667V6.66669ZM22.6665 14.6667C22.6665 18.3467 19.6798 21.3334 15.9998 21.3334C12.3198 21.3334 9.33317 18.3467 9.33317 14.6667H6.6665C6.6665 19.3734 10.1465 23.24 14.6665 23.8934V28H17.3332V23.8934C21.8532 23.24 25.3332 19.3734 25.3332 14.6667H22.6665V14.6667Z" fill="#939393"/>
</svg>
