<svg width="40" height="40" viewBox="0 0 40 40" fill="none" xmlns="http://www.w3.org/2000/svg">
<path fill-rule="evenodd" clip-rule="evenodd" d="M4 4V8H36V4H4ZM2 0C0.895431 0 0 0.895431 0 2V10C0 11.1046 0.895431 12 2 12H2.00011C2.00011 12 2.00011 12 2.00011 12V36C2.00011 38.2092 3.79097 40 6.00011 40H34.0001C36.2092 40 38.0001 38.2092 38.0001 36V12C39.1046 12 40 11.1045 40 10V2C40 0.895431 39.1046 0 38 0H2ZM26 22H14V26H26V22ZM14 18C11.7909 18 10 19.7909 10 22V26C10 28.2092 11.7909 30 14 30H26C28.2091 30 30 28.2092 30 26V22C30 19.7909 28.2091 18 26 18H14ZM6.00011 12H34.0001V36H6.00011L6.00011 12Z" fill="#C4C4C4"/>
</svg>
