<svg width="26" height="32" viewBox="0 0 26 32" fill="none" xmlns="http://www.w3.org/2000/svg">
<path d="M24.8071 8.02143L17.1214 0.335714C16.9071 0.121429 16.6179 0 16.3143 0H1.14286C0.510714 0 0 0.510714 0 1.14286V30.8571C0 31.4893 0.510714 32 1.14286 32H24C24.6321 32 25.1429 31.4893 25.1429 30.8571V8.83214C25.1429 8.52857 25.0214 8.23571 24.8071 8.02143ZM22.5071 9.35714H15.7857V2.63571L22.5071 9.35714ZM22.5714 29.4286H2.57143V2.57143H13.3571V10.2857C13.3571 10.6835 13.5152 11.0651 13.7965 11.3464C14.0778 11.6277 14.4593 11.7857 14.8571 11.7857H22.5714V29.4286Z" fill="#939393"/>
</svg>
