<svg width="20" height="20" fill="none" xmlns="http://www.w3.org/2000/svg">
  <path d="m13.151 4.655-2.136-2.18a.667.667 0 0 0-.94-.01l-2.18 2.137a.667.667 0 0 0 .458 1.142l1.495.016-.095 9.403-1.496-.015a.661.661 0 0 0-.481 1.124l2.136 2.18c.256.261.68.265.94.01l2.18-2.137a.667.667 0 0 0-.458-1.143l-1.495-.015.095-9.403 1.495.015c.588.01.896-.701.482-1.124Z" fill="#4B4B4B"/>
  <path d="m16.298 13.092 2.159-2.159a.667.667 0 0 0 0-.94l-2.159-2.158a.667.667 0 0 0-1.138.47V9.8H5.756V8.305a.661.661 0 0 0-1.128-.47L2.469 9.993a.667.667 0 0 0 0 .94l2.159 2.159a.667.667 0 0 0 1.137-.47v-1.496h9.405v1.496a.661.661 0 0 0 1.128.47Z" fill="#4B4B4B"/>
</svg>
