<svg width="40" height="49" viewBox="0 0 40 49" fill="none" xmlns="http://www.w3.org/2000/svg">
<path d="M38.7359 12.3889L26.9672 0.736695C26.6391 0.411819 26.1961 0.227722 25.7312 0.227722H2.5C1.53203 0.227722 0.75 1.00201 0.75 1.9604V47.0099C0.75 47.9683 1.53203 48.7426 2.5 48.7426H37.5C38.468 48.7426 39.25 47.9683 39.25 47.0099V13.618C39.25 13.1578 39.0641 12.7138 38.7359 12.3889ZM35.2141 14.414H24.9219V4.2237L35.2141 14.414ZM35.3125 44.8441H4.6875V4.12624H21.2031V15.8218C21.2031 16.4249 21.4451 17.0034 21.8759 17.4298C22.3066 17.8563 22.8908 18.0959 23.5 18.0959H35.3125V44.8441ZM21.75 22.3193C21.75 22.0811 21.5531 21.8861 21.3125 21.8861H18.6875C18.4469 21.8861 18.25 22.0811 18.25 22.3193V28.1671H12.3438C12.1031 28.1671 11.9062 28.362 11.9062 28.6002V31.1993C11.9062 31.4375 12.1031 31.6324 12.3438 31.6324H18.25V37.4802C18.25 37.7184 18.4469 37.9134 18.6875 37.9134H21.3125C21.5531 37.9134 21.75 37.7184 21.75 37.4802V31.6324H27.6562C27.8969 31.6324 28.0938 31.4375 28.0938 31.1993V28.6002C28.0938 28.362 27.8969 28.1671 27.6562 28.1671H21.75V22.3193Z" fill="#939393"/>
</svg>
