<?xml version="1.0" encoding="UTF-8" standalone="no"?>
<svg width="119px" height="38px" viewBox="0 0 119 38" version="1.1" xmlns="http://www.w3.org/2000/svg" xmlns:xlink="http://www.w3.org/1999/xlink" xmlns:sketch="http://www.bohemiancoding.com/sketch/ns">
    <!-- Generator: Sketch 3.2.2 (9983) - http://www.bohemiancoding.com/sketch -->
    <title>Kinscape-Logo-alpha</title>
    <desc>Created with Sketch.</desc>
    <defs></defs>
    <g id="Welcome" stroke="none" stroke-width="1" fill="none" fill-rule="evenodd" sketch:type="MSPage">
        <g id="Desktop" sketch:type="MSArtboardGroup" transform="translate(-68.000000, -847.000000)">
            <g id="Kinscape-Logo-alpha" sketch:type="MSLayerGroup" transform="translate(68.000000, 845.000000)">
                <g id="Kinscape-Logo" transform="translate(0.000000, 3.000000)" fill="#E75739" sketch:type="MSShapeGroup">
                    <path d="M103.528671,5.66153846 C100.692253,5.66153846 97.8205131,7.83195349 97.8205131,11.9796602 C97.8205131,15.7599075 100.269542,18.4 103.775934,18.4 C107.407618,18.4 108.939408,15.7908153 108.954435,15.7645537 C109.008299,15.6805168 109.04089,15.5789049 108.895303,15.428204 L108.204836,14.7389398 C108.167561,14.7070218 108.123065,14.6876287 108.081887,14.6876287 C108.01163,14.6876287 107.965182,14.744596 107.938836,14.7926748 C107.550083,15.4538595 106.053421,16.8138032 103.899665,16.8138032 C101.148726,16.8138032 99.8078002,14.658337 99.6990972,12.522264 L99.6940233,12.4149958 L108.718295,12.4149958 C108.861735,12.4149958 108.940969,12.3331809 108.940969,12.1842982 C108.940579,7.97800804 107.018864,5.66153846 103.528671,5.66153846 L103.528671,5.66153846 L103.528671,5.66153846 Z M99.7769232,11.04 L99.7930025,10.9227132 C100.091816,8.72516129 101.540134,7.36 103.57268,7.36 C105.601015,7.36 106.928926,8.72882015 107.03823,10.9318603 L107.04359,11.04 L99.7769232,11.04 L99.7769232,11.04 Z" id="Shape"></path>
                    <path d="M95.5846152,11.9136408 C95.5846152,8.17408604 93.3279827,5.66153846 89.9693209,5.66153846 C87.9711398,5.66153846 86.4208338,6.45452397 85.8228643,7.78286924 L85.6300292,8.21091816 L85.6250127,6.04021244 C85.6250127,5.89467581 85.5680249,5.83793444 85.4215426,5.83793444 L82.4234681,5.83793444 C82.2771863,5.83793444 82.219998,5.89467581 82.219998,6.04001334 L82.219998,7.12387301 C82.219998,7.25786227 82.2884233,7.32575283 82.4234681,7.32575283 L83.8461538,7.32575283 L83.8461538,21.4414124 L82.3727009,21.4414124 C82.2264191,21.4414124 82.1692308,21.4979546 82.1692308,21.6432922 L82.1692308,22.7273509 C82.1692308,22.8613402 82.2376561,22.9292307 82.3727009,22.9292307 L87.5050045,22.9292307 C87.6512863,22.9292307 87.7084747,22.8726885 87.7084747,22.7273509 L87.7084747,21.6432922 C87.7084747,21.4981537 87.651487,21.4414124 87.5050045,21.4414124 L85.7522317,21.4414124 L85.7522317,17.0056311 C85.7522317,16.6625946 85.6773852,16.0087748 85.6765825,16.0022047 L85.6639408,15.8903148 L85.9197835,15.8903148 L85.946672,15.9506398 C86.5717307,17.368975 88.0851152,18.2159145 89.9952063,18.2159145 C93.3384177,18.2159145 95.5846152,15.6832586 95.5846152,11.9136408 M85.8025641,12.2304068 C85.8025641,8.86596158 87.7616233,7.36 89.7030228,7.36 C92.0141004,7.36 93.6282051,9.29088183 93.6282051,12.0556253 C93.6282051,14.7909754 92.0141004,16.7015385 89.7030228,16.7015385 C87.7647629,16.7015385 85.8025641,15.1655918 85.8025641,12.2304068" id="Shape"></path>
                    <path d="M78.6374278,18.1957701 L80.8476193,18.1957701 C80.994096,18.1957701 81.051282,18.1385132 81.051282,17.9913386 L81.051282,16.8937793 C81.051282,16.7468064 80.9942966,16.6893479 80.8476193,16.6893479 L79.32346,16.6893479 L79.32346,10.66507 C79.32346,7.29820013 77.6114895,5.66153846 74.0896301,5.66153846 C70.5792078,5.66153846 69.226406,7.24255605 69.2129622,7.25868477 C69.0719033,7.37924693 69.0865509,7.44517308 69.162197,7.53670354 L69.8751168,8.43164579 C69.935112,8.50704755 70.0318267,8.52055535 70.139176,8.47720942 L70.1552282,8.47075793 C70.1742903,8.45886301 70.2025823,8.43547637 70.2419103,8.4048318 C70.6083025,8.11794222 71.7235312,7.24477375 74.013382,7.24477375 C76.3040354,7.24477375 77.4176588,8.33850244 77.4176588,10.5884586 L77.4176588,11.0221195 L75.1817837,11.0221195 C72.1220278,11.0221195 68.474359,11.7043643 68.474359,14.9536962 C68.474359,17.0151479 70.1084761,18.4 72.5395865,18.4 C75.3332766,18.4 76.8231243,16.9030534 77.4624045,16.0109336 L77.6460019,15.7546887 L77.6460019,17.2256277 C77.6460019,17.9240012 77.9239062,18.1957701 78.6374278,18.1957701 L78.6374278,18.1957701 L78.6374278,18.1957701 Z M77.1384615,14.3309578 L77.1187404,14.3584358 C76.6131452,15.0627607 75.199412,16.7015385 73.0010877,16.7015385 C71.4638076,16.7015385 70.4307692,15.8586115 70.4307692,14.6041211 C70.4307692,12.6996556 72.9165963,12.4553846 75.0822454,12.4553846 L77.1384615,12.4553846 L77.1384615,14.3309578 L77.1384615,14.3309578 Z" id="Shape"></path>
                    <path d="M60.5256852,5.66153846 C57.6702126,5.66153846 54.7794872,7.83178589 54.7794872,11.9795585 C54.7794872,15.7600676 57.223418,18.4 60.7227889,18.4 C63.7508247,18.4 65.4978808,16.4974225 65.9156551,15.7643099 C65.9696055,15.6796656 66.0005734,15.5782541 65.8377485,15.4334093 L65.1416528,14.7118116 C65.0993884,14.6823174 65.050502,14.661914 65.0084325,14.661914 C64.987982,14.661914 64.9258515,14.661914 64.8475553,14.7756484 C64.4599698,15.4364396 62.9657207,16.813576 60.8462709,16.813576 C58.8020011,16.813576 56.6295748,15.1283667 56.6295748,12.0050123 C56.6295748,10.1923315 57.3683244,9.0727642 57.9884612,8.4529821 C58.7540885,7.68694112 59.7688223,7.24776045 60.7724544,7.24776045 C61.7739441,7.24776045 62.706876,7.57280263 63.3996606,8.16309054 C64.0088904,8.68206714 64.3727144,9.35336308 64.3727144,9.95880211 L64.3727144,10.3935384 C64.3727144,10.481617 64.3955021,10.5985837 64.5947482,10.5985837 L65.7045282,10.5985837 C65.846513,10.5985837 65.9022162,10.5412114 65.9022162,10.3935384 L65.9022162,6.04556903 C65.9022162,5.83890766 65.7894464,5.81506988 65.7045282,5.81506988 L64.7675062,5.81506988 C64.695053,5.81506988 64.6385708,5.83607944 64.6046814,5.87607842 C64.5651437,5.92233986 64.5635856,5.98678265 64.5690391,6.03284208 L64.5698181,7.48209788 L64.3908277,7.21685215 C64.0751111,6.74918736 63.0666098,5.66153846 60.5256852,5.66153846" id="Shape"></path>
                    <path d="M42.7337437,18.2212195 L43.7146885,18.2212195 C43.8608967,18.2212195 43.9413508,18.1394048 43.9413508,17.9905221 C43.9413508,17.9137576 43.9451252,16.9539994 43.9451252,16.9539994 L43.9467144,16.5465415 L44.1342422,16.9065266 C44.3503758,17.3220649 45.469384,18.4 48.0159074,18.4 C50.8510725,18.4 52.5435897,17.0899533 52.5435897,14.8954989 C52.5435897,12.5519597 50.2024728,11.9336015 48.1370852,11.3877656 C46.4320529,10.9372792 44.821579,10.5118424 44.821579,9.16603957 C44.821579,7.84104402 46.0848087,7.24793731 47.3367153,7.24793731 C49.7692122,7.24793731 50.5560739,8.62646599 50.5560739,9.29391305 L50.5560739,9.65208 C50.5560739,9.80076074 50.6365281,9.88257551 50.7827361,9.88257551 L51.8643976,9.88257551 C52.0173599,9.88257551 52.1160901,9.79207419 52.1160901,9.65208 L52.1160901,6.09667193 C52.1160901,5.94799123 52.0356359,5.86617644 51.8894278,5.86617644 L50.9839708,5.86617644 C50.8310086,5.86617644 50.7320797,5.95667773 50.7320797,6.09667193 C50.7320797,6.12232743 50.7352582,6.74856408 50.7352582,6.74856408 L50.7366487,7.04733956 L50.5558752,6.81199579 C49.9362788,6.00576661 48.8983207,5.66153846 47.0852215,5.66153846 C44.6177618,5.66153846 42.9600086,7.0802675 42.9600086,9.19169507 C42.9600086,11.6229074 45.3229773,12.2475279 47.4080314,12.7986162 C49.0971717,13.2454663 50.5560739,13.6311069 50.5560739,14.8700454 C50.5560739,16.1231248 49.5556611,16.8136011 47.7391848,16.8136011 C44.8599188,16.8136011 44.0806061,14.7213647 44.0730573,14.6999515 L44.0670977,14.6652054 L44.0670977,14.1537115 C44.0670977,14.0052328 43.9866435,13.923216 43.8404355,13.923216 L42.7337437,13.923216 C42.5875356,13.923216 42.5070814,14.0050307 42.5070814,14.1537115 L42.4820513,17.9911281 C42.4820513,18.1307182 42.5807814,18.2212195 42.7337437,18.2212195" id="Shape"></path>
                    <path d="M38.2069283,18.1169231 L40.5800127,18.1169231 C40.7816499,18.1169231 40.8051282,18.0009295 40.8051282,17.9135838 L40.8051282,16.8229638 C40.8051282,16.7356181 40.7816499,16.6196245 40.5800127,16.6196245 L39.0815444,16.6196245 L39.0815444,9.97413501 C39.0815444,7.31409613 37.4828495,5.66153846 34.909509,5.66153846 C32.3620143,5.66153846 31.2553773,7.06848627 30.8978757,7.67349587 L30.7066953,7.99683543 L30.7378681,6.04057096 C30.7378681,5.89612993 30.6816386,5.83903466 30.537612,5.83903466 L27.5898024,5.83903466 C27.4457758,5.83903466 27.3897436,5.89612993 27.3897436,6.04237397 L27.3897436,7.13299392 C27.3897436,7.2678189 27.4570218,7.3361329 27.5898024,7.3361329 L29.0884679,7.3361329 L29.0884679,16.6196245 L27.5898024,16.6196245 C27.4457758,16.6196245 27.3897436,16.6765195 27.3897436,16.8229638 L27.3897436,17.9135838 C27.3897436,18.0484088 27.4570218,18.1169231 27.5898024,18.1169231 L32.3862818,18.1169231 C32.5303084,18.1169231 32.5863407,18.0600282 32.5863407,17.9135838 L32.5863407,16.8229638 C32.5863407,16.6767198 32.5303084,16.6196245 32.3862818,16.6196245 L30.9623918,16.6196245 L30.9623918,9.54281528 C30.9623918,9.51977682 31.7573001,7.23476374 34.3846998,7.23476374 C36.1785212,7.23476374 37.2074233,8.41813847 37.2074233,10.4813814 L37.2074233,17.1525138 C37.2076207,17.8554868 37.478509,18.1169231 38.2069283,18.1169231" id="Shape"></path>
                    <path d="M24.9496055,17.8336475 C25.0850939,17.8336475 25.1538462,17.7657224 25.1538462,17.6320568 L25.1538462,16.5508154 C25.1538462,16.4058289 25.0965862,16.3492246 24.9496055,16.3492246 L23.4947186,16.3492246 L23.4947186,5.86312921 C23.4947186,5.77653457 23.4707259,5.66153846 23.2646707,5.66153846 L20.048032,5.66153846 C19.9008497,5.66153846 19.8435897,5.71814276 19.8435897,5.86312921 L19.8435897,6.94437063 C19.8435897,7.08935709 19.9008497,7.14576277 20.048032,7.14576277 L21.5795343,7.14576277 L21.5795343,16.3494232 L20.048032,16.3494232 C19.9008497,16.3494232 19.8435897,16.4058289 19.8435897,16.551014 L19.8435897,17.6322554 C19.8435897,17.7772419 19.9008497,17.8338462 20.048032,17.8338462 L24.9496055,17.8338462 L24.9496055,17.8336475 L24.9496055,17.8336475 Z" id="Shape"></path>
                    <path d="M17.411087,0 L11.9854397,0 C11.8566962,0 11.8132646,0.0442894676 11.8132646,0.175576104 L11.8132646,1.40223618 C11.8132646,1.53352282 11.8566962,1.57781228 11.9854397,1.57781228 L13.89604,1.57781228 L13.8673442,1.61775189 C12.2533969,3.86227884 10.6910245,5.77680971 9.22307696,7.30855304 C9.63625827,7.66721864 10.0643693,8.06523068 10.4959702,8.49230769 C10.7532634,8.22202331 11.0109444,7.94343464 11.262033,7.66405511 C12.7743815,5.98085761 14.3623475,3.94591476 15.9819176,1.6159724 L15.9287916,1.57781228 L17.411087,1.57781228 C17.5844254,1.57781228 17.6076923,1.48923335 17.6076923,1.40223618 L17.6076923,0.175576104 C17.6076923,0.0887766561 17.5844254,0 17.411087,0 L17.411087,0 Z M17.9650086,18.1169231 C18.1428253,18.1169231 18.1666667,18.0261859 18.1666667,17.9372675 L18.1666667,16.683518 C18.1666667,16.5948017 18.1428253,16.5040645 17.9650086,16.5040645 L16.2289606,16.5040645 L16.2214108,16.4933538 C15.3766322,15.2911366 13.6608494,12.946924 11.6458576,10.731037 L11.6271819,10.7124449 C9.97159849,8.88537378 8.45210947,7.50794684 7.11023858,6.61795443 L7.09871526,6.6359402 L7.0776554,6.62219826 C6.40989879,6.18286051 5.77134785,5.85285197 5.17948623,5.64106449 L5.1625986,5.63500188 L5.1625986,1.61265654 L6.82255291,1.61265654 C6.94295174,1.61265654 6.99897893,1.55566793 6.99897893,1.43320303 L6.99897893,0.17945351 C6.99897893,0.045267552 6.95447506,0 6.82255291,0 L1.2128809,0 C1.08095874,0 1.03645488,0.045267552 1.03645488,0.17945351 L1.03645488,1.43320303 C1.03645488,1.55566793 1.09248206,1.61265654 1.2128809,1.61265654 L3.27535673,1.61265654 L3.27535673,10.5538064 C3.41820617,10.5857362 3.56343976,10.6019032 3.70728259,10.6019032 C4.11755257,10.6019032 4.60709505,10.4636755 5.16279728,10.1908577 L5.16279728,7.54250377 L5.19875799,7.56028745 C5.49458947,7.70518403 5.80889799,7.88766885 6.13314041,8.10228555 L6.15420027,8.11643165 L6.15400159,8.11683583 C6.42658774,8.29770396 6.7216245,8.51292691 7.03176078,8.75664418 L7.06295322,8.78109674 C7.08540384,8.79888042 7.10785444,8.81646201 7.13050373,8.83444778 C7.24196206,8.92356827 7.36613578,9.02602653 7.50997862,9.1472789 L7.53302526,9.16667928 L7.5101773,9.18648384 C5.93962808,10.5400645 4.66014206,11.2263529 3.70728259,11.2263529 C3.16846799,11.2259487 2.70773382,11.0349762 2.33799415,10.6588918 C1.95692983,10.2712884 1.75050344,9.75495541 1.75666246,9.20467167 L1.75686114,9.19416315 L1.75666246,9.18405878 C1.75050344,8.63397719 1.95692983,8.11744209 2.33799415,7.72983868 C2.43256485,7.63364513 2.54044698,7.54492881 2.65866037,7.46571059 L2.65866037,5.51395159 C2.0707723,5.6950218 1.5309643,6.02381782 1.09585959,6.46638897 C0.380420274,7.19430737 -0.00878983601,8.16291173 0.000150671878,9.19416315 C-0.00878983601,10.2258188 0.380420274,11.1946252 1.09585959,11.9223415 C1.68255558,12.5191053 2.4285913,12.8860957 3.2531048,12.9835018 L3.27535673,12.986129 L3.27535673,16.5040645 L1.2128809,16.5040645 C1.08095874,16.5040645 1.03645488,16.549332 1.03645488,16.683518 L1.03645488,17.9372675 C1.03645488,18.0597324 1.09248206,18.1169231 1.2128809,18.1169231 L7.62779465,18.1169231 C7.74819349,18.1169231 7.80422067,18.0599344 7.80422067,17.9372675 L7.80422067,16.683518 C7.80422067,16.549332 7.7597168,16.5040645 7.62779465,16.5040645 L5.1625986,16.5040645 L5.1625986,12.7502932 L5.1796849,12.7444326 C6.2674467,12.3689544 7.49865397,11.5787931 8.83873677,10.3963804 L8.85602175,10.3812239 L8.87251202,10.3973909 C9.35986906,10.8765398 9.85199434,11.3898415 10.3351791,11.9231499 L10.3542522,11.9393168 C11.7666537,13.4941765 13.2475992,15.3529753 14.6365568,17.3142324 C14.7313262,17.4793377 14.8243075,17.6110986 14.9222557,17.7188111 L14.9260305,17.723055 C15.1745767,17.9954686 15.4525272,18.1169231 15.8268364,18.1169231 L17.9650086,18.1169231 L17.9650086,18.1169231 Z" id="Shape"></path>
                </g>
                <text id="trade-mark" sketch:type="MSTextLayer" font-family="Merriweather Sans" font-size="11" font-weight="260" fill="#E75739">
                    <tspan x="108" y="11">™</tspan>
                </text>
            </g>
        </g>
    </g>
</svg>
