<svg id="Layer_1" data-name="Layer 1" xmlns="http://www.w3.org/2000/svg" viewBox="0 0 176 35"><defs><style>.cls-1{fill:#ed5b29;}</style></defs><title>Logo</title><path class="cls-1" d="M175.95,5.51l-.35-3.68c-.05-.51-.1-1-.15-1.52,0-.14,0-.23-.22-.23H173.5a.33.33,0,0,0-.24.18q-.47,1.46-.91,2.93c-.09.28-.14.56-.21.84a.4.4,0,0,1-.11-.19L170.83.31c0-.14-.09-.23-.27-.23h-1.87c-.13,0-.19,0-.2.18,0,.73-.1,1.46-.14,2.19-.06,1.16-.11,2.32-.17,3.47,0,.14,0,.18.16.18h1c.14,0,.18-.07.19-.2q.07-1.94.15-3.87a6.42,6.42,0,0,1,.07-.7l.09.11c.5,1.37,1,2.74,1.57,4.1.31.78.06.61.92.64a.31.31,0,0,0,.35-.26c.29-.89.59-1.78.9-2.67l.63-1.88a.31.31,0,0,1,.09.2c.1,1.31.2,2.62.29,3.94,0,.58,0,.58.61.57.28,0,.56,0,.84-.06V6C176,5.86,176,5.7,175.95,5.51Z" transform="translate(-0.04 -0.08)"/><path class="cls-1" d="M26.8,25.32H24.58a.44.44,0,0,1-.42-.21,83.18,83.18,0,0,0-8.44-10.43,26.73,26.73,0,0,0-5.4-4.55c-.73-.44-1.51-.81-2.28-1.19a.38.38,0,0,1-.26-.41V2.71h2.38c.25,0,.36-.11.36-.35V.56c0-.22-.1-.31-.32-.31H1.94C1.7.25,1.6.34,1.6.58V2.27c0,.37.06.43.42.43H4.95V15.94c0,.26.07.36.35.39a4.51,4.51,0,0,0,2.23-.51.38.38,0,0,0,.27-.41v-3.7a17.61,17.61,0,0,1,3.52,2.46c-.35.29-.66.56-1,.81a12.66,12.66,0,0,1-3.14,2,3.43,3.43,0,0,1-2.63.16,3.19,3.19,0,0,1-.74-5.33A.51.51,0,0,0,4,11.33V8.95a1.24,1.24,0,0,0,0-.29l-.26.07a5.41,5.41,0,0,0-1.88,1.2A5.86,5.86,0,0,0,.2,15.53a5.5,5.5,0,0,0,4.5,4.4c.22,0,.26.14.26.34V25c0,.24-.06.32-.31.32H2c-.3,0-.35.05-.35.35v1.72c0,.31.06.36.38.36h9.38c.3,0,.36-.06.36-.35V25.71c0-.36,0-.39-.39-.39H7.8a.59.59,0,0,1,0-.1v-5.4A.33.33,0,0,1,8,19.58a15.69,15.69,0,0,0,4-2.45c.43-.34.85-.7,1.28-1.07l.2.19c.74.79,1.51,1.56,2.22,2.37a80.81,80.81,0,0,1,6.4,8.21,1.82,1.82,0,0,0,1.56.94h3.21c.24,0,.34-.1.34-.33V25.74C27.21,25.37,27.16,25.32,26.8,25.32Z" transform="translate(-0.04 -0.08)"/><path class="cls-1" d="M138.25,9.71A8.81,8.81,0,0,0,132,9.2a5.4,5.4,0,0,0-3.25,2.14c-.27.38-.46.82-.71,1.27V9.56c0-.33-.06-.39-.38-.39h-4.34c-.31,0-.35.06-.36.35V11c0,.37.07.44.44.45h1.71c.2,0,.28,0,.28.26V32.57c0,.22-.08.26-.28.26h-1.87c-.25,0-.37.1-.38.33v1.59c0,.23.12.34.37.34h7.55c.29,0,.35-.07.35-.36V33.2c0-.3-.08-.38-.37-.38h-2.21c-.34,0-.35,0-.35-.35V26.2c0-.37,0-.74-.06-1.11s0-.47-.05-.68c.27-.09.39,0,.5.23a5,5,0,0,0,2,2.19,7.67,7.67,0,0,0,5.28,1A7.55,7.55,0,0,0,141.52,24a10.15,10.15,0,0,0,1.3-4.36,12.22,12.22,0,0,0-.64-5.38A7.84,7.84,0,0,0,138.25,9.71Zm.33,13.57a5.19,5.19,0,0,1-5,2.31,5.55,5.55,0,0,1-4.94-4,8.71,8.71,0,0,1-.39-3.73,8.43,8.43,0,0,1,1-3.45,5.33,5.33,0,0,1,4.26-2.91,5.43,5.43,0,0,1,5.54,3,8.51,8.51,0,0,1,.91,4,7.83,7.83,0,0,1-1.38,4.74Z" transform="translate(-0.04 -0.08)"/><path class="cls-1" d="M120.82,25.59h-1.9c-.34,0-.34,0-.34-.35V16.7a15.55,15.55,0,0,0-.17-2.34,5.82,5.82,0,0,0-4.69-5.17,13.41,13.41,0,0,0-7,.23,7.31,7.31,0,0,0-3.22,1.83.33.33,0,0,0-.1.46l.07.07c.32.37.61.77.92,1.16s.36.28.62.09a10.27,10.27,0,0,1,.91-.63,9.41,9.41,0,0,1,6.6-.94A3.68,3.68,0,0,1,115,13.1a5,5,0,0,1,.74,2.4c0,.51,0,1,0,1.47h-.38a47.4,47.4,0,0,0-6.15.2,12.29,12.29,0,0,0-3.73,1,5,5,0,0,0-3,5.56,4.73,4.73,0,0,0,3.38,3.95,8.78,8.78,0,0,0,5.15.12,8.15,8.15,0,0,0,4.15-2.49c.31-.34.59-.72.94-1.14v2.38a1.08,1.08,0,0,0,.91,1.23h.17c1.22,0,2.44,0,3.66,0,.24,0,.35-.11.34-.36V25.91C121.17,25.69,121.07,25.59,120.82,25.59Zm-5.5-3.78a.51.51,0,0,1-.07.27,8.19,8.19,0,0,1-4.57,3.32,5.28,5.28,0,0,1-3.62-.24,3,3,0,0,1-1.59-3.68,2.52,2.52,0,0,1,1.21-1.37,6.26,6.26,0,0,1,2.58-.77c1.25-.11,2.52-.16,3.75-.24v.06h2.09c.19,0,.24.06.24.24C115.32,20.21,115.33,21,115.33,21.82Z" transform="translate(-0.04 -0.08)"/><path class="cls-1" d="M60.65,25.49H58.78c-.26,0-.32-.08-.32-.33V15.48a9.73,9.73,0,0,0-.2-2,5.45,5.45,0,0,0-3.6-4.27,7.66,7.66,0,0,0-4-.25,6.15,6.15,0,0,0-4.46,3c0,.08-.1.15-.15.23H46v-.43c0-.77,0-1.55,0-2.33,0-.3-.06-.37-.35-.37H41.34c-.24,0-.36.1-.36.34v1.61c0,.25.12.36.38.35H43c.54,0,.53,0,.53.51V25.2c0,.23-.07.3-.3.3H41.35c-.32,0-.38.05-.39.36v1.52c0,.31.08.37.38.37h7c.25,0,.36-.1.36-.34V25.82c0-.26-.12-.35-.37-.35H46.69c-.36,0-.36,0-.36-.35V15a1.38,1.38,0,0,1,.16-.68,8.63,8.63,0,0,1,1-1.47,5.17,5.17,0,0,1,4.74-1.59,3.56,3.56,0,0,1,2.88,2.16,6.46,6.46,0,0,1,.5,2.73V26.52a1.11,1.11,0,0,0,1.25,1.24h3.79c.29,0,.36-.08.36-.36V25.89C61,25.55,61,25.49,60.65,25.49Z" transform="translate(-0.04 -0.08)"/><path class="cls-1" d="M161.78,22.67c-.19-.18-.31-.15-.47.07a4.75,4.75,0,0,1-.4.51,7.43,7.43,0,0,1-6.54,2.45,5.53,5.53,0,0,1-4-2.38A7.79,7.79,0,0,1,149,19.37c0-.25.09-.27.29-.27H162.5a.33.33,0,0,0,.33-.33.33.33,0,0,0,0,0,14.87,14.87,0,0,0-.62-4.55,7.45,7.45,0,0,0-2.58-3.86,8.45,8.45,0,0,0-12.42,3.41,11.32,11.32,0,0,0-.38,8.49,8.08,8.08,0,0,0,4.53,5.14,9.34,9.34,0,0,0,8.56-.41,8.22,8.22,0,0,0,2.91-2.66.45.45,0,0,0,0-.63h0C162.41,23.33,162.12,23,161.78,22.67Zm-11.54-8.84a5.31,5.31,0,0,1,5.31-2.34,4.6,4.6,0,0,1,2.6,1.11,5.12,5.12,0,0,1,1.62,2.81c.11.46.15.92.21,1.38a1.09,1.09,0,0,1,0,.22H149.17A6.87,6.87,0,0,1,150.25,13.83Z" transform="translate(-0.04 -0.08)"/><path class="cls-1" d="M76.7,19.35a8.5,8.5,0,0,0-2.32-1.1c-1.28-.39-2.58-.74-3.86-1.12A7.75,7.75,0,0,1,68,16a2.19,2.19,0,0,1-1-1.59,2.66,2.66,0,0,1,1.83-2.81,6.21,6.21,0,0,1,3.94-.09A4.13,4.13,0,0,1,75,12.87,2.86,2.86,0,0,1,75.63,15c0,.2.13.3.32.3h1.63a.32.32,0,0,0,.36-.33V9.47a.29.29,0,0,0-.27-.31H76.23a.33.33,0,0,0-.38.39v1.11a1.93,1.93,0,0,1,0,.22l-.12-.13a3.93,3.93,0,0,0-2.37-1.6,11.15,11.15,0,0,0-4.23-.22A5.91,5.91,0,0,0,66,10.26a4.93,4.93,0,0,0-1.78,3.93,4.12,4.12,0,0,0,1.46,3.32A6.71,6.71,0,0,0,68,18.81c1.34.43,2.7.81,4,1.21a8.11,8.11,0,0,1,2.62,1.12,2,2,0,0,1,.85,1.26,2.59,2.59,0,0,1-1.4,2.83,6.3,6.3,0,0,1-3.11.51,5.78,5.78,0,0,1-3.65-1.3A3.17,3.17,0,0,1,65.9,21.7c0-.24-.15-.34-.37-.34H64c-.37,0-.46.09-.46.48v5.68c0,.27.1.38.36.38h1.47a.3.3,0,0,0,.33-.33v-2h.07a6.43,6.43,0,0,0,.46.7,4.85,4.85,0,0,0,2.15,1.38A10.8,10.8,0,0,0,74,28a6.06,6.06,0,0,0,3-1.35,4.74,4.74,0,0,0,1.61-3.73A4.05,4.05,0,0,0,76.7,19.35Z" transform="translate(-0.04 -0.08)"/><path class="cls-1" d="M97.42,22.63c-.17-.17-.32-.14-.47.05s-.23.34-.36.51a7.54,7.54,0,0,1-3.76,2.36A6.12,6.12,0,0,1,86,23.07a8.41,8.41,0,0,1-.19-8.78,5.81,5.81,0,0,1,6.1-2.92,5.41,5.41,0,0,1,3.46,1.89,3.55,3.55,0,0,1,.88,2.63c0,.4.06.47.45.47H98c.5,0,.5,0,.5-.51V9.43a.29.29,0,0,0-.26-.31H96.84c-.24,0-.35.1-.35.35v2.11l-.15-.18a4.72,4.72,0,0,0-2.14-1.84,8.6,8.6,0,0,0-5-.59,8.24,8.24,0,0,0-6.79,5.92,11.61,11.61,0,0,0-.38,5.51,9.3,9.3,0,0,0,2.45,5.2,8.43,8.43,0,0,0,7.21,2.53A9.22,9.22,0,0,0,96.95,26a7.4,7.4,0,0,0,1.55-1.71c.1-.16.17-.33,0-.51C98.17,23.39,97.8,23,97.42,22.63Z" transform="translate(-0.04 -0.08)"/><path class="cls-1" d="M37.28,25.5h-1.7c-.41,0-.41,0-.41-.41V9.88c0-.6,0-.6-.6-.6H30c-.23,0-.34.1-.34.33v1.56c0,.24.11.35.35.35h2.23v14H30c-.25,0-.35.1-.35.34v1.59c0,.21.09.32.32.32H37.3a.31.31,0,0,0,.35-.33V25.84C37.65,25.6,37.53,25.49,37.28,25.5Z" transform="translate(-0.04 -0.08)"/><path class="cls-1" d="M15.8,13.15c.68-.77,1.36-1.52,2-2.29C20,8.3,22,5.6,23.89,2.83a.44.44,0,0,1,.31-.17H26c.3,0,.38-.07.39-.37q0-.83,0-1.67c0-.29-.09-.36-.39-.36H18.2c-.45,0-.45,0-.45.46V2.31c0,.31,0,.35.35.35h2.75a81.84,81.84,0,0,1-7,8.69Z" transform="translate(-0.04 -0.08)"/><path class="cls-1" d="M167.12.36c0-.21-.08-.25-.26-.25h-4.74c-.2,0-.29,0-.28.26a7.11,7.11,0,0,1,0,.75c0,.17.06.22.22.22h1.36c.25,0,.33.05.32.31V5.86c0,.2,0,.29.26.27a6.6,6.6,0,0,1,.9,0c.24,0,.29-.08.29-.3V1.34h1.65c.21,0,.31-.05.29-.28A4.85,4.85,0,0,1,167.12.36Z" transform="translate(-0.04 -0.08)"/></svg>