<svg id="Layer_1" xmlns="http://www.w3.org/2000/svg" viewBox="0 0 28 28"><style>.st0{fill:#ed5b29}</style><title>Logo</title><path class="st0" d="M26.8 25.2h-2.2c-.2 0-.3-.1-.4-.2-2.5-3.7-5.4-7.2-8.4-10.4-1.6-1.7-3.4-3.3-5.4-4.6-.8-.4-1.6-.8-2.4-1.1-.2-.1-.3-.3-.3-.4V2.6h2.4c.2 0 .4-.1.4-.3V.5c0-.2-.1-.3-.3-.3H1.9c-.2 0-.3.1-.3.3v1.7c0 .4.1.4.4.4h2.9v13.2c0 .3.1.4.3.4.8 0 1.5-.2 2.2-.5.2-.1.3-.2.3-.4v-3.7c1.3.7 2.5 1.5 3.5 2.5-.4.3-.7.6-1 .8-.9.8-2 1.5-3.1 2-.8.4-1.8.5-2.6.2-1.6-.7-2.3-2.6-1.6-4.2.2-.4.5-.8.8-1.1.2-.2.3-.4.3-.6V8.9v-.3h-.3c-.7.3-1.3.7-1.9 1.2C.3 11.2-.3 13.4.1 15.4c.4 2.3 2.2 4 4.5 4.4.2 0 .3.1.3.3v4.7c0 .2-.1.3-.3.3H2c-.3 0-.4 0-.4.4v1.7c0 .3.1.4.4.4h9.4c.3 0 .4-.1.4-.4v-1.7c0-.4 0-.4-.4-.4H7.8v-5.5c0-.1.1-.2.2-.2 1.4-.6 2.8-1.4 4-2.5.4-.3.9-.7 1.3-1.1l.2.2c.7.8 1.5 1.6 2.2 2.4 2.3 2.6 4.4 5.3 6.4 8.2.3.6.9.9 1.6.9h3.2c.2 0 .3-.1.3-.3v-1.7c0-.2-.1-.3-.4-.3z"/><path class="st0" d="M15.8 13.1c.7-.8 1.4-1.5 2-2.3 2.2-2.6 4.2-5.3 6.1-8 .1-.1.2-.2.3-.2H26c.3 0 .4-.1.4-.4V.5c0-.3-.1-.4-.4-.4h-7.8c-.5 0-.5 0-.5.5v1.6c0 .3 0 .3.4.3h2.8c-2.1 3.1-4.5 6-7 8.7l1.9 1.9z"/></svg>