<svg width="39" height="39" xmlns="http://www.w3.org/2000/svg">

 <g>
  <title>Layer 1</title>
  <path fill="#E75739" d="m28.79892,32.78504l-2.22,0c-0.0827,0.0082 -0.166,-0.0072 -0.2403,-0.0443c-0.0744,-0.0372 -0.1366,-0.0946 -0.1797,-0.1657c-2.527,-3.6989 -5.3496,-7.187 -8.44,-10.43c-1.5908,-1.7489 -3.4066,-3.2789 -5.4,-4.55001c-0.73,-0.44 -1.50996,-0.81001 -2.27996,-1.19001c-0.08437,-0.02727 -0.15656,-0.0832 -0.20404,-0.15808c-0.04749,-0.07487 -0.06727,-0.16395 -0.05597,-0.25189l0,-5.82001l2.37997,0c0.25,0 0.36,-0.11003 0.36,-0.35003l0,-1.79999c0,-0.22 -0.1,-0.31 -0.32,-0.31l-8.29998,0c-0.24,0 -0.34003,0.09002 -0.34003,0.33002l0,1.73999c0,0.37 0.06005,0.42999 0.42005,0.42999l2.92999,0l0,13.24002c0,0.26 0.06998,0.36 0.34998,0.39c0.77455,0.0218 1.54196,-0.1537 2.23004,-0.51c0.08622,-0.0254 0.16065,-0.0805 0.21008,-0.1555c0.04943,-0.0751 0.07063,-0.1653 0.05988,-0.2545l0,-3.7c1.26977,0.6725 2.45199,1.4988 3.51999,2.46c-0.35,0.29 -0.66,0.56 -1,0.81c-0.94175,0.8186 -1.99999,1.4926 -3.13999,2c-0.40619,0.1987 -0.84765,0.3151 -1.29901,0.3426c-0.45136,0.0275 -0.90371,-0.0346 -1.33099,-0.1826c-0.38088,-0.1746 -0.72363,-0.4225 -1.00867,-0.7296c-0.28504,-0.3071 -0.50673,-0.6674 -0.65253,-1.0602c-0.14579,-0.3928 -0.21279,-0.8105 -0.19714,-1.2292c0.01565,-0.4187 0.11361,-0.8302 0.28833,-1.211c0.19004,-0.4246 0.47382,-0.8008 0.83002,-1.1c0.07071,-0.0566 0.12542,-0.1306 0.15875,-0.2148c0.03332,-0.0841 0.04411,-0.1756 0.03125,-0.2652l0,-2.38002c0.00997,-0.09641 0.00997,-0.19357 0,-0.28998l-0.26001,0.07001c-0.70415,0.26321 -1.34479,0.67208 -1.88001,1.19995c-0.7414,0.70734 -1.2847,1.59644 -1.57592,2.57894c-0.29123,0.9824 -0.32021,2.024 -0.08405,3.0211c0.2098,1.1057 0.75371,2.1205 1.55841,2.9073c0.8047,0.7868 1.83144,1.3078 2.94159,1.4927c0.22,0 0.26001,0.14 0.26001,0.34l0,4.73c0,0.24 -0.06,0.32 -0.31,0.32l-2.61004,0c-0.3,0 -0.34998,0.05 -0.34998,0.35l0,1.72c0,0.31 0.06001,0.36 0.38001,0.36l9.37997,0c0.3,0 0.36,-0.06 0.36,-0.35l0,-1.69c0,-0.36 0,-0.39 -0.39,-0.39l-3.57995,0l0,-5.5c0.01091,-0.0534 0.03486,-0.1033 0.06976,-0.1452c0.0349,-0.0418 0.07962,-0.0744 0.13019,-0.0948c1.44891,-0.611 2.7974,-1.4369 4,-2.45c0.43,-0.34 0.85,-0.7 1.28,-1.07l0.2,0.19c0.74,0.79 1.51,1.56 2.22,2.37c2.3055,2.598 4.4432,5.3402 6.4,8.21c0.1538,0.2806 0.3791,0.5154 0.6532,0.6805c0.274,0.1652 0.5869,0.2547 0.9068,0.2595l3.24,0c0.24,0 0.34,-0.1 0.34,-0.33l0,-1.7c-0.03,-0.4 -0.08,-0.47 -0.44,-0.47z"/>
  <path fill="#E75739" d="m17.79942,20.63504c0.68,-0.77 1.36,-1.52 2,-2.29c2.1765,-2.55186 4.2096,-5.22264 6.0899,-7.99995c0.0362,-0.04917 0.0827,-0.08985 0.1363,-0.11921c0.0535,-0.02936 0.1128,-0.04668 0.1737,-0.05078l1.8,0c0.3,0 0.38,-0.06999 0.39,-0.36999l0,-1.67005c0,-0.29 -0.09,-0.35998 -0.39,-0.35998l-7.8,0c-0.45,0 -0.45,0.00002 -0.45,0.46002l0,1.54999c0,0.31 0.0001,0.34997 0.3501,0.34997l2.8,0c-2.1312,3.05391 -4.47,5.95745 -7,8.68998l1.9,1.81z"/>
  <path fill="#E75739" d="m33.23005,9.96004c-0.837,0 -1.655,-0.2481 -2.35,-0.7129c-0.696,-0.46481 -1.238,-1.12545 -1.558,-1.89839c-0.32,-0.77293 -0.404,-1.62343 -0.241,-2.44397c0.163,-0.82054 0.566,-1.57425 1.158,-2.16583c0.591,-0.59157 1.345,-0.99444 2.166,-1.15765c0.82,-0.16322 1.671,-0.07944 2.444,0.24072c0.773,0.32016 1.433,0.8623 1.898,1.55792c0.465,0.69562 0.713,1.51342 0.713,2.35004c-0.003,1.12105 -0.449,2.19545 -1.242,2.98816c-0.793,0.7927 -1.867,1.2392 -2.988,1.2419zm0,-7.48006c-0.643,0 -1.271,0.19061 -1.806,0.54773c-0.534,0.35711 -0.951,0.8647 -1.197,1.45856c-0.246,0.59386 -0.31,1.24737 -0.185,1.8778c0.126,0.63044 0.435,1.20948 0.89,1.66401c0.454,0.45452 1.033,0.76406 1.664,0.88946c0.63,0.1254 1.284,0.06105 1.878,-0.18494c0.594,-0.24598 1.101,-0.66256 1.458,-1.19702c0.357,-0.53446 0.548,-1.16281 0.548,-1.8056c-0.003,-0.86114 -0.346,-1.68624 -0.955,-2.29517c-0.609,-0.60892 -1.434,-0.95219 -2.295,-0.95483z"/>
  <path stroke="null" fill="#E75739" d="m35.15,7.75996l-0.89,0c-0.079,0.00269 -0.157,-0.01643 -0.226,-0.05524c-0.069,-0.0388 -0.125,-0.09578 -0.164,-0.16473l-0.84,-1.14001l-0.1,0l0,1.35998l-0.93,0l0,-3.75995l1.17,0c0.203,-0.00072 0.405,0.02615 0.6,0.07996c0.167,0.04249 0.323,0.11728 0.46,0.22003c0.126,0.10136 0.226,0.23176 0.29,0.38001c0.06,0.14954 0.09,0.30901 0.09,0.46997c-0.002,0.14272 -0.025,0.28429 -0.07,0.41998c-0.05,0.12427 -0.121,0.23923 -0.21,0.34003c-0.084,0.10688 -0.19,0.19537 -0.31,0.26001l1.13,1.58996zm-2.22,-2.17999l0.21,0c0.09,0.0122 0.181,0.0122 0.27,0c0.059,-0.01943 0.113,-0.04995 0.16,-0.08997c0.032,-0.0323 0.059,-0.06945 0.08,-0.11004c0.012,-0.05273 0.012,-0.10725 0,-0.15998c0,-0.15 0,-0.20999 -0.1,-0.23999c-0.123,-0.07471 -0.266,-0.10967 -0.41,-0.10003l-0.24,0l0.03,0.70001z"/>
  <defs transform="translate(313.039 0) translate(0 286.235)">
   <clipPath id="svg_2">
    <rect x="313.03903" y="286.23502" fill="white" height="34.84" width="173.96"/>
   </clipPath>
  </defs>
 </g>
</svg>
