<svg width="320" height="270" viewBox="0 0 320 270" fill="none" xmlns="http://www.w3.org/2000/svg">
<path opacity="0.36" d="M64.8161 267.178C70.4327 267.771 76.345 268.364 82.2572 268.661C132.216 271.922 184.539 270.736 229.472 247.609C264.946 229.227 292.437 198.984 307.514 162.218C322.59 125.155 324.068 84.2386 311.652 46.2868C306.627 30.8688 298.35 15.1544 284.752 6.85242C273.223 -0.263554 258.738 -1.44955 245.435 1.51544C232.133 4.48043 220.013 11.0034 208.779 18.7124C170.054 45.3973 140.493 85.4246 99.1071 107.069C73.6845 120.411 43.2364 126.638 24.6129 150.061C7.76297 170.816 -6.42641 201.949 3.03318 228.634C8.35419 243.458 21.3611 254.429 36.1417 260.359C45.3057 263.917 55.0609 265.992 64.8161 267.178Z" fill="#E8E4FF"/>
<path d="M233.018 250.87C229.471 250.87 226.81 247.905 226.81 244.644C226.81 241.382 229.767 238.417 233.018 238.417C236.27 238.417 239.226 241.382 239.226 244.644C239.226 247.905 236.566 250.87 233.018 250.87ZM233.018 241.086C231.245 241.086 229.767 242.568 229.767 244.347C229.767 246.126 231.245 247.609 233.018 247.609C234.792 247.609 236.27 246.126 236.27 244.347C236.27 242.568 234.792 241.086 233.018 241.086Z" fill="#534898"/>
<path d="M228.289 14.8573C224.741 14.8573 222.081 11.8923 222.081 8.63082C222.081 5.07283 225.037 2.40434 228.289 2.40434C231.54 2.40434 234.497 5.36933 234.497 8.63082C234.497 12.1888 231.836 14.8573 228.289 14.8573ZM228.289 5.07283C226.515 5.07283 225.037 6.55533 225.037 8.33432C225.037 10.1133 226.515 11.5958 228.289 11.5958C230.062 11.5958 231.54 10.1133 231.54 8.33432C231.54 6.85182 230.062 5.07283 228.289 5.07283Z" fill="#534898"/>
<path d="M267.605 128.416C264.058 128.416 261.397 125.451 261.397 122.19C261.397 118.928 264.353 115.963 267.605 115.963C270.857 115.963 273.813 118.928 273.813 122.19C273.813 125.451 271.152 128.416 267.605 128.416ZM267.605 118.928C265.831 118.928 264.353 120.411 264.353 122.19C264.353 123.969 265.831 125.451 267.605 125.451C269.379 125.451 270.857 123.969 270.857 122.19C270.857 120.411 269.379 118.928 267.605 118.928Z" fill="#534898"/>
<path d="M62.4502 202.245C58.9029 202.245 56.2424 199.28 56.2424 196.018C56.2424 192.757 59.1985 189.792 62.4502 189.792C65.702 189.792 68.6581 192.757 68.6581 196.018C68.6581 199.28 65.9976 202.245 62.4502 202.245ZM62.4502 192.757C60.6766 192.757 59.1985 194.239 59.1985 196.018C59.1985 197.797 60.6766 199.28 62.4502 199.28C64.2239 199.28 65.702 197.797 65.702 196.018C65.702 194.239 64.2239 192.757 62.4502 192.757Z" fill="#534898"/>
<path d="M136.649 234.266V239.01H141.379V240.196H136.649V245.237H135.466V240.196H130.737V239.01H135.466V234.266H136.649Z" fill="#534898"/>
<path d="M137.24 245.83H134.58V241.086H129.85V238.417H134.58V233.377H137.24V238.417H141.97V241.086H137.24V245.83Z" fill="#534898"/>
<path d="M158.41 194.773C129.943 194.773 107.093 171.452 107.093 143.241C107.093 115.03 129.943 91.7086 158.41 91.7086C186.878 91.7086 209.727 114.654 209.727 143.241C209.727 171.828 186.503 194.773 158.41 194.773ZM158.41 95.47C132.19 95.47 110.839 116.911 110.839 143.241C110.839 169.571 132.19 191.012 158.41 191.012C184.631 191.012 205.981 169.571 205.981 143.241C205.981 116.911 184.631 95.47 158.41 95.47Z" fill="#534898"/>
<path d="M188.751 180.856C185.755 165.81 172.644 155.278 157.287 155.278C142.678 155.278 129.943 165.057 126.197 179.351L122.451 178.223C126.572 162.424 140.806 151.516 157.287 151.516C174.143 151.516 189.126 163.553 192.497 180.103L188.751 180.856Z" fill="#534898"/>
<path d="M158.41 147.002C150.919 147.002 144.551 140.608 144.551 133.085C144.551 125.562 150.919 119.167 158.41 119.167C165.902 119.167 172.27 125.562 172.27 133.085C172.27 140.608 165.902 147.002 158.41 147.002ZM158.41 122.553C152.792 122.553 148.297 127.066 148.297 132.709C148.297 138.351 152.792 142.865 158.41 142.865C164.029 142.865 168.524 138.351 168.524 132.709C168.524 127.066 164.029 122.553 158.41 122.553Z" fill="#534898"/>
<path d="M190.622 212.076C203.035 212.076 213.097 201.972 213.097 189.507C213.097 177.043 203.035 166.938 190.622 166.938C178.21 166.938 168.148 177.043 168.148 189.507C168.148 201.972 178.21 212.076 190.622 212.076Z" fill="#534898"/>
<path d="M198.862 188.003H192.495V181.608C192.495 180.48 191.745 179.727 190.622 179.727C189.498 179.727 188.749 180.48 188.749 181.608V188.003H182.381C181.257 188.003 180.508 188.755 180.508 189.883C180.508 191.012 181.257 191.764 182.381 191.764H188.749V198.159C188.749 199.287 189.498 200.039 190.622 200.039C191.745 200.039 192.495 199.287 192.495 198.159V191.764H198.862C199.986 191.764 200.735 191.012 200.735 189.883C200.735 188.755 199.986 188.003 198.862 188.003Z" fill="#F9F9F9"/>
</svg>
